<?xml version="1.0" encoding="UTF-8"?>
<svg id="Layer_1" xmlns="http://www.w3.org/2000/svg" version="1.1" viewBox="0 0 1000 1000">
  <!-- Generator: Adobe Illustrator 29.2.1, SVG Export Plug-In . SVG Version: 2.1.0 Build 116)  -->
  <defs>
    <style>
      .st0 {
        fill: #242d3c;
      }

      .st1 {
        fill: #fdc800;
      }

      .st2 {
        fill: #fff;
      }
    </style>
  </defs>
  <path class="st0" d="M728.9,948.6v-34c36.2,0,65.6-29.4,65.6-65.6V151c0-25.1,9.3-48,24.7-65.6H271.1c-36.2,0-65.6,29.4-65.6,65.6v697.9h-34V151c0-54.9,44.7-99.6,99.6-99.6h622.9v34c-36.2,0-65.6,29.4-65.6,65.6v697.9c0,54.9-44.7,99.6-99.6,99.6Z"/>
  <path class="st0" d="M993.6,168.1h-199.2v-17c0-54.9,44.7-99.6,99.6-99.6s99.6,44.7,99.6,99.6v17ZM830.7,134h126.6c-7.5-27.9-33-48.5-63.3-48.5s-55.8,20.6-63.3,48.5Z"/>
  <path class="st0" d="M728.9,948.6H106c-54.9,0-99.6-44.7-99.6-99.6v-17h657v17c0,36.1,29.4,65.5,65.6,65.6v34ZM42.7,866c7.5,27.9,33,48.5,63.3,48.5h548.1c-11.8-13.5-20.1-30.2-23.2-48.5H42.7Z"/>
  <rect class="st0" x="536.5" y="185.6" width="196.9" height="34"/>
  <rect class="st0" x="536.5" y="251.8" width="196.9" height="34"/>
  <rect class="st0" x="536.5" y="317.9" width="196.9" height="34"/>
  <rect class="st0" x="536.5" y="384.1" width="196.9" height="34"/>
  <rect class="st0" x="266.6" y="450.2" width="466.9" height="34"/>
  <rect class="st0" x="266.6" y="516.3" width="466.9" height="34"/>
  <rect class="st0" x="266.6" y="582.5" width="466.9" height="34"/>
  <rect class="st0" x="266.6" y="648.6" width="466.9" height="34"/>
  <rect class="st0" x="266.6" y="714.8" width="466.9" height="34"/>
  <rect class="st1" x="266.6" y="185.6" width="232.5" height="232.5"/>
  <path class="st2" d="M457.7,376.8h-32.1c0-64.9-52.8-117.7-117.7-117.7v-32.1c82.6,0,149.8,67.2,149.8,149.8Z"/>
  <path class="st2" d="M402.6,376.8h-32.1c0-34.5-28-62.5-62.5-62.5v-32.1c52.2,0,94.6,42.4,94.6,94.6Z"/>
  <path class="st2" d="M344,358.7c0,10-8.1,18.1-18.1,18.1s-18-8.1-18-18.1,8.1-18.1,18-18.1,18.1,8.1,18.1,18.1Z"/>
</svg>