<?xml version="1.0" encoding="UTF-8"?>
<svg id="Layer_1" xmlns="http://www.w3.org/2000/svg" version="1.1" viewBox="0 0 1000 1000">
  <!-- Generator: Adobe Illustrator 29.2.1, SVG Export Plug-In . SVG Version: 2.1.0 Build 116)  -->
  <defs>
    <style>
      .st0 {
        fill: #4999d5;
      }

      .st1 {
        fill: #242d3c;
      }

      .st2 {
        fill: #0054a1;
      }

      .st3 {
        fill: #ff8d39;
      }
    </style>
  </defs>
  <path class="st3" d="M553.7,679.4l45.5-17.4c3.6-13.7,9-26.6,16-38.5l-19.9-44.5,30.4-30.5,44.5,20c11.9-7,24.8-12.4,38.5-16l17.3-45.5h35.4v-254.2h-455.9v466.6h248.2v-40Z"/>
  <path class="st2" d="M780.1,910.9h-65.2l-18.4-48.4c-9.3-3-18.4-6.7-27-11.2l-47.3,21.2-46.1-46.1,21.2-47.3c-4.5-8.7-8.3-17.7-11.2-27l-48.4-18.5v-65.2l48.4-18.4c3-9.3,6.7-18.4,11.3-27.1l-21.2-47.3,46.1-46.1,47.3,21.2c8.7-4.5,17.7-8.3,27-11.2l18.4-48.4h65.2l18.5,48.4c9.3,3,18.4,6.7,27.1,11.2l47.3-21.2,46,46.1-21.2,47.3c4.6,8.7,8.3,17.8,11.3,27.1l48.4,18.5v65.2s-48.4,18.5-48.4,18.5c-2.9,9.3-6.7,18.3-11.3,27l21.2,47.3-46,46.1-47.3-21.2c-8.7,4.5-17.7,8.3-27,11.2l-18.5,48.4ZM737.1,878.8h20.9l16.4-42.9,8-2.1c12.1-3.2,23.7-8,34.5-14.3l7.1-4.1,41.9,18.8,14.8-14.8-18.8-42,4.2-7.1c6.4-10.9,11.2-22.5,14.3-34.4l2.1-8,42.9-16.4v-20.9l-42.9-16.4-2.1-8c-3.1-11.9-7.9-23.5-14.3-34.4l-4.2-7.1,18.8-41.9-14.8-14.8-41.9,18.8-7.1-4.2c-10.8-6.3-22.4-11.1-34.5-14.3l-8-2.1-16.4-42.9h-20.9l-16.3,42.9-8,2.1c-12.1,3.2-23.7,8-34.4,14.3l-7.1,4.2-41.9-18.8-14.8,14.8,18.8,41.9-4.2,7.1c-6.3,10.8-11.1,22.4-14.3,34.5l-2.1,8-42.9,16.3v20.9l42.9,16.4,2.1,8c3.2,12.1,8,23.7,14.3,34.4l4.2,7.1-18.8,42,14.8,14.8,41.9-18.8,7.1,4.2c10.7,6.3,22.3,11.1,34.4,14.3l8,2.1,16.3,42.9Z"/>
  <path class="st0" d="M747.6,791.3c-49.8,0-90.3-40.5-90.3-90.3s40.5-90.3,90.3-90.3,90.3,40.5,90.3,90.3-40.5,90.3-90.3,90.3ZM747.6,642.7c-32.1,0-58.2,26.1-58.2,58.2s26.1,58.2,58.2,58.2,58.2-26.1,58.2-58.2-26.1-58.2-58.2-58.2Z"/>
  <rect class="st1" x="124.6" y="583.3" width="88.4" height="32.1"/>
  <rect class="st1" x="124.6" y="638.3" width="88.4" height="32.1"/>
  <rect class="st1" x="42.5" y="528.2" width="170.5" height="32.1"/>
  <rect class="st1" x="124.6" y="363.1" width="88.4" height="32.1"/>
  <rect class="st1" x="124.6" y="418.1" width="88.4" height="32.1"/>
  <rect class="st1" x="42.5" y="308" width="170.5" height="32.1"/>
  <rect class="st1" x="42.5" y="748.3" width="170.5" height="32.1"/>
  <path class="st1" d="M822.4,223.9H244.5V89.1h577.9v134.8ZM276.6,191.8h513.7v-70.6H276.6v70.6Z"/>
  <rect class="st1" x="308.7" y="140.5" width="32.1" height="32.1"/>
  <rect class="st1" x="372.9" y="140.5" width="32.1" height="32.1"/>
  <rect class="st1" x="437.1" y="140.5" width="32.1" height="32.1"/>
  <polygon class="st1" points="515.2 780.5 244.5 780.5 244.5 191.8 822.4 191.8 822.4 480.2 790.3 480.2 790.3 223.9 276.6 223.9 276.6 748.3 515.2 748.3 515.2 780.5"/>
</svg>