<?xml version="1.0" encoding="UTF-8"?>
<svg id="Layer_1" xmlns="http://www.w3.org/2000/svg" version="1.1" viewBox="0 0 1000 1000">
  <!-- Generator: Adobe Illustrator 29.2.1, SVG Export Plug-In . SVG Version: 2.1.0 Build 116)  -->
  <defs>
    <style>
      .st0 {
        fill: #4999d5;
      }

      .st1 {
        fill: #242d3c;
      }

      .st2 {
        fill: #fdc800;
      }

      .st3 {
        fill: #fff;
      }
    </style>
  </defs>
  <path class="st1" d="M914.3,440h-39.1c0-207.5-168.8-376.2-376.2-376.2S122.8,232.5,122.8,440h-39.1c0-229,186.3-415.3,415.3-415.3s415.3,186.3,415.3,415.3Z"/>
  <path class="st1" d="M320.7,440h-39.1c0-232.9,95.5-415.3,217.4-415.3v39.1c-96.7,0-178.3,172.3-178.3,376.2Z"/>
  <path class="st1" d="M716.4,440h-39.1c0-203.9-81.7-376.2-178.3-376.2V24.6c121.9,0,217.4,182.4,217.4,415.3Z"/>
  <rect class="st1" x="479.5" y="44.2" width="39.1" height="395.8"/>
  <path class="st1" d="M499,261.6c-107.5,0-213.5-16.9-315-50.2l12.2-37.1c97.5,32,199.4,48.3,302.8,48.3s205.4-16.2,302.9-48.3l12.2,37.1c-101.4,33.3-207.4,50.2-315.1,50.2Z"/>
  <path class="st2" d="M29.8,440v527.6h938.3V440H29.8ZM499,846.2c-78.7,0-142.4-63.8-142.4-142.4s63.8-142.4,142.4-142.4,142.3,63.8,142.3,142.4-63.6,142.4-142.3,142.4Z"/>
  <path class="st3" d="M820.9,913.8H177v-19.5c0-40.7-33.1-73.8-73.8-73.8h-19.6v-233.2h19.6c40.7,0,73.8-33.1,73.8-73.8v-19.6h643.9v19.6c0,40.7,33.2,73.8,73.9,73.8h19.5v233.2h-19.5c-40.8,0-73.9,33.1-73.9,73.8v19.5ZM214.4,874.7h569.1c8.2-46.6,45.1-83.5,91.8-91.7v-158.4c-46.7-8.2-83.6-45.1-91.8-91.7H214.4c-8.2,46.6-45,83.5-91.7,91.7v158.4c46.6,8.2,83.5,45.1,91.7,91.7Z"/>
  <rect class="st3" x="708.5" y="684.2" width="104.6" height="39.1"/>
  <rect class="st3" x="184.9" y="684.2" width="104.5" height="39.1"/>
  <path class="st0" d="M567.2,711.2c-.3,50.2-25.8,86-89.4,86s-9.2-.3-13.3-.8v-82.1l-24.4,8.9v-14.7l24.4-8.9v-14.2l-24.4,8.9v-14.7l24.4-8.9v-54.7h23v46.3l48.8-17.5v14.7l-48.8,17.5v14.2l48.6-17.5v14.7l-48.6,17.5v71.3c30.5-1.4,56.6-19.4,57.7-66.1h21.9Z"/>
</svg>