<?xml version="1.0" encoding="UTF-8"?>
<svg id="Layer_1" xmlns="http://www.w3.org/2000/svg" version="1.1" viewBox="0 0 1000 1000">
  <!-- Generator: Adobe Illustrator 29.2.1, SVG Export Plug-In . SVG Version: 2.1.0 Build 116)  -->
  <defs>
    <style>
      .st0 {
        fill: #242d3c;
      }

      .st1 {
        fill: #fdc800;
      }

      .st2 {
        fill: #fff;
      }

      .st3 {
        fill: #ff8d39;
      }
    </style>
  </defs>
  <path class="st3" d="M510.3,330.9c0,99.1-80.4,179.5-179.5,179.5s-179.4-80.4-179.4-179.5,80.4-179.4,179.4-179.4,179.5,80.4,179.5,179.4Z"/>
  <path class="st0" d="M330.8,586.1h0c-140.7,0-255.2-114.5-255.2-255.2s114.5-255.2,255.2-255.2,255.3,114.5,255.3,255.2c0,140.7-114.5,255.2-255.3,255.2ZM330.8,107.5c-123.1,0-223.3,100.2-223.3,223.3s100.2,223.3,223.3,223.3,223.3-100.2,223.4-223.3c0-123.1-100.2-223.3-223.4-223.3Z"/>
  <path class="st2" d="M343.8,424.6h-25.9c-14.6,0-28.4-5.7-38.7-16-10.4-10.5-16-24.3-16.1-38.9h31.9c0,6.1,2.4,11.9,6.8,16.3,4.3,4.2,10,6.6,16.2,6.6h25.9c6.1,0,11.9-2.4,16.3-6.8,4.2-4.3,6.6-10.1,6.6-16.2s-2.4-11.9-6.7-16.2c-4.3-4.3-10.1-6.7-16.2-6.7h-25.9c-14.6,0-28.4-5.7-38.8-16-10.4-10.4-16-24.2-16-38.8,0-14.7,5.7-28.5,16-38.8,10.5-10.4,24.3-16.1,38.8-16.1h25.9c14.5,0,28.2,5.6,38.7,15.9,10.5,10.6,16.2,24.4,16.2,39h-31.9c0-6.1-2.4-11.9-6.8-16.3-4.3-4.2-10.1-6.6-16.2-6.6h-25.9c-6.1,0-11.9,2.4-16.3,6.8-4.2,4.2-6.6,10-6.6,16.2,0,6.1,2.4,11.9,6.7,16.2,4.3,4.3,10.1,6.7,16.2,6.7h25.9c14.6,0,28.4,5.7,38.8,16,10.4,10.4,16.1,24.2,16.1,38.8s-5.7,28.3-16,38.8c-10.6,10.4-24.4,16.1-38.9,16.1Z"/>
  <rect class="st2" x="314.9" y="222" width="31.9" height="31.1"/>
  <rect class="st2" x="314.9" y="408.7" width="31.9" height="31.1"/>
  <path class="st1" d="M848.6,669.1c0,99.1-80.4,179.4-179.5,179.5-99.1,0-179.4-80.4-179.4-179.5s80.4-179.4,179.4-179.4,179.5,80.4,179.5,179.5Z"/>
  <path class="st0" d="M669.1,924.4h0c-140.7,0-255.2-114.5-255.2-255.2s114.5-255.2,255.2-255.2,255.3,114.5,255.3,255.2c0,140.7-114.5,255.2-255.3,255.2ZM669.1,445.8c-123.1,0-223.3,100.2-223.3,223.3s100.2,223.3,223.3,223.3v16-16c123.1,0,223.3-100.2,223.4-223.3,0-123.1-100.2-223.3-223.4-223.3Z"/>
  <path class="st0" d="M835,371.9h-31.9v-29.2h31.9v29.2ZM835,313.6h-31.9v-29.2h31.9v29.2ZM835,255.2h-31.9v-29.2h31.9v29.2Z"/>
  <rect class="st0" x="803.1" y="165" width="31.9" height="31.9"/>
  <path class="st0" d="M773.9,196.9h-29.2v-31.9h29.2v31.9ZM715.6,196.9h-29.2v-31.9h29.2v31.9ZM657.3,196.9h-29.2v-31.9h29.2v31.9Z"/>
  <path class="st0" d="M196.9,773.9h-31.9v-29.2h31.9v29.2ZM196.9,715.6h-31.9v-29.2h31.9v29.2ZM196.9,657.3h-31.9v-29.2h31.9v29.2Z"/>
  <rect class="st0" x="165" y="803.1" width="31.9" height="31.9"/>
  <path class="st0" d="M371.9,835h-29.2v-31.9h29.2v31.9ZM313.6,835h-29.2v-31.9h29.2v31.9ZM255.2,835h-29.2v-31.9h29.2v31.9Z"/>
  <path class="st2" d="M749.5,680.4c-.3,53.9-27.7,92.4-96,92.4s-9.8-.3-14.3-.9v-88.2l-26.2,9.5v-15.8l26.2-9.5v-15.2l-26.2,9.5v-15.8l26.2-9.5v-58.7h24.7v49.8l52.4-18.8v15.8l-52.4,18.8v15.2l52.1-18.8v15.8l-52.1,18.8v76.6c32.8-1.5,60.8-20.9,62-70.9h23.5Z"/>
</svg>