<?xml version="1.0" encoding="UTF-8"?>
<svg id="Layer_1" xmlns="http://www.w3.org/2000/svg" version="1.1" viewBox="0 0 1000 1000">
  <!-- Generator: Adobe Illustrator 29.2.1, SVG Export Plug-In . SVG Version: 2.1.0 Build 116)  -->
  <defs>
    <style>
      .st0 {
        fill: #242d3c;
      }

      .st1 {
        fill: #fdc800;
      }

      .st2 {
        fill: #ff8d39;
      }
    </style>
  </defs>
  <path class="st1" d="M564.5,161.5c16.3-4.2,32.5-2.3,48.9-.9,5.3,12.3,3.5,23.3,3.5,33.9.1,131.5,0,263,0,394.5,0,25.7,0,51.4,0,77.1,0,6.8-.7,13.7-1.2,21.5-17.3,7.7-34.3,4.8-52.1,2.5-1.1-4.8-2.6-8.5-2.6-12.3,0-169.1,0-338.2.3-507.2,0-2.7,1.8-5.5,3.1-9.1Z"/>
  <path class="st1" d="M316.2,160.8c16.4-2.6,31.8-1.7,47.1-.6,7,11.6,4.5,22.6,4.5,33.1.2,104.6.1,209.2.1,313.7s0,100.6,0,151c0,9.7-.5,19.5-.8,29.7-17.2,8.1-33.7,3.7-48.8,3.5-8.5-6.9-6.8-15.2-6.8-22.8-.2-33.5,0-67.1,0-100.6,0-125.3,0-250.6,0-375.9,0-9.7-2.4-19.8,4.8-31.2Z"/>
  <path class="st1" d="M790.5,690c-16.1,3.7-32.4,3.1-47.9.5-7.7-8.6-5.2-17.9-5.3-26.5-.2-71.1,0-142.2,0-213.2,0-85.9,0-171.8,0-257.7,0-9.7.6-19.4,1-30.1,18.5-5.9,35.4-4.6,52.4-1.4,1.4,4.2,3.1,6.9,3.1,9.6.1,169.8.1,339.6,0,509.4,0,2.7-1.8,5.4-3.3,9.4Z"/>
  <path class="st1" d="M186.3,691.3h-46.9c-1.6-5.7-3.7-11-4.3-16.5-.8-6.8-.3-13.8-.3-20.7,0-153,0-306,0-459,0-10.7-1.6-21.6,3.1-33.2,16.4-4.4,32.5-3.4,50.3-.3.8,8.8,2.1,16.4,2.2,24,2.9,206,1,481.5-4,505.7Z"/>
  <path class="st2" d="M54.4,163.1c14-5.1,24.6-4.4,36.6-1.8,1.2,5.3,2.9,10.8,3.4,16.5.6,6.9.2,13.8.2,20.7,0,201.6,0,403.2,0,604.8,0,10.7-.6,21.4-.9,32.2-12.9,6.7-24.1,3.7-35.3,3.3-6-12.2-3.9-23.3-3.9-33.8-.2-92.9,0-185.8,0-278.7,0-109.7,0-219.4,0-329.1,0-10.8,0-21.6,0-34.1Z"/>
  <path class="st2" d="M483.3,161.9c11.2-3.8,21.7-3.2,33.7-.6,1.2,5.5,2.8,11,3.4,16.6.6,5.9.2,11.8.2,17.8,0,201.5.1,403.1.1,604.6,0,11.7-.5,23.3-.8,35.5-13,5.5-24.2,4.9-36.3,1.5-4.7-10.9-2.9-21.9-2.9-32.5-.2-94.8-.1-189.7-.1-284.5,0-108.7,0-217.3,0-326,0-10.6-1.5-21.6,2.7-32.4Z"/>
  <path class="st2" d="M910.1,162.3c11.1-4.9,21.4-2.7,31.5-1.8,1.8,4.3,3.9,7,3.9,9.6.3,218.5.4,436.9.3,655.4,0,3.7-1.8,7.4-3,12-11,3.2-21.3,3.1-33.8,0-.7-9.1-1.9-17.6-1.9-26.2-.2-56.3,0-112.7,0-169,0-149.3,0-298.5.1-447.8,0-10.6-1.8-21.6,2.9-32.1Z"/>
  <path class="st1" d="M262,690.3h-21.6c-1.4-4-3.1-6.8-3.1-9.5-.1-169.9-.1-339.7,0-509.6,0-2.8,1.6-5.5,2.9-9.9h21.6c1.5,4.1,3.3,6.9,3.3,9.6.1,169.9.2,339.7,0,509.6,0,2.7-1.7,5.5-3.2,9.9Z"/>
  <path class="st1" d="M437.3,690.8h-19.6c-1.2-3.9-2.8-6.7-2.8-9.4-.2-170.1-.2-340.2-.1-510.3,0-2.8,1.6-5.5,2.8-9.8h20.7c1.2,5.6,3,11.1,3.5,16.8.6,6.9.2,13.8.2,20.8,0,153.3,0,306.6,0,459.9,0,10.6,2.9,21.9-4.7,32.1Z"/>
  <path class="st1" d="M666,160.9h19.4c7.5,8.8,5.1,18.1,5.1,26.7.2,52.3,0,104.6,0,156.9,0,104.6,0,209.2,0,313.8,0,9.8-.3,19.5-.5,30.9-7.9,1.1-14.2,1.9-21.7,3-1.6-5.7-3-10.2-4.1-14.7-.4-1.9-.2-3.9-.2-5.9,0-163.8,0-327.6,0-491.4,0-5.7,1.1-11.4,1.9-19.2Z"/>
  <path class="st1" d="M868.4,690.4h-22.6c-1.7-2.7-3.4-4.3-3.6-6-.7-8.8-1.5-17.7-1.5-26.5,0-155.1,0-310.2,0-465.4,0-9.7.8-19.4,1.2-29.9,5.3-1.3,9-3,12.6-2.8,9.7.4,13.1,3.5,13.8,11.5.4,4.9.2,9.9.2,14.8,0,159.1,0,318.2,0,477.2v27Z"/>
  <path class="st0" d="M549.3,816.9c10.6,0,19.4.4,28.2-.2,6.2-.4,11.1-6.4,10.6-12.2-.5-5.2-2.9-9.6-8.4-10.9-9.4-2.2-18.9-3.9-30-6.1,1.1-17.3,1.3-33.7,7.2-50.7,17.9-4.5,35.3-1.4,52.1-2.2,2.2,4.4,4.3,6.9,4.5,9.6.3,3.7-.8,7.5-1.5,12.2-12,1.4-23.1,2.6-34,3.9.1,9.5,6.4,8.2,10.5,9.7,3.7,1.4,7.7,2.1,11.1,4,19.7,10.7,24.4,33,10.9,50.2-6.4,8.1-14.6,14-24.7,15.1-9.7,1.1-19.7.8-29.4-.4-9.3-1.1-10.7-5.8-7.2-22.1Z"/>
  <path class="st0" d="M208.7,760.7c-2-5.1-3.8-9.4-6.1-15.1,15.7-13,32.5-14.9,50.2-9.1,16.8,5.5,24.6,23.3,18.5,41.2-2.2,6.4-6,12.4-9.6,18.2-3.1,4.9-7.1,9.2-12.2,15.7,8.5,2.6,15.5,4.7,22.5,6.9,4,17.4,2.4,20.8-12.2,21.1-18.6.4-37.2,1.5-54.7-1-6.1-11.3-2.1-18.7,4.8-25.3,8.5-8.2,17.4-16.1,25.4-24.8,3.9-4.2,6.9-9.6,9-14.9,3.2-8.3-2.8-16.2-11.9-15.7-7.7.4-15.3,1.9-23.7,3Z"/>
  <path class="st0" d="M348.4,783.5c1.9,2.8,4.3,5.7,6.1,9.1,10,18.5,4.9,34.8-13.9,43.6-14.1,6.6-28.7,6.1-43.2,1.5-3.4-1.1-7.9-4-8.6-6.9-1-4.2.9-9.2,1.8-15.3,7.9.8,14.5,2,21.1,2,4.7,0,9.7-1,14.2-2.7,5.4-1.9,6.3-12.1,1.2-14.7-5.1-2.6-10.8-4.2-16.4-5.9-5.6-1.7-8.5-5.5-7.5-10.8.6-3.3,3.7-6.1,5.9-9,.5-.6,1.8-.6,2.7-.9,6-2,16.1-1.4,13.2-11.2-2.5-8.3-11.4-4.6-17.9-4.4-2.9.1-6.5,1.1-8.6-.1-3-1.8-6.3-5.1-6.8-8.1-.5-3.1,1.3-8.6,3.8-9.9,15.7-8.3,32-9,48-.7,10.5,5.4,15,15.3,12.2,27.3-1.3,5.6-4.5,10.8-7.3,17Z"/>
  <path class="st0" d="M724.1,836.2c6.4-26.5,24.7-48.2,33-76.1-13.8-1.2-25.2-2.2-38.5-3.3-.3-6.6-.6-12.7-.9-19.7,24.1-4.4,46.3-2.8,67.5-1.7,7.5,8.2,5.8,16.1,2.5,23.1-10.8,23.1-21.9,46-33.6,68.7-7,13.6-7.5,13.4-30,8.9Z"/>
  <path class="st0" d="M169.6,737.5c.8,3.9,2.1,7.7,2.2,11.5.2,25.6.4,51.3,0,76.9-.2,10.8-7.3,15.8-17.8,13.3-5.2-1.2-9.1-4.2-9.4-9.8-.5-7.9-.5-15.7-.6-23.6-.2-12.7-.5-25.4-.7-38.8-6-1.3-10.9-1.4-14.8-3.4-5.2-2.7-6.8-12.5-2.7-15.3,12.9-8.7,25.9-18.2,43.8-10.8Z"/>
  <path class="st0" d="M875.2,796.2c-2.1-5.2-5.5-10-8.1-14.5,1.8-3.6,3.7-6.1,4.4-8.8,6.1-22.8-3.3-36.9-26.2-38.8-5.8-.5-11.9-.2-17.5,1.1-21.3,5-29.2,21.4-20.8,42.3,1.1,2.7,2.6,5.2,3.9,8-2.3,3.3-5.2,6.2-6.8,9.7-9.5,20.4-2.1,37.4,19.2,43.6,11.6,3.4,23.3,3.1,34.6-1.7,17.6-7.5,24.3-22.9,17.3-40.8ZM848.7,810.6c-.7,5.5-4.2,8.4-9.8,8.2-6.3-.2-11.3-5.6-9.5-11.6,1.1-3.7,5.2-6.6,7.1-8.7,8.7.9,13.1,5.9,12.3,12.1ZM835.2,769.1c-1.9-.6-3.7-6.1-3.4-9.1.5-4.7,7.1-6.9,11-3.8,2.4,2,3.6,5.6,6.8,10.9-6.7,1.2-11,3.1-14.4,2.1Z"/>
  <path class="st0" d="M707,796.2c-2.5-16.8-12.5-25.9-29.4-27.8-3.1-.4-8.5.9-7.5-7.3,4.8-1.5,10.3-2.9,15.5-4.8,10.3-3.6,10.6-4.6,6.7-21.7-20.6-2.1-38.4,4.1-51.8,20.2-14.2,17.2-16.7,37.7-9.9,58.4,2.6,7.8,9,15.3,15.6,20.6,12.1,9.7,31.4,9.1,44.3.5,13.7-9.2,18.9-22.2,16.5-38.2ZM668.4,817.8c-5.9,0-12.4-6.7-13-13.4-.6-6.6,5.1-14,11.3-14.8,5.8-.8,11.9,5.9,12.4,13.5.5,7.8-4.6,14.8-10.7,14.7Z"/>
  <path class="st0" d="M449.4,799.1c-12.3-9.5-9.6-22.5-10-34.9-.3-8.7-.9-17.4-1.4-26.9-21.2-6.5-33.9-1.4-42,16-4.6,9.7-11.6,18.3-17,27.7-3.4,5.9-6.5,12.2-8.8,18.6-2.8,7.5,1.3,14.7,8.7,15.5,10.6,1.1,21.3,1.6,32.5,2.4,2.3,7.4,4.2,13.7,6.6,21.6,6.8-.6,13.1-1.2,18.6-1.6,4.4-9.5,2-19.5,11.6-25.2,2.4-1.4,3.3-11.5,1.3-13ZM413.4,787.5c-1.1,2.5-5.5,3.6-8.5,5.1-.6.3-1.7-.6-5.9-2.2,3.6-5.3,6-9.3,8.9-12.9.5-.7,1.7-.8,2.9-.9.7,0,1.5-.1,2.1-.3.2,2.3.9,4.9,1,7.2,0,1.4,0,2.7-.5,3.9Z"/>
</svg>