<?xml version="1.0" encoding="UTF-8"?>
<svg id="Layer_1" xmlns="http://www.w3.org/2000/svg" version="1.1" viewBox="0 0 1000 1000">
  <!-- Generator: Adobe Illustrator 29.2.1, SVG Export Plug-In . SVG Version: 2.1.0 Build 116)  -->
  <defs>
    <style>
      .st0 {
        fill: #4999d5;
      }

      .st1 {
        fill: #242d3c;
      }

      .st2 {
        fill: #fdc800;
      }

      .st3 {
        fill: #ff8d39;
      }
    </style>
  </defs>
  <polygon class="st1" points="730.4 961 81.8 961 81.8 142.4 730.4 142.4 730.4 228.7 695.9 228.7 695.9 176.9 116.3 176.9 116.3 926.5 695.9 926.5 695.9 874.8 730.4 874.8 730.4 961"/>
  <path class="st1" d="M730.4,176.9H81.8V39h648.6v138ZM116.3,142.4h579.6v-69H116.3v69Z"/>
  <rect class="st1" x="168.1" y="90.7" width="34.5" height="34.5"/>
  <rect class="st1" x="237" y="90.7" width="34.5" height="34.5"/>
  <rect class="st1" x="306" y="90.7" width="34.5" height="34.5"/>
  <rect class="st3" x="168.1" y="228.7" width="136" height="136"/>
  <rect class="st3" x="168.1" y="398.7" width="136" height="136"/>
  <rect class="st3" x="168.1" y="568.7" width="136" height="136"/>
  <rect class="st3" x="168.1" y="738.8" width="136" height="136"/>
  <rect class="st3" x="338.1" y="228.7" width="136" height="136"/>
  <rect class="st3" x="338.1" y="398.7" width="136" height="136"/>
  <rect class="st3" x="338.1" y="568.7" width="136" height="136"/>
  <rect class="st3" x="338.1" y="738.8" width="136" height="136"/>
  <path class="st1" d="M508.1,228.7v136h136v-136h-136ZM609.7,330.2h-67v-67h67v67Z"/>
  <path class="st1" d="M508.1,398.7v136h136v-136h-136ZM609.7,500.2h-67v-67h67v67Z"/>
  <rect class="st0" x="508.1" y="568.7" width="136" height="136"/>
  <rect class="st0" x="508.1" y="738.8" width="136" height="136"/>
  <rect class="st2" x="782.1" y="228.7" width="136" height="136"/>
  <rect class="st2" x="782.1" y="398.7" width="136" height="136"/>
  <path class="st1" d="M782.1,568.7v136h136v-136h-136ZM883.7,670.3h-67v-67h67v67Z"/>
  <path class="st1" d="M782.1,738.8v136h136v-136h-136ZM883.7,840.3h-67v-67.1h67v67.1Z"/>
  <rect class="st1" x="671.8" y="279.4" width="82.8" height="34.5"/>
  <rect class="st1" x="671.8" y="449.5" width="82.8" height="34.5"/>
  <rect class="st1" x="671.8" y="619.5" width="82.8" height="34.5"/>
  <rect class="st1" x="671.8" y="789.5" width="82.8" height="34.5"/>
</svg>