<?xml version="1.0" encoding="UTF-8"?>
<svg id="Layer_1" xmlns="http://www.w3.org/2000/svg" version="1.1" viewBox="0 0 1000 1000">
  <!-- Generator: Adobe Illustrator 29.2.1, SVG Export Plug-In . SVG Version: 2.1.0 Build 116)  -->
  <defs>
    <style>
      .st0 {
        fill: #4999d5;
      }

      .st1 {
        fill: #242d3c;
      }

      .st2 {
        fill: #ff8d39;
      }
    </style>
  </defs>
  <rect class="st1" x="482.3" y="38.6" width="35.5" height="122.5"/>
  <rect class="st1" x="482.3" y="317.2" width="35.5" height="502.2"/>
  <path class="st1" d="M659.7,908.2h-319.4v-106.5h319.4v106.5ZM375.8,872.7h248.5v-35.5h-248.5v35.5Z"/>
  <path class="st1" d="M730.7,979.2h-461.4v-106.5h461.4v106.5ZM304.8,943.7h390.4v-35.5h-390.4v35.5Z"/>
  <path class="st1" d="M500,335c-52.8,0-95.8-43-95.8-95.8s43-95.8,95.8-95.8,95.8,43,95.8,95.8-43,95.8-95.8,95.8ZM500,178.8c-33.3,0-60.3,27.1-60.3,60.3s27.1,60.3,60.3,60.3,60.3-27.1,60.3-60.3-27.1-60.3-60.3-60.3Z"/>
  <path class="st0" d="M532,239.1c0,17.6-14.3,31.9-31.9,31.9s-31.9-14.3-31.9-31.9,14.3-31.9,31.9-31.9,31.9,14.3,31.9,31.9Z"/>
  <rect class="st1" x="673.1" y="170.8" width="35.5" height="239.1" transform="translate(231.6 882.5) rotate(-75)"/>
  <rect class="st1" x="291.4" y="68.4" width="35.5" height="239.1" transform="translate(47.6 437.9) rotate(-75)"/>
  <rect class="st1" x="220.3" y="150.9" width="35.5" height="331.5" transform="translate(-76.1 75.3) rotate(-15.5)"/>
  <rect class="st1" x="-16.5" y="299" width="331.5" height="35.5" transform="translate(-195.8 375.7) rotate(-74.5)"/>
  <path class="st2" d="M44.6,464c0,82.3,66.7,149.1,149.1,149.1s149.1-66.7,149.1-149.1H44.6Z"/>
  <rect class="st1" x="175.9" y="99.5" width="35.5" height="57.5"/>
  <rect class="st1" x="833" y="315.2" width="35.5" height="331.5" transform="translate(-97.7 245.2) rotate(-15.5)"/>
  <rect class="st1" x="596.2" y="463.2" width="331.5" height="35.5" transform="translate(94.5 1086.3) rotate(-74.5)"/>
  <path class="st2" d="M657.3,628.2c0,82.3,66.7,149.1,149.1,149.1s149.1-66.8,149.1-149.1h-298.1Z"/>
  <rect class="st1" x="788.6" y="263.7" width="35.5" height="57.5"/>
  <rect class="st1" x="429" y="20.8" width="142" height="35.5"/>
</svg>