<?xml version="1.0" encoding="UTF-8"?>
<svg id="Layer_1" xmlns="http://www.w3.org/2000/svg" version="1.1" viewBox="0 0 1000 1000">
  <!-- Generator: Adobe Illustrator 29.2.1, SVG Export Plug-In . SVG Version: 2.1.0 Build 116)  -->
  <defs>
    <style>
      .st0 {
        fill: #4999d5;
      }

      .st1 {
        fill: #242d3c;
      }

      .st2 {
        fill: #ff8d39;
      }
    </style>
  </defs>
  <path class="st1" d="M893.7,790.8H106.3v-473.2c0-10.9,4.3-21.2,12-28.9,7.6-7.7,17.9-12,28.9-12h705.6c10.9,0,21.2,4.2,28.9,12,7.8,7.8,12,18,12,28.9v473.2ZM137.7,759.5h724.7v-441.8c0-2.5-1-4.9-2.8-6.7-1.8-1.8-4.2-2.8-6.7-2.8H147.2c-2.5,0-4.9,1-6.6,2.8-1.9,1.9-2.9,4.2-2.9,6.8v441.8Z"/>
  <rect class="st2" x="182.6" y="353.1" width="634.7" height="422.1"/>
  <path class="st1" d="M921.2,858.1H78.8c-13.1,0-25.5-5.1-34.9-14.4-9.3-9.3-14.5-21.7-14.5-34.9v-49.3h941.1v49.3c0,13.2-5.1,25.6-14.4,34.9-9.4,9.3-21.7,14.4-34.9,14.4ZM60.8,790.8v18c0,4.8,1.9,9.3,5.2,12.7,3.4,3.4,7.9,5.3,12.7,5.3h842.4c4.8,0,9.3-1.9,12.7-5.3,3.4-3.4,5.2-7.9,5.2-12.7v-18H60.8Z"/>
  <polygon class="st0" points="500 292.5 296.1 157.6 296.1 427.3 703.9 427.3 703.9 157.6 500 292.5"/>
  <path class="st1" d="M719.6,443h-439.2V141.9h439.2v301.1ZM311.8,411.7h376.4v-238.4h-376.4v238.4Z"/>
  <polygon class="st1" points="500 311.3 287.4 170.6 304.7 144.5 500 273.6 695.3 144.5 712.6 170.6 500 311.3"/>
  <rect class="st1" x="626.9" y="313.3" width="31.4" height="147" transform="translate(-34.5 709.3) rotate(-56.5)"/>
  <rect class="st1" x="283.9" y="371.1" width="147" height="31.4" transform="translate(-154.1 261.3) rotate(-33.5)"/>
  <rect class="st1" x="349.4" y="516.5" width="31.4" height="112.9"/>
  <rect class="st1" x="619.2" y="516.5" width="31.4" height="112.9"/>
  <rect class="st1" x="484.3" y="573" width="31.4" height="112.9"/>
</svg>