<?xml version="1.0" encoding="UTF-8"?>
<svg id="Layer_1" xmlns="http://www.w3.org/2000/svg" version="1.1" viewBox="0 0 1000 1000">
  <!-- Generator: Adobe Illustrator 29.2.1, SVG Export Plug-In . SVG Version: 2.1.0 Build 116)  -->
  <defs>
    <style>
      .st0 {
        fill: #242d3c;
      }

      .st1 {
        fill: #fdc800;
      }

      .st2 {
        fill: #fff;
      }

      .st3 {
        fill: #ff8d39;
      }
    </style>
  </defs>
  <path class="st0" d="M346.6,927c-137.6,0-249.6-112-249.6-249.6s73.2-208.6,179.4-239.5v-159.4h140.3v159.4c106.2,30.9,179.4,127.7,179.4,239.5s-112,249.6-249.6,249.6ZM307,309v152.6l-11.7,2.8c-98.8,23.7-167.7,111.3-167.7,212.9s98.3,219.1,219.1,219.1,219.1-98.3,219.1-219.1-69-189.2-167.7-212.9l-11.7-2.8v-152.6h-79.3Z"/>
  <path class="st0" d="M195,635.1l-29.4-8.2c14.2-51.3,49.6-94.1,97.2-117.6l13.5,27.3c-39.8,19.7-69.4,55.5-81.3,98.5Z"/>
  <path class="st3" d="M159.4,677.4c0,103.3,84,187.3,187.3,187.3s187.3-84,187.3-187.3H159.4Z"/>
  <path class="st2" d="M346.6,832.9v-30.5c52.7,0,100-33.4,117.8-83l28.7,10.3c-22.1,61.8-80.9,103.3-146.5,103.3Z"/>
  <path class="st0" d="M415,309h-136.6c-23.6,0-42.8-19.2-42.8-42.8s19.2-42.7,42.8-42.7h136.6c23.5,0,42.7,19.2,42.7,42.7s-19.2,42.8-42.7,42.8ZM278.4,254.1c-6.8,0-12.3,5.5-12.3,12.2s5.5,12.3,12.3,12.3h136.6c6.7,0,12.2-5.5,12.2-12.3s-5.5-12.2-12.2-12.2h-136.6Z"/>
  <path class="st1" d="M716.9,600v203c0,12.9,4.9,25.7,14.6,35.5,9.8,9.8,22.6,14.7,35.5,14.7s25.7-4.9,35.5-14.7c9.8-9.8,14.6-22.6,14.6-35.5v-203h-100.3Z"/>
  <path class="st0" d="M767.1,868.4c-17.5,0-33.9-6.8-46.3-19.2-12.3-12.4-19.1-28.8-19.1-46.3v-308.6h30.5v308.6c0,9.3,3.6,18.1,10.2,24.7,6.6,6.6,15.4,10.2,24.7,10.2s18.1-3.6,24.7-10.2c6.5-6.6,10.2-15.3,10.2-24.7v-308.6h30.5v308.6c0,17.5-6.8,33.9-19.1,46.3-12.4,12.4-28.9,19.2-46.3,19.2Z"/>
  <rect class="st0" x="687.6" y="479.1" width="158.9" height="30.5"/>
  <rect class="st0" x="631.2" y="670.7" width="271.7" height="30.5"/>
  <rect class="st0" x="854.2" y="652.5" width="30.5" height="274.4"/>
  <rect class="st0" x="649.4" y="652.5" width="30.5" height="274.4"/>
  <path class="st0" d="M782.3,553.2h-30.5V130.3c0-7.2-2.8-13.9-7.9-19-5-5-11.8-7.8-18.9-7.8s-13.9,2.8-18.9,7.8c-5.1,5.1-7.9,11.8-7.9,19v25.6c0,15.3-6,29.7-16.8,40.5-10.9,10.8-25.2,16.8-40.5,16.8s-29.7-6-40.5-16.8c-10.8-10.8-16.8-25.2-16.8-40.5v-25.6c0-7.2-2.8-13.9-7.8-18.9-5.1-5.1-11.8-7.8-18.9-7.8s-13.9,2.8-19,7.8c-5.1,5.1-7.8,11.8-7.8,18.9v25.6c0,15.3-6,29.7-16.8,40.5-10.8,10.8-25.2,16.8-40.5,16.8s-29.7-6-40.5-16.8c-10.8-10.9-16.8-25.3-16.8-40.5v-25.6c0-7.2-2.8-13.9-7.8-18.9-5.1-5.1-11.8-7.8-19-7.8s-13.9,2.8-18.9,7.8c-5.1,5.1-7.9,11.8-7.9,18.9v422.9h-30.5V130.3c0-15.3,6-29.7,16.8-40.5,10.8-10.8,25.2-16.8,40.5-16.8s29.7,6,40.5,16.8c10.8,10.8,16.8,25.2,16.8,40.5v25.6c0,7.1,2.8,13.9,7.9,19,5,5,11.8,7.8,18.9,7.8s13.9-2.8,18.9-7.8c5.1-5.1,7.9-11.8,7.9-19v-25.6c0-15.3,6-29.7,16.8-40.5,10.8-10.8,25.2-16.8,40.5-16.8s29.7,6,40.5,16.8c10.8,10.8,16.8,25.2,16.8,40.5v25.6c0,7.2,2.8,13.9,7.8,19,5.1,5.1,11.8,7.8,18.9,7.8s13.9-2.8,19-7.9c5-5.1,7.8-11.8,7.8-18.9v-25.6c0-15.3,6-29.7,16.8-40.5,10.8-10.8,25.2-16.8,40.5-16.8s29.7,6,40.5,16.8c10.8,10.9,16.8,25.2,16.8,40.5v422.9Z"/>
</svg>