<?xml version="1.0" encoding="UTF-8"?>
<svg id="Layer_1" xmlns="http://www.w3.org/2000/svg" version="1.1" viewBox="0 0 1000 1000">
  <!-- Generator: Adobe Illustrator 29.2.1, SVG Export Plug-In . SVG Version: 2.1.0 Build 116)  -->
  <defs>
    <style>
      .st0 {
        fill: #242d3c;
      }

      .st1 {
        fill: #ff8d39;
      }
    </style>
  </defs>
  <path class="st0" d="M911.8,744.3H88.2V180.4h823.7v563.9ZM122.7,709.7h754.7V214.9H122.7v494.9Z"/>
  <path class="st0" d="M911.8,214.9H88.2V68.6h823.7v146.3ZM122.7,180.4h754.7v-77.3H122.7v77.3Z"/>
  <polygon class="st1" points="500 308.8 360.5 448.4 360.5 615.8 465.5 615.8 465.5 539 534.5 539 534.5 615.8 639.5 615.8 639.5 448.4 500 308.8"/>
  <polygon class="st0" points="653.7 487 500 333.2 346.3 487 321.8 462.6 500 284.4 678.1 462.6 653.7 487"/>
  <path class="st0" d="M500,931.4c-38.4,0-69.7-31.3-69.7-69.7s31.3-69.7,69.7-69.7,69.7,31.3,69.7,69.7-31.3,69.7-69.7,69.7ZM500,826.6c-19.4,0-35.1,15.8-35.1,35.2s15.8,35.1,35.1,35.1,35.2-15.8,35.2-35.1-15.8-35.2-35.2-35.2Z"/>
  <rect class="st0" x="552.4" y="844.5" width="340.7" height="34.5"/>
  <rect class="st0" x="106.9" y="844.5" width="340.7" height="34.5"/>
  <rect class="st0" x="482.7" y="727" width="34.5" height="82.4"/>
</svg>