<?xml version="1.0" encoding="UTF-8"?>
<svg id="Layer_1" xmlns="http://www.w3.org/2000/svg" version="1.1" viewBox="0 0 1000 1000">
  <!-- Generator: Adobe Illustrator 29.2.1, SVG Export Plug-In . SVG Version: 2.1.0 Build 116)  -->
  <defs>
    <style>
      .st0 {
        fill: #4999d5;
      }

      .st1 {
        fill: #242d3c;
      }

      .st2 {
        fill: #fff;
      }

      .st3 {
        fill: #ff8d39;
      }
    </style>
  </defs>
  <path class="st1" d="M897.3,843.2H102.7v-477.6c0-11.1,4.3-21.4,12.2-29.2,7.6-7.7,18-12,29.1-12h132v31.7h-132c-1.5,0-4.3.4-6.7,2.8-2.5,2.5-2.9,5.3-2.9,6.8v445.9h731.3v-445.9c0-1.5-.4-4.3-2.8-6.7-1.8-1.8-4.3-2.8-6.9-2.8h-132v-31.7h132c11,0,21.4,4.3,29.2,12.1,7.8,7.8,12,18.1,12,29.1v477.6Z"/>
  <rect class="st1" x="407.5" y="314.8" width="185" height="31.7"/>
  <rect class="st3" x="179.7" y="401.4" width="640.6" height="425.9"/>
  <path class="st1" d="M925.1,911.1H74.9c-13.2,0-25.7-5.2-35.2-14.5-9.4-9.4-14.6-21.9-14.6-35.3v-49.8h949.8v49.8c0,13.3-5.2,25.8-14.6,35.2-9.4,9.4-21.9,14.6-35.2,14.6ZM56.8,843.2v18.1c0,4.9,1.9,9.4,5.3,12.8,3.4,3.4,8,5.3,12.8,5.3h850.2c4.8,0,9.4-1.9,12.9-5.3,3.4-3.4,5.3-7.9,5.3-12.8v-18.1H56.8Z"/>
  <path class="st2" d="M642.5,614.4c0,78.7-63.9,142.5-142.5,142.5s-142.5-63.8-142.5-142.5,63.8-142.5,142.5-142.5,142.5,63.8,142.5,142.5Z"/>
  <path class="st1" d="M500,693.6c-43.6,0-79.2-35.5-79.2-79.1s35.5-79.2,79.2-79.2,79.1,35.5,79.1,79.2-35.5,79.1-79.1,79.1ZM500,566.9c-26.2,0-47.5,21.3-47.5,47.5s21.3,47.5,47.5,47.5,47.5-21.3,47.5-47.5-21.3-47.5-47.5-47.5Z"/>
  <path class="st0" d="M247.9,247.2c-43.6,0-79.1-35.5-79.1-79.2s35.5-79.1,79.1-79.1,79.1,35.5,79.1,79.1-35.5,79.2-79.1,79.2ZM247.9,120.5c-26.2,0-47.5,21.3-47.5,47.5s21.3,47.5,47.5,47.5,47.5-21.3,47.5-47.5-21.3-47.5-47.5-47.5Z"/>
  <path class="st0" d="M752.1,247.2c-43.6,0-79.1-35.5-79.1-79.2s35.5-79.1,79.1-79.1,79.2,35.5,79.2,79.1-35.5,79.2-79.2,79.2ZM752.1,120.5c-26.2,0-47.5,21.3-47.5,47.5s21.3,47.5,47.5,47.5,47.5-21.3,47.5-47.5-21.3-47.5-47.5-47.5Z"/>
  <path class="st1" d="M768,168c0,8.7-7.1,15.8-15.8,15.8s-15.8-7.1-15.8-15.8,7.1-15.8,15.8-15.8,15.8,7.1,15.8,15.8Z"/>
  <path class="st1" d="M600.5,472.1l-27.4-15.8,15.7-27.3,27.4,15.8-15.7,27.3ZM631.9,417.6l-27.4-15.8,15.7-27.2,27.4,15.8-15.7,27.2ZM663.4,363.1l-27.4-15.8,15.7-27.2,27.4,15.8-15.7,27.2ZM694.8,308.6l-27.4-15.8,15.7-27.2,27.4,15.8-15.7,27.2Z"/>
  <path class="st1" d="M399.5,472.1l-15.7-27.3,27.4-15.8,15.7,27.3-27.4,15.8ZM368.1,417.6l-15.7-27.2,27.4-15.8,15.7,27.3-27.4,15.8ZM336.6,363.1l-15.7-27.2,27.4-15.8,15.7,27.2-27.4,15.8ZM305.2,308.7l-15.7-27.2,27.4-15.8,15.7,27.2-27.4,15.8Z"/>
  <path class="st1" d="M263.7,168c0,8.7-7.1,15.8-15.8,15.8s-15.8-7.1-15.8-15.8,7.1-15.8,15.8-15.8,15.8,7.1,15.8,15.8Z"/>
  <path class="st1" d="M515.8,614.4c0,8.7-7.1,15.8-15.8,15.8s-15.8-7.1-15.8-15.8,7.1-15.8,15.8-15.8,15.8,7.1,15.8,15.8Z"/>
</svg>