<?xml version="1.0" encoding="UTF-8"?>
<svg id="Layer_1" xmlns="http://www.w3.org/2000/svg" version="1.1" viewBox="0 0 1000 1000">
  <!-- Generator: Adobe Illustrator 29.2.1, SVG Export Plug-In . SVG Version: 2.1.0 Build 116)  -->
  <defs>
    <style>
      .st0 {
        fill: #242d3c;
      }

      .st1 {
        fill: #fdc800;
      }

      .st2 {
        fill: #ff8d39;
      }
    </style>
  </defs>
  <path class="st2" d="M100.6,489.5c27.7,0,50.5-22.6,50.5-50V136.6c0-4.8,4.9-9.7,9.8-9.7h172.8V46.3H50v393.2c0,27.4,22.8,50,50.5,50Z"/>
  <path class="st1" d="M855.4,610.4h-172.8v323.9s0,1.6-1.6,1.6c0,0,0,1.6-1.6,1.6,0,0,0,1.6-1.6,1.6,0,0,0,1.6-1.6,1.6,0,0,0,1.6-1.6,1.6,0,0,0,1.6-1.6,1.6,0,0,0,1.6-1.6,1.6,0,0,0,1.6-1.6,1.6,0,0,0,1.6-1.6,1.6,0,0,0,1.6-1.6,1.6s0,1.6-1.6,1.6c0,0,0,1.6-1.6,1.6h211.9c40.8,0,75-32.2,75-74.1v-269.1h-94.6ZM752.7,691h81.5c4.9,0,9.8,4.8,9.8,9.7s-4.9,9.7-9.8,9.7h-81.5c-4.9,0-9.8-4.8-9.8-9.7s4.9-9.7,9.8-9.7ZM875,831.2h-122.3c-4.9,0-9.8-4.8-9.8-9.7s4.9-9.7,9.8-9.7h122.3c4.9,0,9.8,4.8,9.8,9.7,1.6,4.8-3.3,9.7-9.8,9.7ZM875,771.6h-122.3c-4.9,0-9.8-4.8-9.8-9.7s4.9-9.7,9.8-9.7h122.3c4.9,0,9.8,4.8,9.8,9.7,1.6,4.8-3.3,9.7-9.8,9.7Z"/>
  <path class="st1" d="M172.3,439.6v30.6s0,1.6-1.6,1.6c0,0,0,1.6-1.6,1.6,0,0,0,1.6-1.6,1.6,0,0,0,1.6-1.6,1.6,0,0,0,1.6-1.6,1.6,0,0,0,1.6-1.6,1.6,0,0,0,1.6-1.6,1.6,0,0,0,1.6-1.6,1.6,0,0,0,1.6-1.6,1.6,0,0,0,1.6-1.6,1.6,0,0,0,1.6-1.6,1.6l-1.6,1.6-1.6,1.6h212c40.7,0,75-32.2,75-74.1V146.3H172.3v293.3ZM244,226.8h81.5c4.9,0,9.8,4.8,9.8,9.7s-4.9,9.7-9.8,9.7h-81.5c-4.9,0-9.8-4.8-9.8-9.7s3.3-9.7,9.8-9.7ZM244,288.1h122.3c4.9,0,9.8,4.8,9.8,9.7s-4.9,9.7-9.8,9.7h-122.3c-4.9,0-9.8-4.8-9.8-9.7s3.3-9.7,9.8-9.7ZM244,347.7h122.3c4.9,0,9.8,4.8,9.8,9.7s-4.9,9.7-9.8,9.7h-122.3c-4.9,0-9.8-4.8-9.8-9.7s3.3-9.7,9.8-9.7Z"/>
  <path class="st2" d="M661.4,600.7c0-4.8,4.9-9.7,9.8-9.7h172.8v-80.6h-283.7v393.2c0,27.4,22.8,50,50.5,50s50.5-22.6,50.5-50v-303Z"/>
  <path class="st0" d="M762.5,310.6c-3.3-3.2-9.8-3.2-14.7,0-3.3,3.2-3.3,9.7,0,14.5l40.8,40.3,1.6,1.6h13s1.6,0,1.6-1.6l40.7-40.3c3.3-3.2,3.3-9.7,0-14.5-3.3-3.2-9.8-3.2-14.7,0l-22.8,22.6v-116c0-4.8-4.9-9.7-9.8-9.7h-205.4c-4.9,0-9.8,4.8-9.8,9.7s4.9,9.7,9.8,9.7h194v106.4l-24.5-22.6Z"/>
  <path class="st0" d="M907.6,136.6c0-4.8-4.9-9.7-9.8-9.7h-386.4c-4.9,0-9.8,4.8-9.8,9.7s4.9,9.7,9.8,9.7h386.4c4.9,0,9.8-4.8,9.8-9.7Z"/>
  <path class="st0" d="M164.2,790.9h203.8c4.9,0,9.8-4.8,9.8-9.7s-4.9-9.7-9.8-9.7h-194v-106.4l22.8,22.6c1.6,1.6,4.9,3.2,6.5,3.2s4.9-1.6,6.5-3.2c3.3-3.2,3.3-9.7,0-14.5l-40.7-40.3-1.6-1.6h-13s-1.6,0-1.6,1.6l-40.8,40.3c-3.3,3.2-3.3,9.7,0,14.5,3.3,3.2,9.8,3.2,14.7,0l22.8-22.6v116c4.9,4.8,9.8,9.7,14.7,9.7Z"/>
  <path class="st0" d="M449.5,852.1H63.1c-4.9,0-9.8,4.8-9.8,9.7s4.9,9.7,9.8,9.7h388c4.9,0,9.8-4.8,9.8-9.7-1.6-4.8-6.5-9.7-11.4-9.7Z"/>
  <path class="st0" d="M571.7,359v-20.9h21.2c4.9,0,9.8-4.8,9.8-9.7s-4.9-9.7-9.8-9.7h-21.2v-20.9c0-4.8-4.9-9.7-9.8-9.7s-9.8,4.8-9.8,9.7v20.9h-21.2c-4.9,0-9.8,4.8-9.8,9.7s4.9,9.7,9.8,9.7h21.2v20.9c0,4.8,4.9,9.7,9.8,9.7s9.8-4.8,9.8-9.7Z"/>
  <path class="st0" d="M389.1,700.6v-20.9h19.6c4.9,0,9.8-4.8,9.8-9.7s-4.9-9.7-9.8-9.7h-21.2v-20.9c0-4.8-4.9-9.7-9.8-9.7s-9.8,4.8-9.8,9.7v20.9h-21.2c-4.9,0-9.8,4.8-9.8,9.7s4.9,9.7,9.8,9.7h21.2v20.9c0,4.8,4.9,9.7,9.8,9.7s11.4-4.8,11.4-9.7Z"/>
</svg>