<?xml version="1.0" encoding="UTF-8"?>
<svg id="Layer_1" xmlns="http://www.w3.org/2000/svg" version="1.1" viewBox="0 0 1000 1000">
  <!-- Generator: Adobe Illustrator 29.2.1, SVG Export Plug-In . SVG Version: 2.1.0 Build 116)  -->
  <defs>
    <style>
      .st0 {
        fill: #4999d5;
      }

      .st1 {
        fill: #242d3c;
      }

      .st2 {
        fill: #fdc800;
      }

      .st3 {
        fill: #fff;
      }
    </style>
  </defs>
  <path class="st1" d="M166.6,952.2v-125.1h-81V47.8h680.4v779.3h-474.3l-125.1,125.1ZM119.4,793.3h81v77.4l77.4-77.4h454.5V81.5H119.4v711.8Z"/>
  <rect class="st1" x="499.9" y="125.4" width="188.5" height="33.8"/>
  <rect class="st1" x="499.9" y="191" width="188.5" height="33.8"/>
  <rect class="st1" x="499.9" y="256.6" width="188.5" height="33.8"/>
  <rect class="st1" x="499.9" y="322.2" width="188.5" height="33.8"/>
  <rect class="st1" x="499.9" y="387.8" width="188.5" height="33.8"/>
  <rect class="st1" x="163.3" y="453.3" width="525.1" height="33.8"/>
  <rect class="st1" x="163.3" y="518.9" width="525.1" height="33.8"/>
  <rect class="st1" x="163.3" y="584.5" width="525.1" height="33.8"/>
  <rect class="st1" x="163.3" y="650.1" width="525.1" height="33.8"/>
  <rect class="st1" x="163.3" y="715.7" width="525.1" height="33.8"/>
  <rect class="st2" x="163.3" y="125.4" width="296.1" height="296.1"/>
  <path class="st3" d="M379.9,368h-33.8v-133.3c0-5.9-2.3-11.4-6.4-15.5-4.1-4.1-9.6-6.4-15.5-6.4h-25.9c-5.9,0-11.4,2.3-15.5,6.4-4.1,4.1-6.4,9.6-6.4,15.5v133.3h-33.8v-133.3c0-14.9,5.8-28.9,16.3-39.4,10.5-10.5,24.5-16.3,39.4-16.3h25.9c14.9,0,28.9,5.8,39.4,16.3,10.5,10.5,16.3,24.5,16.3,39.4v133.3Z"/>
  <rect class="st3" x="242.7" y="256.6" width="137.3" height="33.8"/>
  <polygon class="st0" points="860.4 142.3 823.3 179.4 823.3 736 897.5 736 897.5 179.4 860.4 142.3"/>
  <path class="st1" d="M914.4,752.9h-107.9V172.4l54-54,54,54v580.5ZM840.2,719.1h40.4V186.4l-20.2-20.2-20.2,20.2v532.8Z"/>
  <path class="st1" d="M860.4,827.1c-14.4,0-28-5.6-38.2-15.8-10.2-10.2-15.8-23.8-15.8-38.2v-54h107.9v54c0,14.4-5.6,28-15.8,38.2-10.2,10.2-23.7,15.8-38.2,15.8ZM840.2,752.9v20.2c0,5.4,2.1,10.5,5.9,14.3,7.6,7.6,20.9,7.6,28.6,0,3.8-3.8,5.9-8.9,5.9-14.3v-20.2h-40.4Z"/>
</svg>