<?xml version="1.0" encoding="UTF-8"?>
<svg id="Layer_1" xmlns="http://www.w3.org/2000/svg" version="1.1" viewBox="0 0 1000 1000">
  <!-- Generator: Adobe Illustrator 29.2.1, SVG Export Plug-In . SVG Version: 2.1.0 Build 116)  -->
  <defs>
    <style>
      .st0 {
        fill: #242d3c;
      }

      .st1 {
        fill: #fdc800;
      }

      .st2 {
        fill: #0054a1;
      }

      .st3 {
        fill: #ff8d39;
      }
    </style>
  </defs>
  <polygon class="st3" points="567 675.6 688.9 675.6 556.4 267.5 457.8 339 567 675.6"/>
  <path class="st0" d="M354.8,800c-18.5,0-36.8-4.4-53.7-13-28.2-14.4-49.1-38.9-58.8-69-4.6-14.2-6.4-28.7-5.6-43.2l30.1,1.8c-.7,10.8.7,21.6,4.1,32.1,7.3,22.4,22.9,40.7,43.9,51.4,21,10.7,44.9,12.6,67.4,5.3,38.2-12.4,63.2-49,60.9-88.9l30.1-1.7c3.1,53.6-30.5,102.7-81.7,119.4-12,3.9-24.4,5.9-36.7,5.9Z"/>
  <path class="st0" d="M709.6,690.7H136.5s-36.1-111.2-36.1-111.2l463.9-336.4,145.2,447.6ZM158.5,660.5h509.7s-119.6-368.7-119.6-368.7l-412.6,299.2,22.5,69.5Z"/>
  <rect class="st0" x="223.2" y="498" width="183.5" height="30.2" transform="translate(-241.1 282.4) rotate(-35.9)"/>
  <path class="st0" d="M109.3,743.2h0c-8.7,0-17.2-2-25-6-13.1-6.7-22.8-18.1-27.4-32l-29.3-90.5c-4.5-14.2-3.3-29.1,3.4-42.1,6.6-13,18-22.7,31.9-27.3,14.5-4.6,29.3-3.3,42.3,3.4,13,6.6,22.8,18,27.3,32.1l29.3,90.3c4.5,14.1,3.3,29.1-3.3,42.1-6.7,13.1-18.1,22.9-32.1,27.4-5.6,1.8-11.4,2.7-17.1,2.7ZM80.1,572.7c-2.6,0-5.3.4-7.9,1.2-6.2,2.1-11.4,6.5-14.4,12.4-3,5.9-3.6,12.7-1.5,19.2l29.3,90.3c2.1,6.3,6.5,11.5,12.4,14.5,3.5,1.8,7.3,2.7,11.3,2.7h0c2.6,0,5.3-.4,7.9-1.2,6.2-2,11.4-6.4,14.4-12.4,3-5.9,3.5-12.7,1.5-19.2l-29.3-90.2c-2.1-6.4-6.5-11.5-12.4-14.5-3.6-1.8-7.4-2.8-11.3-2.8Z"/>
  <path class="st0" d="M726.9,718.5h0c-8.7,0-17.4-2.1-25.1-6.1-13.1-6.6-22.8-18-27.4-32.1l-132.4-408.1c-4.6-14.1-3.3-29.1,3.4-42.1,6.6-13,18-22.8,32-27.3,13.7-4.5,28.9-3.4,42,3.3,13.3,6.9,23,18.3,27.4,32.2l132.3,408.1c4.6,13.9,3.4,28.9-3.3,42.1-6.7,13.1-18.1,22.7-32,27.4-5.6,1.8-11.3,2.7-17.1,2.7ZM594.6,230.2c-2.6,0-5.2.4-7.7,1.2-6.4,2.1-11.5,6.4-14.5,12.4-3.1,6-3.6,12.7-1.6,19.1l132.4,408.1c2.1,6.4,6.4,11.5,12.4,14.5,6,3.1,12.8,3.6,19.1,1.6,6.3-2.1,11.5-6.5,14.5-12.4,3-5.9,3.5-12.7,1.5-19l-132.4-408.2c-2-6.3-6.4-11.5-12.5-14.6-3.5-1.8-7.3-2.7-11.2-2.7Z"/>
  <rect class="st0" x="766" y="386.6" width="144.5" height="30.2" transform="translate(-83 278.3) rotate(-18)"/>
  <rect class="st0" x="824" y="424.5" width="30.2" height="144.4" transform="translate(118.2 1153.3) rotate(-73)"/>
  <rect class="st0" x="710.8" y="309.2" width="144.5" height="30.2" transform="translate(52.6 754.1) rotate(-53)"/>
  <path class="st2" d="M831.4,333.9c1.5,4.5-1,9.4-5.5,10.8-4.5,1.5-9.3-1.1-10.8-5.5-1.5-4.5,1-9.3,5.5-10.9,4.5-1.4,9.3,1,10.8,5.5Z"/>
  <path class="st3" d="M895.2,281.8c3.4,10.5-2.4,21.8-12.9,25.3-10.5,3.4-21.8-2.4-25.2-12.9-3.4-10.5,2.4-21.8,12.9-25.2,10.5-3.4,21.8,2.3,25.2,12.8Z"/>
  <path class="st2" d="M755,212.6c2.1,6.6-1.5,13.6-8,15.7-6.5,2.1-13.5-1.5-15.6-8-2.1-6.5,1.4-13.5,7.9-15.6,6.5-2.1,13.5,1.4,15.6,7.9Z"/>
  <path class="st2" d="M966,533.8c1.5,4.5-1,9.3-5.5,10.8-4.5,1.5-9.3-1-10.8-5.5-1.5-4.5,1-9.3,5.5-10.8,4.5-1.5,9.3,1,10.8,5.5Z"/>
  <path class="st1" d="M973.8,424.9c4.3,13.5-3,28-16.6,32.4-13.5,4.4-28-3-32.4-16.6-4.4-13.5,3-28,16.5-32.4,13.6-4.4,28.1,3,32.5,16.6Z"/>
  <path class="st2" d="M854.8,566c3.9,12.1-2.7,25-14.7,28.9-12,3.9-24.9-2.7-28.9-14.7-3.9-12,2.7-24.9,14.8-28.9,12-3.9,24.9,2.7,28.8,14.7Z"/>
</svg>