<?xml version="1.0" encoding="UTF-8"?>
<svg id="Layer_1" xmlns="http://www.w3.org/2000/svg" version="1.1" viewBox="0 0 1000 1000">
  <!-- Generator: Adobe Illustrator 29.2.1, SVG Export Plug-In . SVG Version: 2.1.0 Build 116)  -->
  <defs>
    <style>
      .st0 {
        fill: none;
      }

      .st1 {
        fill: #242d3c;
      }

      .st2 {
        fill: #fdc800;
      }

      .st3 {
        fill: #ff8d39;
      }
    </style>
  </defs>
  <path class="st0" d="M318.1,313.3c-61.6,5.3-107.2,59.7-101.9,121.3,5.4,61.6,59.7,107.2,121.3,101.8,61.6-5.3,107.2-59.7,101.8-121.3-5.3-61.6-59.7-107.2-121.3-101.8Z"/>
  <path class="st0" d="M696.9,572.6c-34.8,21.5-46.8,68.4-26.7,104,21.4,37.9,69.7,50.7,107,28.6,36.8-21.8,49-69.4,27.3-106.2-22.1-37.2-70.5-49.3-107.5-26.4Z"/>
  <path class="st2" d="M585.1,511.9c6.9-20.4,11.4-41.8,13.3-63.8l-44-21.3c0-7.1-.2-14.3-.8-21.5-.2-2.5-.5-4.9-.8-7.4l41.4-26.2c-4.3-21.7-11.2-42.5-20.3-61.9l-48.9,3.5c-4.8-8.5-10.1-16.6-15.9-24.3l22.8-43.3c-14.4-16.4-30.7-30.9-48.6-43.5l-40.6,27.5c-8.3-4.9-16.9-9.3-25.9-13.1l-1.9-48.9c-20.4-6.9-41.8-11.4-63.8-13.3l-21.3,44.1c-7.1,0-14.3.2-21.5.8-2.5.2-5,.5-7.4.8l-26.1-41.5c-21.8,4.3-42.5,11.2-62,20.3l3.6,48.9c-8.5,4.8-16.6,10.1-24.3,15.9l-43.3-22.8c-16.4,14.4-31,30.7-43.4,48.6l27.5,40.5c-4.9,8.3-9.4,16.9-13.2,25.9l-48.9,1.9c-6.9,20.4-11.4,41.8-13.3,63.8l44,21.3c0,7.1.2,14.3.8,21.5.2,2.5.5,4.9.9,7.4l-41.5,26.2c4.4,21.7,11.2,42.5,20.3,61.9l48.9-3.5c4.8,8.5,10.1,16.6,15.9,24.3l-22.8,43.3c14.4,16.4,30.7,31,48.6,43.5l40.5-27.5c8.3,4.9,17,9.4,25.9,13.2l1.9,48.9c20.4,6.9,41.7,11.4,63.8,13.3l21.4-44c7.1,0,14.3-.2,21.5-.8,2.5-.2,4.9-.5,7.4-.9l26.2,41.5c21.8-4.4,42.5-11.2,62-20.3l-3.5-48.9c8.4-4.8,16.6-10.1,24.3-15.9l43.3,22.8c16.4-14.4,30.9-30.7,43.4-48.6l-27.5-40.5c4.9-8.3,9.3-17,13.2-25.9l48.9-1.9ZM327.9,584.5c-88,0-159.7-71.6-159.7-159.6s71.6-159.6,159.7-159.6,159.6,71.6,159.6,159.6-71.6,159.6-159.6,159.6Z"/>
  <path class="st3" d="M179.6,424.8c0,81.7,66.5,148.2,148.2,148.2s148.2-66.5,148.2-148.2-66.5-148.2-148.2-148.2-148.2,66.5-148.2,148.2ZM439.4,415.1c5.4,61.6-40.2,116-101.8,121.3-61.6,5.4-115.9-40.2-121.3-101.8-5.3-61.6,40.3-115.9,101.9-121.3,61.6-5.4,116,40.2,121.3,101.8Z"/>
  <path class="st3" d="M610.5,637.9c-1.5,70,54.3,128.2,124.4,129.7,70,1.5,128.2-54.3,129.7-124.4,1.5-70-54.3-128.2-124.4-129.7-70-1.5-128.2,54.3-129.7,124.4ZM804.4,599c21.8,36.8,9.6,84.4-27.3,106.2-37.3,22.1-85.6,9.3-107-28.6-20.1-35.6-8-82.5,26.7-104,37-22.9,85.5-10.8,107.5,26.4Z"/>
  <path class="st2" d="M941.7,660.7c1.4-14.8,1.3-29.7-.5-44.6l-34.6-8.3c-1.8-9.1-4.4-18.1-7.6-27l25.3-25c-3-6.7-6.5-13.4-10.3-19.8-3.8-6.4-7.9-12.6-12.4-18.5l-34.1,10.2c-6.2-7.2-12.9-13.7-20-19.6l9.4-34.3c-12.2-8.7-25.2-16-38.8-21.9l-24.5,25.9c-8.8-3.1-17.9-5.4-27.1-7l-9.1-34.5c-14.7-1.4-29.7-1.3-44.5.6l-8.3,34.6c-9.1,1.8-18,4.3-26.9,7.6l-25-25.3c-6.7,3-13.4,6.4-19.8,10.3-6.5,3.8-12.6,8-18.5,12.4l10.2,34.2c-7.1,6.2-13.7,12.9-19.6,20l-34.3-9.4c-8.7,12.2-16,25.2-21.9,38.8l25.9,24.5c-3.1,8.8-5.3,17.9-6.9,27.1l-34.5,9c-1.5,14.7-1.3,29.7.5,44.5l34.6,8.2c1.8,9.1,4.3,18.1,7.5,27l-25.3,25c3,6.7,6.4,13.3,10.3,19.8,3.8,6.5,8,12.7,12.4,18.6l34.1-10.2c6.2,7.1,12.9,13.7,20,19.6l-9.4,34.3c12.2,8.7,25.2,16,38.7,21.8l24.5-25.9c8.8,3.1,17.8,5.4,27.1,6.9l9,34.5c14.7,1.4,29.7,1.3,44.5-.5l8.2-34.6c9.1-1.8,18.1-4.3,26.9-7.6l25.1,25.3c6.7-3,13.3-6.4,19.7-10.3,6.5-3.8,12.6-8,18.5-12.4l-10.2-34.1c7.1-6.2,13.7-12.9,19.6-20l34.3,9.4c8.7-12.2,16.1-25.2,21.8-38.8l-25.9-24.5c3-8.8,5.4-17.8,7-27l34.5-9ZM734.7,773.1c-73.1-1.5-131.3-62.2-129.7-135.3,1.5-73.1,62.2-131.3,135.3-129.7,73.1,1.5,131.3,62.2,129.8,135.3-1.5,73.1-62.2,131.3-135.3,129.7Z"/>
  <path class="st1" d="M168.2,424.8c0,88,71.6,159.6,159.7,159.6s159.6-71.6,159.6-159.6-71.6-159.6-159.6-159.6-159.7,71.6-159.7,159.6ZM476.1,424.8c0,81.7-66.5,148.2-148.2,148.2s-148.2-66.5-148.2-148.2,66.5-148.2,148.2-148.2,148.2,66.5,148.2,148.2Z"/>
  <path class="st1" d="M605,637.8c-1.5,73.1,56.7,133.8,129.7,135.3,73.1,1.5,133.8-56.7,135.3-129.7,1.5-73.1-56.7-133.8-129.8-135.3-73.1-1.5-133.8,56.7-135.3,129.7ZM864.5,643.2c-1.5,70-59.6,125.8-129.7,124.4-70-1.5-125.8-59.6-124.4-129.7,1.5-70,59.6-125.8,129.7-124.4,70.1,1.5,125.9,59.7,124.4,129.7Z"/>
</svg>