<?xml version="1.0" encoding="UTF-8"?>
<svg id="Layer_1" xmlns="http://www.w3.org/2000/svg" version="1.1" viewBox="0 0 1000 1000">
  <!-- Generator: Adobe Illustrator 29.2.1, SVG Export Plug-In . SVG Version: 2.1.0 Build 116)  -->
  <defs>
    <style>
      .st0 {
        fill: #4999d5;
      }

      .st1 {
        fill: #242d3c;
      }

      .st2 {
        fill: #fdc800;
      }

      .st3 {
        fill: #ff8d39;
      }
    </style>
  </defs>
  <path class="st3" d="M272.9,408.2c-4.4,11.1-7.9,22.6-10.6,34.3h126.1c21.3-44.2,66.6-74.6,118.9-74.6s97.6,30.5,118.9,74.6h126c-2.8-11.8-6.3-23.3-10.6-34.4l.3.6,54-47.7-24.1-41.6-68.1,22.9.7,1.2c-11.9-15-25.4-28.5-40.4-40.5l.7.4,23.1-68.2-41.9-24.1-47.5,54,.5.3c-17-6.6-34.8-11.6-53.4-14.4l-14.2-70.6h-48.2l-14.2,70.6c-18.5,2.8-36.3,7.8-53.3,14.4l.5-.3-47.5-54-41.9,24.1,23.1,68.2.7-.4c-14.9,11.9-28.4,25.5-40.3,40.5l.7-1.2-68.1-22.9-24.1,41.6,53.9,47.7.3-.6Z"/>
  <path class="st2" d="M741.5,592c4.3-11.1,7.9-22.7,10.7-34.6h-126.1c-21.4,44.1-66.6,74.5-118.9,74.5s-97.5-30.4-118.9-74.5h-126.1c2.8,11.9,6.3,23.4,10.7,34.6l-.4-.8-53.9,47.6,24.1,41.8,68.1-23-.7-1.2c11.9,15.1,25.6,28.7,40.6,40.7l-1-.5-23.1,68.2,41.9,24.1,47.5-54.1h-.2c16.9,6.5,34.7,11.4,53.3,14.2h-.2l14.2,70.7h48.2l14.2-70.7h-.2c18.5-2.8,36.3-7.7,53.3-14.3h-.2c0,.1,47.5,54.2,47.5,54.2l41.9-24.1-23.1-68.2-1,.5c15-12,28.7-25.6,40.6-40.7l-.7,1.2,68.1,23,24.1-41.8-54-47.6-.4.8Z"/>
  <path class="st1" d="M613.1,448.9c-19.5-40.3-61-66.4-105.8-66.4s-86.3,26.1-105.8,66.4l-26.1-12.6c24.3-50.3,76.1-82.8,131.9-82.8s107.6,32.5,132,82.8l-26.1,12.6Z"/>
  <path class="st1" d="M507.3,646.4c-55.8,0-107.6-32.5-131.9-82.7l26.1-12.7c19.5,40.3,61,66.3,105.8,66.3s86.3-26,105.8-66.3l26.1,12.7c-24.3,50.3-76.1,82.7-131.9,82.7Z"/>
  <polygon class="st1" points="163.9 570 42.7 500 163.9 430 178.4 455.2 100.7 500 178.4 544.8 163.9 570"/>
  <rect class="st0" x="228.5" y="485.5" width="599.5" height="29"/>
  <path class="st1" d="M828,571.9H171.1c-5.9,0-11.2-3.6-13.4-9-2.2-5.4-1-11.7,3.1-15.8l47.1-47.1-47.1-47.1c-4.2-4.2-5.4-10.4-3.1-15.8,2.2-5.4,7.5-9,13.4-9h656.9c3.8,0,7.5,1.5,10.3,4.3,2.7,2.7,4.3,6.4,4.3,10.3v114.8c0,8-6.5,14.5-14.5,14.5ZM206.2,542.9h607.3s0-85.7,0-85.7H206.2s32.6,32.6,32.6,32.6c5.7,5.7,5.7,14.9,0,20.5l-32.6,32.6Z"/>
  <path class="st1" d="M828,571.9c-3.8,0-7.5-1.5-10.3-4.3-2.7-2.7-4.3-6.4-4.3-10.3v-114.8c0-3.8,1.5-7.5,4.3-10.3,2.7-2.7,6.4-4.3,10.3-4.3h57.4c8,0,14.5,6.5,14.5,14.5v114.8c0,8-6.5,14.5-14.5,14.5h-57.4ZM842.6,457.1v85.8s28.3,0,28.3,0v-85.7h-28.3Z"/>
  <path class="st1" d="M885.5,571.9h-.1v-29h.1c11.4,0,22.1-4.4,30.2-12.5,8.1-8.1,12.6-18.9,12.6-30.3,0-11.5-4.5-22.2-12.6-30.3-8.1-8.1-18.9-12.6-30.3-12.6h0v-29h0c19.2,0,37.2,7.5,50.8,21,13.6,13.6,21.1,31.7,21.1,50.9,0,19.2-7.5,37.2-21.1,50.8-13.6,13.6-31.6,21-50.8,21Z"/>
</svg>