<?xml version="1.0" encoding="UTF-8"?>
<svg id="Layer_1" data-name="Layer 1" xmlns="http://www.w3.org/2000/svg" viewBox="0 0 579.76 580.12">
  <defs>
    <style>
      .cls-1 {
        fill: #fff;
        stroke-width: 0px;
      }
    </style>
  </defs>
  <path class="cls-1" d="m324.79,0c13.08,3.4,26.31,6.32,39.23,10.27,42.07,12.86,79.53,34.17,112.52,63.2,35.05,30.85,62.21,67.58,80.95,110.42,9.78,22.36,16.6,45.63,21.13,69.59.24,1.28.76,2.5,1.15,3.75v3.4c-.14.13-.35.23-.41.39-3.51,9.72-9.2,14.47-16.79,13.98-9.23-.59-14.66-5.88-16.72-16.92-7.57-40.66-23.07-78-47.26-111.54-31.66-43.9-72.25-76.92-122.69-96.81-17.6-6.94-36.32-11.11-54.64-16.1-10.47-2.85-15.91-7.17-16.83-14.99C303.46,10.49,307.15,4.97,316.86,0,319.5,0,322.15,0,324.79,0Z"/>
  <path class="cls-1" d="m179.76,242.55c37.81,67.06,89.07,118.79,156.88,156.38,4.5-5.02,8.54-9.99,13.06-14.48,10.45-10.37,20.7-21,31.81-30.63,21.02-18.22,50.48-18.45,70.62.71,26.8,25.49,52.9,51.77,78.25,78.7,18.54,19.69,18.47,49.72,1.22,70.59-7.31,8.85-15.67,16.85-23.71,25.08-10.02,10.26-19.6,21.07-30.46,30.36-20.51,17.55-44.99,22.64-71.46,20.35-49.13-4.26-92.71-24.24-134.97-47.7-51.9-28.81-98.07-65.17-138.46-108.62-49.25-52.97-89.97-111.59-115.61-179.78C7.59,218.69.73,193.26.05,166.5c-.69-26.96,6.14-51.22,25.46-70.9,15.34-15.62,30.13-31.93,46.63-46.25,25.43-22.08,53.27-21.83,77.84,1.26,25.99,24.41,50.96,49.98,75.26,76.09,18.44,19.82,18.26,49.54.39,69.84-12.95,14.71-27.28,28.21-41.04,42.21-1.18,1.2-2.65,2.1-4.83,3.81Zm234.32,304.71c21.15.13,36.68-6.14,49.4-19.53,11.7-12.32,23.74-24.31,35.59-36.48,2.24-2.3,4.46-4.63,6.41-7.17,7.78-10.14,7.56-20.66-.57-30.46-1.92-2.32-4.02-4.51-6.15-6.65-12.8-12.84-25.62-25.65-38.44-38.46-9.22-9.21-18.31-18.55-27.71-27.56-10.06-9.65-21.27-9.8-31.88-.79-2.01,1.71-3.87,3.6-5.74,5.46-12.97,12.93-25.84,25.96-38.91,38.8-9.35,9.18-19.75,10.85-31.07,5.12-7.9-4-15.84-8-23.44-12.53-34.16-20.37-63.89-46.15-90.73-75.34-23.72-25.79-45.35-53.07-59.95-85.3-7.71-17.01-6.06-25.36,7.34-38.37,13.68-13.28,27.39-26.55,40.51-40.37,9.7-10.22,9.41-20.68.44-31.43-1.45-1.74-3.01-3.39-4.61-4.99-21.33-21.39-42.65-42.79-64.03-64.14-13.78-13.75-25.93-13.88-39.69-.3-13.17,12.99-26.59,25.78-39.09,39.4-5.87,6.39-11.23,13.98-14.38,21.98-6.85,17.43-4.86,35.7-1.2,53.58,5.63,27.51,16.06,53.38,28.45,78.47,21.87,44.3,50.33,84.14,83.27,120.8,58.25,64.82,127.33,114.12,209.36,144.5,19.2,7.11,39.16,11.05,56.83,11.78Z"/>
  <path class="cls-1" d="m319.73,105.34c7.34,1.98,18.37,4.01,28.71,7.88,68.59,25.61,110.38,74.48,125.44,146.13,1.98,9.4-3.19,17.85-12.04,20.16-8.59,2.25-17.21-2.95-20.06-12.19-3.88-12.58-6.31-25.81-11.74-37.67-22.85-49.89-61.6-80.32-115.45-91.38-9.88-2.03-15.12-8.07-14.9-16.95.22-9.01,7.36-15.95,20.04-15.99Z"/>
</svg>