<?xml version="1.0" encoding="UTF-8"?>
<svg id="Layer_1" data-name="Layer 1" xmlns="http://www.w3.org/2000/svg" viewBox="0 0 267.52 75.8">
  <defs>
    <style>
      .cls-1 {
        fill: #fff;
        stroke-width: 0px;
      }
    </style>
  </defs>
  <path class="cls-1" d="m41.66,30.46c1.42,1.4,3.05,2.9,4.56,4.53,1.2,1.29.93,3.62-.49,5.05-4.19,4.26-8.29,8.62-12.62,12.72-4.09,3.87-3.47,9.24,0,12.33,1.36,1.2,2.65,2.48,3.89,3.65-2.5,2.43-4.83,4.69-7.27,7.07-.09-.09-.56-.5-1-.95-7.74-7.83-15.46-15.68-23.23-23.49C1.29,47.11-.56,41.98.15,36.1c.46-3.76,2.2-7.1,4.9-9.84C13.44,17.75,21.84,9.26,30.21.73c.91-.93,1.55-1.01,2.42,0,.84.98,1.77,1.88,2.71,2.75,2.23,2.07,1.99,4.42.07,6.33-7.57,7.5-15.04,15.12-22.47,22.75-1.07,1.09-1.98,2.46-2.58,3.86-1.13,2.65-.19,5.14,1.6,7.08,2.58,2.79,5.45,5.3,8.1,7.83,7.05-6.81,14.28-13.8,21.61-20.87"/>
  <path class="cls-1" d="m60.9,37.35c.45,5.19-1.8,9.35-5.35,12.96-4.56,4.64-9.15,9.25-13.73,13.86-1.61,1.62-2.11,1.6-3.75-.04-.95-.95-1.93-1.88-2.83-2.88-1.39-1.54-1.49-2.75-.18-4.36,1.06-1.32,2.31-2.49,3.5-3.7,3.37-3.42,6.78-6.81,10.14-10.25,3.37-3.44,3.37-7.99.02-11.43-1.88-1.93-3.78-3.84-5.7-5.74-1.31-1.3-2.26-1.3-3.57.03-5.89,5.96-11.76,11.94-17.64,17.9-1.64,1.67-2.29,1.67-3.92.05-.83-.83-1.65-1.66-2.43-2.54-1.76-2-1.74-3.63.14-5.53,4.17-4.2,8.37-8.37,12.56-12.55,3.07-3.07,6.12-6.14,9.2-9.2,2.38-2.36,4.63-2.42,7.06-.15,3.64,3.4,7.26,6.82,10.88,10.23,3.82,3.59,6.03,7.86,5.61,13.32"/>
  <path class="cls-1" d="m136.43,40.83c0-1.93,0-3.86,0-5.8.01-3.48,2.41-7.02,7.31-7.61,3.23-.39,6.49-.24,9.35,1.93.64.48,2.28.39,3-.1,3.87-2.65,7.91-2.52,11.97-.91,3.2,1.27,4.24,4.17,4.32,7.37.1,3.8.04,7.61.02,11.42-.01,1.75-.95,2.78-2.44,2.82-1.57.04-2.54-1.01-2.56-2.86-.03-2.93,0-5.85-.02-8.78,0-.82-.05-1.64-.18-2.44-.41-2.52-1.76-3.85-3.94-3.94-3.52-.14-5.51.86-5.94,3.55-.41,2.58-.29,5.24-.38,7.86-.04,1.4.04,2.81-.03,4.21-.08,1.52-.98,2.38-2.49,2.38-1.51,0-2.45-.84-2.48-2.38-.06-2.93,0-5.85-.04-8.78,0-.87-.03-1.77-.22-2.62-.79-3.57-3.66-5.19-7.11-4.09-1.97.62-3.07,2.31-3.11,4.99-.05,3.4.02,6.79-.03,10.19-.03,1.97-1.51,3.13-3.25,2.61-1.23-.36-1.77-1.27-1.77-2.52,0-2.17,0-4.33,0-6.5h.03"/>
  <path class="cls-1" d="m88.05,24.54v7.7h13.58c0,1.02.04,1.87,0,2.71-.09,1.45-.81,2.26-2.34,2.26-2.17-.01-4.33,0-6.5,0-3.29.01-4.78,1.53-4.79,4.87,0,2.23-.03,4.45.01,6.68.02,1.03-.32,1.52-1.41,1.47-1.22-.06-2.44-.01-3.84-.01-.04-.65-.1-1.21-.1-1.76,0-8.43,0-16.86,0-25.3,0-3.04.79-3.82,3.86-3.82,5.67-.01,11.35,0,17.28,0,0,1.1.11,2.14-.03,3.15-.19,1.32-1.14,1.76-2.42,1.76-4.33-.01-8.66.02-13,.04-.1.09-.2.19-.29.28"/>
  <path class="cls-1" d="m193.06,36.48c.21-3.07-1.32-4.76-4.08-4.95-2.72-.19-5.41-.35-7.97.92-.26.13-.88-.12-1.12-.39-.92-1.02-.72-2.77.43-3.56.6-.41,1.36-.72,2.08-.84,3.65-.59,7.3-.68,10.85.6,3.52,1.27,4.95,4.15,5.1,7.6.19,4.61.05,9.24.05,14.14-2.19.18-4.3.52-6.42.48-3.13-.06-6.32-.08-9.37-.67-3.48-.68-5.8-2.78-5.31-7.85.26-2.73,2.93-5.31,6.15-5.45,3.16-.15,6.34-.03,9.61-.03m.07,3.51c-2.77,0-5.36-.1-7.93.04-1.63.09-2.85,1.49-2.97,2.96-.14,1.79.8,2.79,2.38,3.41,2.49.97,5.02.79,7.54.25.39-.08.91-.73.93-1.14.1-1.75.04-3.5.04-5.51"/>
  <path class="cls-1" d="m232.61,40.82c1.24,5.75,6.56,7.29,14.43,4.24.45.75.92,1.53,1.66,2.74-1.94.66-3.62,1.48-5.39,1.79-4.39.78-8.6.25-11.86-3.16-3.49-3.65-3.54-8.02-1.92-12.45,1.46-4,5.61-6.67,9.89-6.61,1.8.02,3.67,0,5.37.49,2.59.74,4.34,2.54,4.59,5.39.31,3.52-1.22,5.87-4.86,6.64-2.99.63-6.11.67-9.18.93-.87.07-1.74.01-2.73.01m.03-2.98c3.51.03,7.05.43,10.5-.75,1.62-.56,2.79-1.51,2.72-3.4-.07-1.86-1.23-2.89-2.92-3.22-1.3-.26-2.67-.38-3.98-.26-3.69.35-6.71,4-6.32,7.63"/>
  <path class="cls-1" d="m204.1,38.98c0-3.1-.06-6.21.02-9.31.05-2.19.34-2.4,2.48-2.4,2.93,0,5.86-.03,8.79,0,4.94.07,8.34,3.49,8.4,8.46.05,4.16-.04,8.32.04,12.48.02,1.35-.46,1.7-1.73,1.68-1.28-.02-1.95-.28-1.92-1.76.08-3.45.04-6.91.02-10.37-.03-4.35-2.55-6.85-6.9-6.88-1.11,0-2.23.02-3.34,0-1.46-.03-2.09.61-2.08,2.13.05,4.98-.02,9.96.05,14.94.02,1.42-.38,1.97-1.87,1.95-1.46-.01-1.99-.53-1.97-1.95.05-2.99.02-5.97.02-8.96h.01Z"/>
  <path class="cls-1" d="m266.38,30.51c-1.99,0-4.02-.01-6.05,0-1.92.02-2.54.61-2.55,2.5-.02,3.16-.03,6.32,0,9.48.03,3.12,1.73,4.58,4.84,4.16.52-.07,1.09-.15,1.51-.42,1.8-1.15,2.76-.32,3.39,1.38-2.46,2.79-8.95,3.2-11.43.46-.97-1.08-1.71-2.77-1.75-4.2-.19-6.78-.09-13.58-.11-20.37,0-1.23.41-2.05,1.78-2.1.97-.04,1.59.29,1.48,1.41-.05.52-.02,1.05,0,1.58.05,1.89,1.05,2.92,2.91,2.95,1.23.03,2.46,0,3.69,0,2.65,0,2.86.26,2.3,3.16"/>
  <path class="cls-1" d="m132.6,32.39c-1.92-.17-3.63-.4-5.35-.45-2.52-.08-4.31,1.61-4.36,4.15-.08,3.68.05,7.37-.14,11.04-.04.86-.8,1.98-1.55,2.41-.6.34-1.86.06-2.52-.4-.53-.37-.84-1.39-.85-2.13-.08-3.97-.1-7.95,0-11.93.11-4.68,3.42-7.79,8.16-7.74,1.68.02,3.42-.02,5.03.39,2.68.67,3.17,2.45,1.59,4.64"/>
  <path class="cls-1" d="m112.07,38.25c0,2.87.05,5.74-.02,8.6-.05,2.13-.93,3.08-2.56,3.06-1.63-.02-2.49-1.07-2.5-3.13-.01-5.44-.02-10.89,0-16.33,0-2.61,2.21-3.8,4.47-2.39.33.2.56.81.56,1.24.05,2.98.03,5.97.03,8.95h.01"/>
  <path class="cls-1" d="m109.59,19.26c1.8,0,2.99,1.13,3.02,2.88.03,1.84-1.29,3.1-3.25,3.11-1.45,0-3.03-1.52-3.07-2.94-.05-1.69,1.43-3.05,3.31-3.05"/>
  <path class="cls-1" d="m88.05,24.54c.1-.09.2-.19.29-.28-.1.09-.2.19-.29.28"/>
</svg>