<?xml version="1.0" encoding="UTF-8"?>
<svg id="Layer_1" data-name="Layer 1" xmlns="http://www.w3.org/2000/svg" xmlns:xlink="http://www.w3.org/1999/xlink" viewBox="0 0 91.44 63.02">
  <defs>
    <style>
      .cls-1 {
        clip-path: url(#clippath);
      }

      .cls-2 {
        fill: none;
      }

      .cls-2, .cls-3 {
        stroke-width: 0px;
      }

      .cls-3 {
        fill: #f0c41b;
      }
    </style>
    <clipPath id="clippath">
      <rect class="cls-2" x="28.46" y="-10.83" width="34.52" height="84.69" transform="translate(-.29 62.6) rotate(-68.62)"/>
    </clipPath>
  </defs>
  <g class="cls-1">
    <path class="cls-3" d="m78.96,47.6c-1.29-2.3-2.64-4.29-4.4-6.48-1.64-2.03-3.65-4.14-5.67-5.97-4.38-3.98-9.36-7.31-14.7-9.84-10.32-4.9-22.51-6.77-33.51-3.1-6.55,2.18-12.25,6.22-16.81,11.37-.39.44-3.59-3.23-2.75-4.17,4.25-4.79,9.49-8.65,15.51-10.91,5.52-2.07,11.52-2.77,17.38-2.29,12.27.99,23.93,6.85,33.07,14.92,5.45,4.82,10.12,10.55,13.67,16.91.19.35,1.04,1.78.29,1.9-.69.11-1.84-1.9-2.07-2.32"/>
    <path class="cls-3" d="m82.42,28.7c.27,6.54.53,13.07.79,19.61.04.92.07,1.84.11,2.76.05,1.12-1.27,3.64-2.74,2.93-5.4-2.58-10.81-5.17-16.21-7.76-.78-.37-1.56-.74-2.33-1.12-1.99-.95-.03-5.55,1.93-4.61,5.4,2.58,10.81,5.17,16.21,7.75.78.37,1.55.74,2.33,1.12l-2.74,2.93c-.27-6.54-.53-13.07-.79-19.61-.04-.92-.08-1.84-.11-2.76-.04-1.11.77-2.57,1.86-2.93,1.18-.4,1.65.72,1.69,1.68"/>
  </g>
</svg>