<?xml version="1.0" encoding="UTF-8"?>
<svg id="Layer_1" data-name="Layer 1" xmlns="http://www.w3.org/2000/svg" xmlns:xlink="http://www.w3.org/1999/xlink" viewBox="0 0 90.39 73.12">
  <defs>
    <style>
      .cls-1 {
        clip-path: url(#clippath);
      }

      .cls-2 {
        fill: none;
      }

      .cls-2, .cls-3 {
        stroke-width: 0px;
      }

      .cls-3 {
        fill: #f0c41b;
      }
    </style>
    <clipPath id="clippath">
      <rect class="cls-2" x="27.94" y="-5.79" width="34.52" height="84.69" transform="translate(-9.39 56.56) rotate(-59.09)"/>
    </clipPath>
  </defs>
  <g class="cls-1">
    <path class="cls-3" d="m78.26,53.01c-2.61.39-5.01.54-7.82.48-2.61-.05-5.51-.36-8.2-.83-5.83-1.03-11.5-2.93-16.78-5.61-10.19-5.17-19.12-13.67-22.95-24.62-2.28-6.52-2.57-13.5-1.29-20.25.11-.57-4.75-.86-4.99.38-1.19,6.3-1.03,12.8.86,18.94,1.74,5.64,4.85,10.8,8.82,15.16,8.29,9.1,20.05,14.74,32.03,17.04,7.15,1.37,14.54,1.55,21.74.47.39-.06,2.05-.27,1.68-.93-.34-.62-2.63-.29-3.1-.22"/>
    <path class="cls-3" d="m65.43,67.31c5.33-3.79,10.67-7.58,16-11.37.75-.53,1.5-1.07,2.25-1.6.91-.65,2.1-3.23.64-3.96-5.35-2.69-10.7-5.39-16.05-8.08-.77-.39-1.54-.78-2.31-1.16-1.97-.99-4.41,3.37-2.47,4.35,5.35,2.69,10.7,5.39,16.05,8.08.77.39,1.54.77,2.31,1.16l.64-3.96c-5.33,3.79-10.67,7.58-16,11.37-.75.53-1.5,1.07-2.25,1.6-.9.64-1.56,2.18-1.18,3.26.41,1.18,1.58.87,2.37.31"/>
  </g>
</svg>