<?xml version="1.0" encoding="UTF-8"?>
<svg id="Layer_1" data-name="Layer 1" xmlns="http://www.w3.org/2000/svg" xmlns:xlink="http://www.w3.org/1999/xlink" viewBox="0 0 89.22 76.72">
  <defs>
    <style>
      .cls-1 {
        clip-path: url(#clippath);
      }

      .cls-2 {
        fill: none;
      }

      .cls-2, .cls-3 {
        stroke-width: 0px;
      }

      .cls-3 {
        fill: #f0c41b;
      }
    </style>
    <clipPath id="clippath">
      <rect class="cls-2" x="2.27" y="21.1" width="84.69" height="34.52" transform="translate(-13.92 32.37) rotate(-34.84)"/>
    </clipPath>
  </defs>
  <g class="cls-1">
    <path class="cls-3" d="m12.75,57.04c2.63.21,5.04.19,7.84-.05,2.6-.23,5.47-.73,8.12-1.39,5.74-1.43,11.28-3.71,16.36-6.75,9.81-5.86,18.14-14.95,21.21-26.13,1.83-6.66,1.64-13.64-.1-20.29-.15-.56,4.68-1.18,5,.03,1.62,6.2,1.91,12.7.44,18.96-1.35,5.74-4.1,11.11-7.76,15.72-7.64,9.65-18.99,16.09-30.79,19.2-7.04,1.86-14.4,2.54-21.65,1.96-.4-.03-2.06-.12-1.74-.82.3-.64,2.6-.47,3.08-.44"/>
    <path class="cls-3" d="m26.54,70.43c-5.58-3.41-11.16-6.83-16.74-10.24-.79-.48-1.57-.96-2.36-1.44-.96-.59-2.32-3.07-.91-3.91,5.15-3.05,10.3-6.11,15.46-9.16.74-.44,1.48-.88,2.22-1.32,1.9-1.12,4.63,3.06,2.76,4.17-5.15,3.05-10.3,6.11-15.46,9.16-.74.44-1.48.88-2.22,1.32l-.91-3.91c5.58,3.41,11.16,6.83,16.74,10.24.79.48,1.57.96,2.36,1.44.95.58,1.71,2.07,1.41,3.17-.33,1.2-1.52.97-2.34.47"/>
  </g>
</svg>