<?xml version="1.0" encoding="UTF-8"?>
<svg id="Layer_1" xmlns="http://www.w3.org/2000/svg" version="1.1" viewBox="0 0 1000 1000">
  <!-- Generator: Adobe Illustrator 29.2.1, SVG Export Plug-In . SVG Version: 2.1.0 Build 116)  -->
  <defs>
    <style>
      .st0 {
        fill: #242d3c;
      }

      .st1 {
        fill: #fdc800;
      }

      .st2 {
        fill: #ff8d39;
      }
    </style>
  </defs>
  <path class="st0" d="M719.1,489.3c-6.8,0-12.3-5.5-12.3-12.3V128.5l-91.2-77.3h-314.7c-4.1,0-7.5,3.4-7.5,7.5v403.6c0,6.8-5.5,12.3-12.3,12.3s-12.3-5.5-12.3-12.3V58.7c0-17.7,14.4-32.1,32.1-32.1h319.2c2.9,0,5.7,1,7.9,2.9l99,83.9c2.8,2.3,4.4,5.8,4.4,9.4v354.2c0,6.8-5.5,12.3-12.3,12.3Z"/>
  <path class="st0" d="M719.1,135.1h-79.3c-17.7,0-32-14.4-32-32.1V38.9c0-4.8,2.8-9.1,7.1-11.2,4.3-2,9.5-1.3,13.1,1.8l99,83.9c3.9,3.3,5.4,8.8,3.6,13.6-1.8,4.8-6.4,8.1-11.6,8.1ZM632.3,65.4v37.6c0,4.1,3.4,7.5,7.5,7.5h45.7l-53.2-45.1Z"/>
  <path class="st1" d="M564.2,129.8h-220.4c-6.8,0-12.3-5.5-12.3-12.3s5.5-12.3,12.3-12.3h220.4c6.8,0,12.3,5.5,12.3,12.3s-5.5,12.3-12.3,12.3Z"/>
  <path class="st0" d="M724.3,778.2c-5.5,0-10-4.4-10.2-9.9-.2-5.7,4.2-10.4,9.9-10.6.9,0,57.3-2.6,101.8-33l.3-.2c.4-.3.8-.6,1-.8,4.7-3.2,11-2.1,14.3,2.6,3.2,4.7,2.1,11-2.6,14.3h-.1c-.4.4-.9.8-1.1.9-49.7,34-110.2,36.5-112.8,36.6-.1,0-.3,0-.4,0Z"/>
  <path class="st0" d="M204.6,766.9c-3.1,0-6.3-1.2-8.7-3.6l-34.1-34.1c-4.8-4.8-4.8-12.6,0-17.4,4.8-4.8,12.6-4.8,17.4,0l34.1,34.1c4.8,4.8,4.8,12.6,0,17.4-2.4,2.4-5.6,3.6-8.7,3.6Z"/>
  <path class="st0" d="M430.7,973.4c-15.2,0-30.5-5.8-42.1-17.4l-19.7-19.7c-4.8-4.8-4.8-12.6,0-17.4,4.8-4.8,12.6-4.8,17.4,0l19.7,19.7c13.6,13.6,35.7,13.6,49.4,0,6.6-6.6,10.2-15.3,10.2-24.7s-.9-9-2.6-13.2c-1.7-4.3-4.3-8.2-7.7-11.5-4.8-4.8-4.8-12.6,0-17.4,4.8-4.8,12.6-4.8,17.4,0l43.7,43.7c6.6,6.6,15.3,10.2,24.7,10.2s18.1-3.6,24.7-10.2c6.6-6.6,10.2-15.3,10.2-24.7s-3.6-18.1-10.2-24.7c-4.8-4.8-4.8-12.6,0-17.4,4.8-4.8,12.6-4.8,17.4,0,11.2,11.2,17.4,26.2,17.4,42.1s-6.2,30.8-17.4,42.1c-11.2,11.2-26.2,17.4-42.1,17.4s-30.8-6.2-42.1-17.4l-9.7-9.6c-1.9,12.4-7.7,23.7-16.7,32.7-11.6,11.6-26.8,17.4-42.1,17.4Z"/>
  <path class="st0" d="M627.1,902.9c-15.9,0-30.8-6.2-42.1-17.4l-107.4-107.4c-4.8-4.8-4.8-12.6,0-17.4,4.8-4.8,12.6-4.8,17.4,0l107.4,107.4c6.6,6.6,15.3,10.2,24.7,10.2s18.1-3.6,24.7-10.2c6.6-6.6,10.2-15.3,10.2-24.7s-3.6-18.1-10.2-24.7l-107.4-107.4c-4.8-4.8-4.8-12.6,0-17.4,4.8-4.8,12.6-4.8,17.4,0l107.4,107.4c11.2,11.2,17.4,26.2,17.4,42.1s-6.2,30.8-17.4,42.1c-11.3,11.2-26.2,17.4-42.1,17.4Z"/>
  <path class="st0" d="M677.7,820c-15.2,0-30.5-5.8-42.1-17.4-4.8-4.8-4.8-12.6,0-17.4,4.8-4.8,12.6-4.8,17.4,0,13.6,13.6,35.8,13.6,49.4,0,5.2-5.3,8.6-11.9,9.8-19.1,0,0,0-.1,0-.2.3-1.6.4-3.4.4-5.3,0-9.3-3.6-18.1-10.2-24.7l-170.6-170.6c-12.2-12.2-30.1-16.9-46.8-12.2-8.5,2.4-16.2,7.1-22.2,13.6l-53.2,57.7c-.1.1-.2.3-.3.4-25.3,25.3-66.5,25.3-91.8,0-20.3-20.3-24.9-51-11.4-76.4,17.1-32.2,46.7-76.3,90.6-104,.2-.1.3-.2.5-.3,36.1-22.6,75.6-30.2,117.5-22.6,6.4.9,93,14.3,161.1,60.8l78.9-34.2c6.2-2.7,13.5.2,16.2,6.4,2.7,6.2-.2,13.5-6.4,16.2l-85.3,36.9c-4,1.7-8.6,1.2-12.1-1.3-65.1-47.1-155.3-60.4-156.2-60.5-.2,0-.3,0-.5,0-35.9-6.6-69.8,0-100.7,19.4-.1,0-.3.2-.4.3-39.1,24.8-65.9,65-81.6,94.4-8.4,15.7-5.5,34.8,7.1,47.4,15.7,15.7,41.1,15.7,56.9.2l53-57.5c9.1-9.9,20.7-17,33.6-20.6,25.2-7.1,52.3,0,70.8,18.5l170.6,170.6c11.2,11.3,17.4,26.2,17.4,42.1s-.3,6.5-.8,9.5c-2,12.4-7.7,23.7-16.6,32.6-11.6,11.6-26.8,17.4-42.1,17.4Z"/>
  <path class="st0" d="M236.8,483.3c-5.5,0-10.5-3.7-11.9-9.3-1.7-6.6,2.3-13.3,8.9-14.9l1.5-.4c2.1-.5,5.4-1.4,5.4-1.4,73.4-16.7,153.9-15,162.8-14.8,6.7.1,12,5.6,12,12.3s-5.7,12.5-12.6,12.3c-3.5-.1-85-2.2-156.6,14.1l-6.4,1.6c-1,.3-2,.4-3,.4Z"/>
  <path class="st0" d="M231.4,812.7c-11.5,0-22.3-4.5-30.4-12.6-16.8-16.8-16.8-44.1,0-60.9l36.4-36.4c16.8-16.8,44.1-16.8,60.9,0,8.1,8.1,12.6,18.9,12.6,30.4s-4.5,22.3-12.6,30.4c-4.8,4.8-12.6,4.8-17.4,0-4.8-4.8-4.8-12.6,0-17.4,3.5-3.5,5.4-8.1,5.4-13s-1.9-9.6-5.4-13c-7.2-7.2-18.9-7.2-26.1,0l-36.4,36.4c-7.2,7.2-7.2,18.9,0,26.1,3.5,3.5,8.1,5.4,13,5.4s9.6-1.9,13-5.4c4.8-4.8,12.6-4.8,17.4,0,4.8,4.8,4.8,12.6,0,17.4-8.2,8.2-19,12.6-30.4,12.6Z"/>
  <path class="st0" d="M261.9,869.1c-11.5,0-22.3-4.5-30.4-12.6-8.1-8.1-12.6-18.9-12.6-30.4s4.5-22.3,12.6-30.4l49.3-49.3c8.1-8.1,18.9-12.6,30.4-12.6s22.3,4.5,30.4,12.6c8.1,8.1,12.6,18.9,12.6,30.4s-4.5,22.3-12.6,30.4c-4.8,4.8-12.6,4.8-17.4,0-4.8-4.8-4.8-12.6,0-17.4,3.5-3.5,5.4-8.1,5.4-13s-1.9-9.6-5.4-13c-3.5-3.5-8.1-5.4-13-5.4s-9.6,1.9-13,5.4l-49.3,49.3c-3.5,3.5-5.4,8.1-5.4,13s1.9,9.6,5.4,13c3.5,3.5,8.1,5.4,13,5.4s9.6-1.9,13-5.4c4.8-4.8,12.6-4.8,17.4,0,4.8,4.8,4.8,12.6,0,17.4-8.1,8.1-18.9,12.6-30.4,12.6Z"/>
  <path class="st0" d="M291,926.9c-11,0-22-4.2-30.4-12.6-16.8-16.8-16.8-44.1,0-60.9l63.6-63.6c16.8-16.8,44.1-16.8,60.9,0,16.8,16.8,16.8,44.1,0,60.9l-63.6,63.6c-8.4,8.4-19.4,12.6-30.4,12.6ZM354.7,801.8c-4.7,0-9.5,1.8-13,5.4l-63.6,63.6c-7.2,7.2-7.2,18.9,0,26.1,7.2,7.2,18.9,7.2,26.1,0l63.6-63.6c7.2-7.2,7.2-18.9,0-26.1-3.6-3.6-8.3-5.4-13-5.4Z"/>
  <path class="st0" d="M353,951.9c-11.5,0-22.3-4.5-30.4-12.6-16.8-16.8-16.8-44.1,0-60.9,4.8-4.8,12.6-4.8,17.4,0,4.8,4.8,4.8,12.6,0,17.4-7.2,7.2-7.2,18.9,0,26.1,3.5,3.5,8.1,5.4,13,5.4s9.6-1.9,13-5.4l45.2-45.2c3.5-3.5,5.4-8.1,5.4-13s-1.9-9.6-5.4-13c-3.5-3.5-8.1-5.4-13-5.4s-9.6,1.9-13,5.4c-4.8,4.8-12.6,4.8-17.4,0s-4.8-12.6,0-17.4c8.1-8.1,18.9-12.6,30.4-12.6s22.3,4.5,30.4,12.6c8.1,8.1,12.6,18.9,12.6,30.4s-4.5,22.3-12.6,30.4l-45.2,45.2c-8.1,8.1-18.9,12.6-30.4,12.6Z"/>
  <path class="st0" d="M843.3,784.2c-5.4,0-10.4-3.6-11.9-9.1l-92.3-344.5c-1.8-6.6,2.1-13.3,8.7-15.1l95.3-25.5c3.2-.9,6.5-.4,9.3,1.2,2.8,1.6,4.9,4.3,5.7,7.5l92.3,344.5c.9,3.2.4,6.5-1.2,9.3s-4.3,4.9-7.5,5.7l-95.3,25.5c-1,.3-2.1.4-3.1.4ZM766.1,436.1l86,320.8,71.5-19.1-86-320.8-71.5,19.1Z"/>
  <path class="st0" d="M156.7,784c-1,0-2.1-.1-3.2-.4l-95.3-25.5c-6.6-1.8-10.5-8.5-8.7-15.1l92.3-344.5c.9-3.2,2.9-5.8,5.7-7.5,2.8-1.6,6.2-2.1,9.3-1.2l95.3,25.5c6.6,1.8,10.5,8.5,8.7,15.1l-92.3,344.6c-1.5,5.5-6.4,9.1-11.9,9.1ZM76.5,737.5l71.5,19.1,86-320.8-71.5-19.1-86,320.8Z"/>
  <path d="M181.7,500.2c-1,0-2.1-.1-3.2-.4-6.6-1.8-10.5-8.5-8.7-15.1l19.7-73.5c1.8-6.6,8.5-10.5,15.1-8.7,6.6,1.8,10.5,8.5,8.7,15.1l-19.7,73.5c-1.5,5.5-6.4,9.1-11.9,9.1Z"/>
  <path class="st0" d="M891,771.4c-5.4,0-10.4-3.6-11.9-9.1l-31.6-118c-1.8-6.6,2.1-13.3,8.7-15.1,6.6-1.8,13.3,2.1,15.1,8.7l31.6,118c1.8,6.6-2.1,13.3-8.7,15.1-1.1.3-2.1.4-3.2.4Z"/>
  <path class="st1" d="M649.1,198.9h-305.2c-6.8,0-12.3-5.5-12.3-12.3s5.5-12.3,12.3-12.3h305.2c6.8,0,12.3,5.5,12.3,12.3s-5.5,12.3-12.3,12.3Z"/>
  <path class="st1" d="M649.1,268h-305.2c-6.8,0-12.3-5.5-12.3-12.3s5.5-12.3,12.3-12.3h305.2c6.8,0,12.3,5.5,12.3,12.3s-5.5,12.3-12.3,12.3Z"/>
  <path class="st1" d="M649.1,337h-152.6c-6.8,0-12.3-5.5-12.3-12.3s5.5-12.3,12.3-12.3h152.6c6.8,0,12.3,5.5,12.3,12.3s-5.5,12.3-12.3,12.3Z"/>
  <path class="st2" d="M351.7,408.3c-.7,0-1.4,0-2.2-.2-6.7-1.2-11.1-7.6-10-14.3l15.9-89.9c1.1-6,6.3-10.3,12.4-10.1,6.1.1,11.1,4.7,11.9,10.8,3.7,29,12.4,59,18.6,64.1,1.6-2.5,3.2-9,3.5-14,.2-4.1,2.4-7.9,5.9-10,3.5-2.2,7.9-2.4,11.6-.7,18.5,8.6,53.3,22.1,68,22.1s12.3,5.5,12.3,12.3-5.5,12.3-12.3,12.3c-17.5,0-46.4-10.8-63.9-18.1-2.1,6.3-5.6,12.9-11.5,17-6.1,4.2-13.6,5.1-21.2,2.6-8.6-2.9-15.5-11-21.3-25.4l-5.6,31.5c-1,6-6.2,10.1-12.1,10.1Z"/>
</svg>