<?xml version="1.0" encoding="UTF-8"?>
<svg id="Layer_1" xmlns="http://www.w3.org/2000/svg" version="1.1" viewBox="0 0 471 402">
  <!-- Generator: Adobe Illustrator 29.2.1, SVG Export Plug-In . SVG Version: 2.1.0 Build 116)  -->
  <defs>
    <style>
      .st0 {
        fill: #4999d5;
      }

      .st1 {
        fill: #242d3c;
      }

      .st2 {
        fill: #0054a1;
      }

      .st3 {
        fill: #fff;
      }
    </style>
  </defs>
  <path class="st1" d="M356.8,304.3H114.2v-145.8c0-3.4,1.3-6.5,3.7-8.9,2.3-2.4,5.5-3.7,8.9-3.7h40.3v9.7h-40.3c-.5,0-1.3.1-2.1.8-.8.8-.9,1.6-.9,2.1v136.1h223.2v-136.1c0-.5-.1-1.3-.8-2-.6-.6-1.3-.9-2.1-.9h-40.3v-9.7h40.3c3.4,0,6.5,1.3,8.9,3.7,2.4,2.4,3.7,5.5,3.7,8.9v145.8Z"/>
  <rect class="st1" x="207.3" y="145.9" width="56.5" height="9.7"/>
  <rect class="st0" x="137.7" y="169.4" width="195.5" height="130"/>
  <path class="st1" d="M365.3,325H105.7c-4,0-7.9-1.6-10.7-4.4-2.9-2.9-4.5-6.7-4.5-10.8v-15.2h289.9v15.2c0,4.1-1.6,7.9-4.5,10.7-2.9,2.9-6.7,4.4-10.7,4.4ZM100.2,304.3v5.5c0,1.5.6,2.9,1.6,3.9,1,1,2.4,1.6,3.9,1.6h259.5c1.5,0,2.9-.6,3.9-1.6,1-1,1.6-2.4,1.6-3.9v-5.5H100.2Z"/>
  <path class="st3" d="M279,234.4c0,24-19.5,43.5-43.5,43.5s-43.5-19.5-43.5-43.5,19.5-43.5,43.5-43.5,43.5,19.5,43.5,43.5Z"/>
  <path class="st1" d="M235.5,258.6c-13.3,0-24.2-10.8-24.2-24.2s10.8-24.2,24.2-24.2,24.2,10.8,24.2,24.2-10.8,24.2-24.2,24.2ZM235.5,219.9c-8,0-14.5,6.5-14.5,14.5s6.5,14.5,14.5,14.5,14.5-6.5,14.5-14.5-6.5-14.5-14.5-14.5Z"/>
  <path class="st2" d="M158.5,125.3c-13.3,0-24.2-10.8-24.2-24.2s10.8-24.2,24.2-24.2,24.2,10.8,24.2,24.2-10.8,24.2-24.2,24.2ZM158.5,86.7c-8,0-14.5,6.5-14.5,14.5s6.5,14.5,14.5,14.5,14.5-6.5,14.5-14.5-6.5-14.5-14.5-14.5Z"/>
  <path class="st2" d="M312.5,125.3c-13.3,0-24.2-10.8-24.2-24.2s10.8-24.2,24.2-24.2,24.2,10.8,24.2,24.2-10.8,24.2-24.2,24.2ZM312.5,86.7c-8,0-14.5,6.5-14.5,14.5s6.5,14.5,14.5,14.5,14.5-6.5,14.5-14.5-6.5-14.5-14.5-14.5Z"/>
  <path class="st1" d="M317.3,101.2c0,2.7-2.2,4.8-4.8,4.8s-4.8-2.2-4.8-4.8,2.2-4.8,4.8-4.8,4.8,2.2,4.8,4.8Z"/>
  <path class="st1" d="M266.2,191l-8.4-4.8,4.8-8.3,8.4,4.8-4.8,8.3ZM275.8,174.4l-8.4-4.8,4.8-8.3,8.4,4.8-4.8,8.3ZM285.4,157.7l-8.4-4.8,4.8-8.3,8.4,4.8-4.8,8.3ZM295,141.1l-8.4-4.8,4.8-8.3,8.4,4.8-4.8,8.3Z"/>
  <path class="st1" d="M204.8,191l-4.8-8.3,8.4-4.8,4.8,8.3-8.4,4.8ZM195.2,174.4l-4.8-8.3,8.4-4.8,4.8,8.3-8.4,4.8ZM185.6,157.8l-4.8-8.3,8.4-4.8,4.8,8.3-8.4,4.8ZM176,141.1l-4.8-8.3,8.4-4.8,4.8,8.3-8.4,4.8Z"/>
  <path class="st1" d="M163.4,101.2c0,2.7-2.2,4.8-4.8,4.8s-4.8-2.2-4.8-4.8,2.2-4.8,4.8-4.8,4.8,2.2,4.8,4.8Z"/>
  <path class="st1" d="M240.3,234.4c0,2.7-2.2,4.8-4.8,4.8s-4.8-2.2-4.8-4.8,2.2-4.8,4.8-4.8,4.8,2.2,4.8,4.8Z"/>
</svg>