<?xml version="1.0" encoding="UTF-8"?>
<svg id="Layer_1" xmlns="http://www.w3.org/2000/svg" version="1.1" viewBox="0 0 1000 1000">
  <!-- Generator: Adobe Illustrator 29.2.1, SVG Export Plug-In . SVG Version: 2.1.0 Build 116)  -->
  <defs>
    <style>
      .st0 {
        fill: #242d3c;
      }

      .st1 {
        fill: #fdc800;
      }

      .st2 {
        fill: #0054a1;
      }

      .st3 {
        fill: #ff8d39;
      }
    </style>
  </defs>
  <path class="st1" d="M500,513.3c-48.8,0-88.5-39.7-88.5-88.5s39.7-88.5,88.5-88.5,88.5,39.7,88.5,88.5-39.7,88.5-88.5,88.5Z"/>
  <path class="st2" d="M122.7,251.9c-24.8,0-44.9-20.1-44.9-44.9s20.1-44.9,44.9-44.9,44.9,20.1,44.9,44.9-20.1,44.9-44.9,44.9Z"/>
  <path class="st2" d="M877.3,251.9c-24.8,0-44.9-20.1-44.9-44.9s20.1-44.9,44.9-44.9,44.9,20.1,44.9,44.9-20.1,44.9-44.9,44.9Z"/>
  <path class="st2" d="M500,905.5c-24.8,0-44.9-20.1-44.9-44.9s20.1-44.9,44.9-44.9,44.9,20.1,44.9,44.9-20.1,44.9-44.9,44.9Z"/>
  <path class="st0" d="M500,587.8c-89.9,0-163-73.1-163-163s73.1-163,163-163,163,73.1,163,163-73.1,163-163,163ZM500,297.4c-70.3,0-127.5,57.2-127.5,127.5s57.2,127.5,127.5,127.5,127.5-57.2,127.5-127.5-57.2-127.5-127.5-127.5Z"/>
  <path class="st0" d="M122.7,326.4c-65.8,0-119.4-53.6-119.4-119.4s53.6-119.4,119.4-119.4,119.4,53.6,119.4,119.4-53.6,119.4-119.4,119.4ZM122.7,123.1c-46.3,0-83.9,37.7-83.9,83.9s37.7,83.9,83.9,83.9,83.9-37.7,83.9-83.9-37.6-83.9-83.9-83.9Z"/>
  <path class="st0" d="M877.3,326.4c-65.8,0-119.4-53.6-119.4-119.4s53.6-119.4,119.4-119.4,119.4,53.6,119.4,119.4-53.6,119.4-119.4,119.4ZM877.3,123.1c-46.3,0-83.9,37.7-83.9,83.9s37.7,83.9,83.9,83.9,83.9-37.7,83.9-83.9-37.7-83.9-83.9-83.9Z"/>
  <path class="st0" d="M500,980c-65.8,0-119.4-53.6-119.4-119.4s53.6-119.4,119.4-119.4,119.4,53.5,119.4,119.4-53.6,119.4-119.4,119.4ZM500,776.7c-46.3,0-83.9,37.6-83.9,83.9s37.7,83.9,83.9,83.9,83.9-37.7,83.9-83.9-37.7-83.9-83.9-83.9Z"/>
  <path class="st3" d="M500,169c-41.1,0-74.5-33.4-74.5-74.5s33.4-74.5,74.5-74.5,74.5,33.4,74.5,74.5-33.4,74.5-74.5,74.5ZM500,55.5c-21.5,0-39,17.5-39,39s17.5,39,39,39,39-17.5,39-39-17.5-39-39-39Z"/>
  <path class="st0" d="M223.3,659.1c-26.6,0-51.3-14.3-64.6-37.3-9.9-17.2-12.6-37.3-7.4-56.5,5.2-19.2,17.5-35.3,34.7-45.3,11.3-6.5,24.2-10,37.2-10,26.6,0,51.3,14.3,64.6,37.3,10,17.2,12.6,37.3,7.4,56.5-5.2,19.2-17.5,35.3-34.7,45.3-11.3,6.5-24.2,10-37.2,10ZM223.2,545.6c-6.8,0-13.5,1.8-19.4,5.2-9,5.2-15.5,13.6-18.2,23.7-2.7,10.1-1.3,20.6,3.9,29.6,7,12,19.9,19.5,33.9,19.5s13.5-1.8,19.5-5.2c9-5.2,15.5-13.6,18.2-23.7,2.7-10.1,1.3-20.6-3.9-29.6-6.9-12.1-19.9-19.5-33.9-19.5Z"/>
  <path class="st0" d="M776.6,659.1c-13,0-25.9-3.4-37.2-10-17.2-10-29.6-26-34.7-45.3-5.1-19.2-2.5-39.3,7.4-56.5,13.3-23,38-37.3,64.6-37.3s25.9,3.5,37.2,10c35.6,20.5,47.8,66.2,27.3,101.8-13.3,23-38,37.2-64.6,37.2ZM776.8,545.6c-13.9,0-26.9,7.5-33.9,19.5-5.2,9-6.6,19.5-3.9,29.6,2.7,10.1,9.1,18.5,18.2,23.7,5.9,3.4,12.6,5.2,19.4,5.2,13.9,0,26.9-7.5,33.9-19.5,10.8-18.6,4.4-42.6-14.3-53.3-5.9-3.4-12.7-5.2-19.5-5.2Z"/>
  <rect class="st0" x="482.3" y="570.1" width="35.5" height="188.8"/>
  <polygon class="st0" points="634.7 367.6 616.9 336.9 780.4 242.5 798.2 273.2 634.7 367.6"/>
  <polygon class="st0" points="365.3 367.6 201.8 273.2 219.6 242.5 383.1 336.9 365.3 367.6"/>
</svg>