<?xml version="1.0" encoding="UTF-8"?>
<svg id="Layer_1" xmlns="http://www.w3.org/2000/svg" version="1.1" viewBox="0 0 1000 1000">
  <!-- Generator: Adobe Illustrator 29.2.1, SVG Export Plug-In . SVG Version: 2.1.0 Build 116)  -->
  <defs>
    <style>
      .st0 {
        fill: #4999d5;
      }

      .st1 {
        fill: #242d3c;
      }

      .st2 {
        fill: #0054a1;
      }
    </style>
  </defs>
  <path class="st0" d="M500,513.3c-48.5,0-88-39.5-88-88s39.5-88,88-88,88,39.5,88,88-39.5,88-88,88Z"/>
  <path class="st2" d="M124.5,253.1c-24.6,0-44.7-20-44.7-44.7s20-44.7,44.7-44.7,44.7,20,44.7,44.7-20,44.7-44.7,44.7Z"/>
  <path class="st2" d="M875.5,253.1c-24.6,0-44.7-20-44.7-44.7s20-44.7,44.7-44.7,44.7,20,44.7,44.7-20,44.7-44.7,44.7Z"/>
  <path class="st2" d="M500,903.4c-24.6,0-44.7-20-44.7-44.7s20-44.7,44.7-44.7,44.7,20,44.7,44.7-20,44.7-44.7,44.7Z"/>
  <path class="st1" d="M500,587.4c-89.4,0-162.2-72.7-162.2-162.2s72.8-162.1,162.2-162.1,162.2,72.7,162.2,162.1-72.7,162.2-162.2,162.2ZM500,298.4c-70,0-126.9,56.9-126.9,126.8s56.9,126.9,126.9,126.9,126.9-56.9,126.9-126.9-56.9-126.8-126.9-126.8Z"/>
  <path class="st1" d="M124.5,327.3c-65.5,0-118.8-53.3-118.8-118.8s53.3-118.8,118.8-118.8,118.8,53.3,118.8,118.8-53.3,118.8-118.8,118.8ZM124.5,125c-46,0-83.5,37.5-83.5,83.5s37.5,83.5,83.5,83.5,83.5-37.5,83.5-83.5-37.5-83.5-83.5-83.5Z"/>
  <path class="st1" d="M875.5,327.3c-65.5,0-118.8-53.3-118.8-118.8s53.3-118.8,118.8-118.8,118.8,53.3,118.8,118.8-53.3,118.8-118.8,118.8ZM875.5,125c-46,0-83.5,37.5-83.5,83.5s37.5,83.5,83.5,83.5,83.5-37.5,83.5-83.5-37.5-83.5-83.5-83.5Z"/>
  <path class="st1" d="M500,977.6c-65.5,0-118.8-53.3-118.8-118.8s53.3-118.8,118.8-118.8,118.8,53.3,118.8,118.8-53.3,118.8-118.8,118.8ZM500,775.3c-46,0-83.5,37.4-83.5,83.5s37.5,83.5,83.5,83.5,83.5-37.5,83.5-83.5-37.5-83.5-83.5-83.5Z"/>
  <path class="st1" d="M500,170.7c-40.9,0-74.1-33.3-74.1-74.1s33.3-74.1,74.1-74.1,74.1,33.3,74.1,74.1-33.3,74.1-74.1,74.1ZM500,57.7c-21.4,0-38.8,17.4-38.8,38.8s17.4,38.8,38.8,38.8,38.8-17.4,38.8-38.8-17.4-38.8-38.8-38.8Z"/>
  <path class="st1" d="M224.7,658.3c-26.4,0-51.1-14.2-64.3-37.1-9.9-17.1-12.5-37.1-7.4-56.2,5.1-19.1,17.4-35.1,34.5-45,11.3-6.5,24-9.9,37-9.9,26.4,0,51.1,14.2,64.3,37.1,9.9,17.1,12.5,37.1,7.4,56.2-5.1,19.1-17.4,35.1-34.5,45-11.3,6.5-24.1,9.9-37,9.9ZM224.6,545.3c-6.8,0-13.5,1.8-19.3,5.2-9,5.2-15.4,13.6-18.1,23.6-2.7,10-1.3,20.5,3.9,29.4,6.9,12,19.8,19.4,33.7,19.4s13.5-1.8,19.4-5.2c9-5.2,15.4-13.6,18.1-23.6,2.7-10,1.3-20.5-3.9-29.5-6.9-12-19.8-19.4-33.7-19.4Z"/>
  <path class="st1" d="M775.3,658.3c-12.9,0-25.7-3.4-37-9.9-17.2-9.9-29.4-25.9-34.5-45-5.1-19.1-2.5-39.1,7.4-56.2,13.2-22.9,37.8-37.1,64.3-37.1s25.7,3.4,37,9.9c35.4,20.4,47.6,65.9,27.1,101.3-13.2,22.9-37.8,37.1-64.3,37.1ZM775.4,545.3c-13.9,0-26.8,7.4-33.7,19.4-5.2,9-6.6,19.4-3.9,29.4,2.7,10,9.1,18.4,18.1,23.6,5.9,3.4,12.6,5.2,19.3,5.2,13.9,0,26.8-7.4,33.7-19.4,10.7-18.5,4.3-42.3-14.2-53.1-5.9-3.4-12.6-5.2-19.4-5.2Z"/>
  <rect class="st1" x="482.4" y="569.7" width="35.3" height="187.9"/>
  <polygon class="st1" points="634 368.3 616.3 337.7 779 243.7 796.7 274.3 634 368.3"/>
  <polygon class="st1" points="366 368.3 203.3 274.3 221 243.7 383.7 337.7 366 368.3"/>
</svg>