<?xml version="1.0" encoding="UTF-8"?>
<svg id="Layer_1" xmlns="http://www.w3.org/2000/svg" version="1.1" viewBox="0 0 1000 1000">
  <!-- Generator: Adobe Illustrator 29.2.1, SVG Export Plug-In . SVG Version: 2.1.0 Build 116)  -->
  <defs>
    <style>
      .st0 {
        fill: #4999d5;
      }

      .st1 {
        fill: #242d3c;
      }

      .st2 {
        fill: #0054a1;
      }
    </style>
  </defs>
  <polygon class="st1" points="975.6 869.5 841.6 869.5 841.6 834.5 940.6 834.5 940.6 534.3 975.6 534.3 975.6 869.5"/>
  <path class="st1" d="M927.7,938h-103.6V209.4l51.8-51.8,51.8,51.8v728.7ZM859.1,903h33.5V223.9l-16.7-16.7-16.7,16.7v679.1Z"/>
  <rect class="st1" x="841.6" y="516.8" width="68.5" height="35"/>
  <rect class="st1" x="858.4" y="148.1" width="35" height="34.3"/>
  <polygon class="st1" points="790.6 938 548.1 938 548.1 903 755.6 903 755.6 223.9 628.7 97 174.1 97 174.1 685.9 139 685.9 139 62 643.2 62 790.6 209.4 790.6 938"/>
  <polygon class="st1" points="773.1 234.2 618.4 234.2 618.4 79.5 653.5 79.5 653.5 199.1 773.1 199.1 773.1 234.2"/>
  <rect class="st1" x="259.3" y="199.1" width="205.5" height="35.1"/>
  <rect class="st1" x="259.3" y="526.2" width="411" height="35"/>
  <rect class="st1" x="259.3" y="594.7" width="411" height="35"/>
  <rect class="st1" x="464.8" y="663.2" width="205.5" height="35"/>
  <rect class="st0" x="259.3" y="285.1" width="411" height="190.1"/>
  <path class="st2" d="M156.5,938c-57.3,0-103.9-46.6-103.9-103.9s46.6-103.9,103.9-103.9,103.9,46.6,103.9,103.9-46.6,103.9-103.9,103.9ZM156.5,765.2c-38,0-68.9,30.9-68.9,68.9s30.9,68.9,68.9,68.9,68.9-30.9,68.9-68.9-30.9-68.9-68.9-68.9Z"/>
  <path class="st2" d="M415.8,938c-57.3,0-103.9-46.6-103.9-103.9s46.6-103.9,103.9-103.9,103.9,46.6,103.9,103.9-46.6,103.9-103.9,103.9ZM415.8,765.2c-38,0-68.9,30.9-68.9,68.9s30.9,68.9,68.9,68.9,68.9-30.9,68.9-68.9-30.9-68.9-68.9-68.9Z"/>
  <path class="st2" d="M354.8,798.7h-35c0-18.5-15-33.5-33.5-33.5s-33.5,15-33.5,33.5h-35c0-37.8,30.7-68.5,68.5-68.5s68.5,30.7,68.5,68.5Z"/>
  <rect class="st2" x="502.2" y="816.6" width="45.8" height="35.1"/>
  <rect class="st2" x="24.4" y="816.6" width="45.8" height="35.1"/>
</svg>