<?xml version="1.0" encoding="UTF-8"?>
<svg id="Layer_1" xmlns="http://www.w3.org/2000/svg" version="1.1" viewBox="0 0 1000 1000">
  <!-- Generator: Adobe Illustrator 29.2.1, SVG Export Plug-In . SVG Version: 2.1.0 Build 116)  -->
  <defs>
    <style>
      .st0 {
        fill: #4999d5;
      }

      .st1 {
        fill: #242d3c;
      }

      .st2 {
        fill: #fdc800;
      }

      .st3 {
        fill: #0054a1;
      }

      .st4 {
        fill: #ff8d39;
      }
    </style>
  </defs>
  <polygon class="st2" points="962.8 859.6 832.4 859.6 832.4 825.5 928.7 825.5 928.7 533.4 962.8 533.4 962.8 859.6"/>
  <path class="st1" d="M916.2,926.3h-100.8V217.2l50.4-50.4,50.4,50.4v709.1ZM849.5,892.2h32.6V231.3l-16.3-16.3-16.3,16.3v660.9Z"/>
  <rect class="st1" x="832.4" y="516.4" width="66.7" height="34.1"/>
  <rect class="st1" x="848.7" y="157.5" width="34.1" height="33.4"/>
  <polygon class="st1" points="782.8 926.3 546.8 926.3 546.8 892.1 748.7 892.1 748.7 231.3 625.3 107.8 182.8 107.8 182.8 680.9 148.7 680.9 148.7 73.7 639.4 73.7 782.8 217.2 782.8 926.3"/>
  <polygon class="st1" points="765.8 241.3 615.3 241.3 615.3 90.8 649.4 90.8 649.4 207.2 765.8 207.2 765.8 241.3"/>
  <rect class="st1" x="265.8" y="207.2" width="200" height="34.1"/>
  <rect class="st1" x="265.8" y="525.5" width="400" height="34.1"/>
  <rect class="st1" x="265.8" y="592.2" width="400" height="34.1"/>
  <rect class="st1" x="465.8" y="658.8" width="200" height="34.1"/>
  <rect class="st4" x="265.8" y="290.9" width="400" height="185"/>
  <path class="st0" d="M165.8,926.3c-55.8,0-101.2-45.4-101.2-101.2s45.4-101.2,101.2-101.2,101.2,45.4,101.2,101.2-45.4,101.2-101.2,101.2ZM165.8,758.1c-37,0-67.1,30.1-67.1,67.1s30.1,67.1,67.1,67.1,67.1-30.1,67.1-67.1-30.1-67.1-67.1-67.1Z"/>
  <path class="st0" d="M418.1,926.3c-55.8,0-101.2-45.4-101.2-101.2s45.4-101.2,101.2-101.2,101.2,45.4,101.2,101.2-45.4,101.2-101.2,101.2ZM418.1,758.1c-37,0-67.1,30.1-67.1,67.1s30.1,67.1,67.1,67.1,67.1-30.1,67.1-67.1-30.1-67.1-67.1-67.1Z"/>
  <path class="st0" d="M358.7,790.7h-34.1c0-18-14.6-32.6-32.6-32.6s-32.6,14.6-32.6,32.6h-34.1c0-36.8,29.9-66.7,66.7-66.7s66.7,29.9,66.7,66.7Z"/>
  <rect class="st3" x="502.2" y="808.1" width="44.6" height="34.1"/>
  <rect class="st0" x="37.2" y="808.1" width="44.6" height="34.1"/>
</svg>