<?xml version="1.0" encoding="UTF-8"?>
<svg id="Layer_1" xmlns="http://www.w3.org/2000/svg" version="1.1" viewBox="0 0 1000 1000">
  <!-- Generator: Adobe Illustrator 29.2.1, SVG Export Plug-In . SVG Version: 2.1.0 Build 116)  -->
  <defs>
    <style>
      .st0 {
        fill: #4999d5;
      }

      .st1 {
        fill: #242d3c;
      }

      .st2 {
        fill: #fff;
      }
    </style>
  </defs>
  <path class="st1" d="M724.1,940.1v-33.4c35.5,0,64.3-28.9,64.3-64.3V157.7c0-24.6,9.1-47.1,24.2-64.3H275.1c-35.5,0-64.3,28.9-64.3,64.3v684.6h-33.4V157.7c0-53.9,43.8-97.7,97.7-97.7h611.1v33.4c-35.5,0-64.3,28.9-64.3,64.3v684.6c0,53.9-43.8,97.7-97.7,97.7Z"/>
  <path class="st1" d="M983.8,174.4h-195.4v-16.7c0-53.9,43.8-97.7,97.7-97.7s97.7,43.8,97.7,97.7v16.7ZM824,141h124.2c-7.4-27.4-32.4-47.6-62.1-47.6s-54.7,20.2-62.1,47.6Z"/>
  <path class="st1" d="M724.1,940.1H113c-53.9,0-97.7-43.8-97.7-97.7v-16.7h644.5v16.7c0,35.4,28.8,64.3,64.3,64.3v33.4ZM50.9,859.1c7.4,27.4,32.4,47.6,62.1,47.6h537.6c-11.6-13.2-19.7-29.6-22.8-47.6H50.9Z"/>
  <rect class="st1" x="535.4" y="191.7" width="193.2" height="33.4"/>
  <rect class="st1" x="535.4" y="256.5" width="193.2" height="33.4"/>
  <rect class="st1" x="535.4" y="321.4" width="193.2" height="33.4"/>
  <rect class="st1" x="535.4" y="386.3" width="193.2" height="33.4"/>
  <rect class="st1" x="270.6" y="451.2" width="458" height="33.4"/>
  <rect class="st1" x="270.6" y="516.1" width="458" height="33.4"/>
  <rect class="st1" x="270.6" y="580.9" width="458" height="33.4"/>
  <rect class="st1" x="270.6" y="645.8" width="458" height="33.4"/>
  <rect class="st1" x="270.6" y="710.7" width="458" height="33.4"/>
  <rect class="st0" x="270.6" y="191.7" width="228.1" height="228"/>
  <path class="st2" d="M458.1,379.1h-31.5c0-63.6-51.8-115.5-115.5-115.5v-31.5c81,0,146.9,65.9,146.9,146.9Z"/>
  <path class="st2" d="M404,379.1h-31.5c0-33.8-27.5-61.3-61.3-61.3v-31.5c51.2,0,92.8,41.6,92.8,92.8Z"/>
  <path class="st2" d="M346.6,361.4c0,9.8-7.9,17.7-17.7,17.7s-17.7-7.9-17.7-17.7,7.9-17.7,17.7-17.7,17.7,7.9,17.7,17.7Z"/>
</svg>