<?xml version="1.0" encoding="UTF-8"?>
<svg id="Layer_1" xmlns="http://www.w3.org/2000/svg" version="1.1" viewBox="0 0 1000 1000">
  <!-- Generator: Adobe Illustrator 29.2.1, SVG Export Plug-In . SVG Version: 2.1.0 Build 116)  -->
  <defs>
    <style>
      .st0 {
        fill: #4999d5;
      }

      .st1 {
        fill: #242d3c;
      }

      .st2 {
        fill: #0054a1;
      }
    </style>
  </defs>
  <path class="st0" d="M555.7,686.1l47.2-18c3.7-14.2,9.3-27.6,16.6-39.9l-20.7-46.1,31.6-31.6,46.1,20.7c12.3-7.2,25.7-12.8,39.9-16.6l18-47.2h36.7V243.7h-472.8v483.8h257.4v-41.5Z"/>
  <path class="st2" d="M790.5,926h-67.6l-19.1-50.2c-9.7-3.1-19.1-7-28-11.6l-49,22-47.8-47.8,22-49.1c-4.7-9-8.6-18.4-11.7-28l-50.2-19.1v-67.6l50.2-19.1c3.1-9.7,7-19.1,11.7-28.1l-22-49,47.8-47.8,49,22c9-4.7,18.4-8.6,28-11.7l19.1-50.2h67.6l19.1,50.2c9.7,3.1,19,7,28.1,11.7l49.1-22,47.7,47.8-22,49c4.7,9.1,8.6,18.5,11.7,28.1l50.2,19.1v67.6s-50.2,19.1-50.2,19.1c-3.1,9.6-7,19-11.7,28l22,49.1-47.7,47.8-49.1-22c-9,4.7-18.4,8.6-28,11.6l-19.2,50.2ZM745.8,892.8h21.7l17-44.5,8.3-2.2c12.5-3.3,24.5-8.3,35.8-14.8l7.4-4.3,43.5,19.5,15.3-15.3-19.5-43.5,4.3-7.4c6.6-11.3,11.6-23.3,14.9-35.7l2.2-8.3,44.5-17v-21.7l-44.5-17-2.2-8.3c-3.2-12.3-8.2-24.4-14.8-35.7l-4.3-7.4,19.5-43.5-15.3-15.4-43.5,19.5-7.4-4.3c-11.2-6.6-23.3-11.6-35.8-14.8l-8.3-2.2-17-44.5h-21.7l-16.9,44.5-8.3,2.2c-12.6,3.3-24.6,8.3-35.7,14.8l-7.4,4.3-43.5-19.5-15.4,15.4,19.5,43.5-4.3,7.4c-6.6,11.2-11.5,23.2-14.8,35.7l-2.2,8.3-44.5,16.9v21.7l44.5,17,2.2,8.2c3.3,12.5,8.3,24.6,14.8,35.7l4.3,7.4-19.5,43.5,15.4,15.3,43.5-19.5,7.4,4.3c11.1,6.5,23.1,11.5,35.7,14.8l8.3,2.2,16.9,44.5Z"/>
  <path class="st0" d="M756.7,802c-51.6,0-93.6-42-93.6-93.6s42-93.7,93.6-93.7,93.6,42,93.6,93.7-42,93.6-93.6,93.6ZM756.7,648c-33.3,0-60.4,27.1-60.4,60.4s27.1,60.3,60.4,60.3,60.3-27.1,60.3-60.3-27.1-60.4-60.3-60.4Z"/>
  <rect class="st1" x="25.6" y="472.2" width="85.2" height="33.3"/>
  <rect class="st1" x="110.8" y="586.3" width="91.6" height="33.3"/>
  <rect class="st1" x="110.8" y="643.4" width="91.6" height="33.3"/>
  <rect class="st1" x="110.8" y="814.6" width="91.6" height="33.3"/>
  <rect class="st1" x="110.8" y="871.6" width="91.6" height="33.3"/>
  <rect class="st1" x="25.6" y="529.2" width="176.8" height="33.3"/>
  <rect class="st1" x="25.6" y="700.5" width="85.2" height="33.3"/>
  <rect class="st1" x="110.8" y="358" width="91.6" height="33.3"/>
  <rect class="st1" x="110.8" y="415.1" width="91.6" height="33.3"/>
  <rect class="st1" x="25.6" y="300.9" width="176.8" height="33.3"/>
  <rect class="st1" x="25.6" y="757.5" width="176.8" height="33.3"/>
  <rect class="st1" x="238.3" y="814.6" width="91.6" height="33.3"/>
  <rect class="st1" x="238.3" y="871.7" width="176.8" height="33.3"/>
  <path class="st1" d="M834.3,213.8H235V74h599.3v139.8ZM268.3,180.5h532.7v-73.2H268.3v73.2Z"/>
  <rect class="st1" x="301.6" y="127.2" width="33.3" height="33.3"/>
  <rect class="st1" x="368.2" y="127.2" width="33.3" height="33.3"/>
  <rect class="st1" x="434.8" y="127.2" width="33.3" height="33.3"/>
  <polygon class="st1" points="515.8 790.8 235 790.8 235 180.5 834.3 180.5 834.3 479.5 801 479.5 801 213.8 268.3 213.8 268.3 757.5 515.8 757.5 515.8 790.8"/>
</svg>