<?xml version="1.0" encoding="UTF-8"?>
<svg id="Layer_1" xmlns="http://www.w3.org/2000/svg" version="1.1" viewBox="0 0 1000 1000">
  <!-- Generator: Adobe Illustrator 29.2.1, SVG Export Plug-In . SVG Version: 2.1.0 Build 116)  -->
  <defs>
    <style>
      .st0 {
        fill: #4999d5;
      }

      .st1 {
        fill: #242d3c;
      }

      .st2 {
        fill: #0054a1;
      }

      .st3 {
        fill: #fff;
      }
    </style>
  </defs>
  <path class="st1" d="M920.5,443.2h-39.6c0-210.2-171-381.3-381.3-381.3S118.3,233,118.3,443.2h-39.6c0-232.1,188.8-420.9,420.9-420.9s420.9,188.8,420.9,420.9Z"/>
  <path class="st1" d="M318.9,443.2h-39.6c0-236,96.8-420.9,220.3-420.9v39.6c-98,0-180.7,174.6-180.7,381.3Z"/>
  <path class="st1" d="M719.9,443.2h-39.6c0-206.7-82.8-381.3-180.7-381.3V22.3c123.6,0,220.3,184.9,220.3,420.9Z"/>
  <rect class="st1" x="479.8" y="42.1" width="39.6" height="401.1"/>
  <path class="st1" d="M499.6,262.4c-109,0-216.4-17.1-319.2-50.9l12.4-37.6c98.8,32.4,202.1,48.9,306.8,48.9s208.1-16.5,306.9-48.9l12.4,37.6c-102.8,33.8-210.2,50.9-319.3,50.9Z"/>
  <path class="st0" d="M24.2,443.2v534.6h950.8V443.2H24.2ZM499.6,854.8c-79.7,0-144.3-64.6-144.3-144.3s64.6-144.3,144.3-144.3,144.2,64.6,144.2,144.3-64.4,144.3-144.2,144.3Z"/>
  <path class="st3" d="M825.8,923.3H173.3v-19.8c0-41.3-33.5-74.8-74.8-74.8h-19.8v-236.3h19.8c41.2,0,74.8-33.6,74.8-74.8v-19.8h652.5v19.8c0,41.3,33.6,74.8,74.9,74.8h19.8v236.3h-19.8c-41.3,0-74.9,33.6-74.9,74.8v19.8ZM211.2,883.7h576.7c8.3-47.3,45.7-84.6,93-92.9v-160.5c-47.3-8.3-84.7-45.7-93-92.9H211.2c-8.3,47.3-45.6,84.6-92.9,92.9v160.6c47.2,8.3,84.6,45.7,92.9,92.9Z"/>
  <rect class="st3" x="711.9" y="690.7" width="106" height="39.6"/>
  <rect class="st3" x="181.2" y="690.7" width="105.9" height="39.6"/>
  <path class="st2" d="M568.7,718c-.3,50.9-26.2,87.2-90.6,87.2s-9.3-.3-13.5-.8v-83.2l-24.7,9v-14.9l24.7-9v-14.3l-24.7,9v-14.9l24.7-9v-55.4h23.3v47l49.5-17.7v14.9l-49.5,17.7v14.3l49.2-17.7v14.9l-49.2,17.7v72.3c30.9-1.4,57.4-19.7,58.5-66.9h22.2Z"/>
</svg>