<?xml version="1.0" encoding="UTF-8"?>
<svg id="Layer_1" xmlns="http://www.w3.org/2000/svg" version="1.1" viewBox="0 0 1000 1000">
  <!-- Generator: Adobe Illustrator 29.2.1, SVG Export Plug-In . SVG Version: 2.1.0 Build 116)  -->
  <defs>
    <style>
      .st0 {
        fill: #4999d5;
      }

      .st1 {
        fill: #242d3c;
      }

      .st2 {
        fill: #fdc800;
      }

      .st3 {
        fill: #fff;
      }
    </style>
  </defs>
  <rect class="st2" x="415.9" y="628.6" width="186.2" height="93.1"/>
  <path class="st1" d="M619.8,739.4h-221.6v-128.5h221.6v128.5ZM433.6,703.9h150.7v-57.6h-150.7v57.6Z"/>
  <path class="st1" d="M712.8,739.4h-128.6v-128.5h128.6v128.5ZM619.8,703.9h57.6v-57.6h-57.6v57.6Z"/>
  <path class="st1" d="M805.9,739.4h-128.6v-128.5h128.6v128.5ZM712.8,703.9h57.6v-57.6h-57.6v57.6Z"/>
  <path class="st1" d="M526.7,832.4h-128.5v-128.5h128.5v128.5ZM433.6,797h57.6v-57.6h-57.6v57.6Z"/>
  <path class="st1" d="M619.8,832.4h-128.5v-128.5h128.5v128.5ZM526.7,797h57.6v-57.6h-57.6v57.6Z"/>
  <path class="st1" d="M712.8,832.4h-128.6v-128.5h128.6v128.5ZM619.8,797h57.6v-57.6h-57.6v57.6Z"/>
  <path class="st1" d="M805.9,832.4h-128.6v-128.5h128.6v128.5ZM712.8,797h57.6v-57.6h-57.6v57.6Z"/>
  <path class="st1" d="M526.7,925.5h-128.5v-128.6h128.5v128.6ZM433.6,890.1h57.6v-57.6h-57.6v57.6Z"/>
  <path class="st1" d="M619.8,925.5h-128.5v-128.6h128.5v128.6ZM526.7,890.1h57.6v-57.6h-57.6v57.6Z"/>
  <path class="st1" d="M712.8,925.5h-128.6v-128.6h128.6v128.6ZM619.8,890.1h57.6v-57.6h-57.6v57.6Z"/>
  <path class="st1" d="M805.9,925.5h-128.5v-128.6h128.5v128.6ZM712.9,890.1h57.6v-57.6h-57.6v57.6Z"/>
  <rect class="st0" x="415.9" y="349.3" width="372.3" height="186.2"/>
  <path class="st1" d="M805.9,553.2h-407.8v-221.6h407.8v221.6ZM433.6,517.7h336.9v-150.7h-336.9v150.7Z"/>
  <path class="st1" d="M868,987.6H336.1V269.5h531.9v718ZM371.5,952.1h461V305h-461v647.1Z"/>
  <rect class="st3" x="699.5" y="424.7" width="35.5" height="35.5"/>
  <rect class="st3" x="628.5" y="424.7" width="35.5" height="35.5"/>
  <rect class="st3" x="557.6" y="424.7" width="35.5" height="35.5"/>
  <polygon class="st1" points="282.9 987.6 132 987.6 132 75.8 195.4 12.4 241 58 286.6 12.4 332.2 58 377.8 12.4 423.4 58 469 12.4 514.6 58 560.2 12.4 605.8 58 651.4 12.4 697 58 742.6 12.4 805.9 75.8 805.9 216.3 770.5 216.3 770.5 90.5 742.6 62.6 697 108.2 651.4 62.6 605.8 108.2 560.2 62.6 514.6 108.2 469 62.6 423.4 108.2 377.8 62.6 332.2 108.2 286.6 62.6 241 108.2 195.4 62.6 167.5 90.5 167.5 952.1 282.9 952.1 282.9 987.6"/>
</svg>