<?xml version="1.0" encoding="UTF-8"?>
<svg id="Layer_1" xmlns="http://www.w3.org/2000/svg" version="1.1" viewBox="0 0 1000 1000">
  <!-- Generator: Adobe Illustrator 29.2.1, SVG Export Plug-In . SVG Version: 2.1.0 Build 116)  -->
  <defs>
    <style>
      .st0 {
        fill: #4999d5;
      }

      .st1 {
        fill: #242d3c;
      }

      .st2 {
        fill: #0054a1;
      }

      .st3 {
        fill: #fff;
      }
    </style>
  </defs>
  <rect class="st2" x="419.4" y="623.1" width="178.3" height="89.2"/>
  <path class="st1" d="M614.7,729.3h-212.3v-123.1h212.3v123.1ZM436.4,695.3h144.3v-55.2h-144.3v55.2Z"/>
  <path class="st1" d="M703.9,729.3h-123.1v-123.1h123.1v123.1ZM614.7,695.3h55.2v-55.2h-55.2v55.2Z"/>
  <path class="st1" d="M793,729.3h-123.1v-123.1h123.1v123.1ZM703.9,695.3h55.2v-55.2h-55.2v55.2Z"/>
  <path class="st1" d="M525.5,818.4h-123.1v-123.1h123.1v123.1ZM436.4,784.5h55.2v-55.2h-55.2v55.2Z"/>
  <path class="st1" d="M614.7,818.4h-123.1v-123.1h123.1v123.1ZM525.5,784.5h55.2v-55.2h-55.2v55.2Z"/>
  <path class="st1" d="M703.9,818.4h-123.1v-123.1h123.1v123.1ZM614.7,784.5h55.2v-55.2h-55.2v55.2Z"/>
  <path class="st1" d="M793,818.4h-123.1v-123.1h123.1v123.1ZM703.9,784.5h55.2v-55.2h-55.2v55.2Z"/>
  <path class="st1" d="M525.5,907.6h-123.1v-123.1h123.1v123.1ZM436.4,873.6h55.2v-55.2h-55.2v55.2Z"/>
  <path class="st1" d="M614.7,907.6h-123.1v-123.1h123.1v123.1ZM525.5,873.6h55.2v-55.2h-55.2v55.2Z"/>
  <path class="st1" d="M703.9,907.6h-123.1v-123.1h123.1v123.1ZM614.7,873.6h55.2v-55.2h-55.2v55.2Z"/>
  <path class="st1" d="M793,907.6h-123.1v-123.1h123.1v123.1ZM703.9,873.6h55.2v-55.2h-55.2v55.2Z"/>
  <rect class="st0" x="419.4" y="355.7" width="356.7" height="178.3"/>
  <path class="st1" d="M793,551h-390.6v-212.3h390.6v212.3ZM436.4,517h322.7v-144.3h-322.7v144.3Z"/>
  <path class="st1" d="M852.5,967h-509.5V279.2h509.5v687.8ZM377,933.1h441.5V313.2h-441.5v619.8Z"/>
  <rect class="st3" x="691.1" y="427.8" width="34" height="34"/>
  <rect class="st3" x="623.1" y="427.8" width="34" height="34"/>
  <rect class="st3" x="555.2" y="427.8" width="34" height="34"/>
  <polygon class="st1" points="292 967 147.5 967 147.5 93.6 208.2 33 251.9 76.7 295.6 33 339.2 76.7 382.9 33 426.6 76.7 470.3 33 514 76.7 557.7 33 601.3 76.7 645 33 688.7 76.7 732.4 33 793 93.6 793 228.3 759.1 228.3 759.1 107.7 732.4 81 688.7 124.7 645 81 601.3 124.7 557.7 81 514 124.7 470.3 81 426.6 124.7 382.9 81 339.2 124.7 295.6 81 251.9 124.7 208.2 81 181.5 107.7 181.5 933.1 292 933.1 292 967"/>
</svg>