<?xml version="1.0" encoding="UTF-8"?>
<svg id="Layer_1" xmlns="http://www.w3.org/2000/svg" version="1.1" viewBox="0 0 1000 1000">
  <!-- Generator: Adobe Illustrator 29.2.1, SVG Export Plug-In . SVG Version: 2.1.0 Build 116)  -->
  <defs>
    <style>
      .st0 {
        fill: #4999d5;
      }

      .st1 {
        fill: #242d3c;
      }

      .st2 {
        fill: #0054a1;
      }

      .st3 {
        fill: #fff;
      }
    </style>
  </defs>
  <path class="st2" d="M511.2,316.6c0,107.4-87.2,194.5-194.6,194.5s-194.5-87.1-194.5-194.5,87.1-194.5,194.5-194.5,194.6,87.1,194.6,194.5Z"/>
  <path class="st1" d="M316.6,593.3h0c-152.5,0-276.6-124.1-276.6-276.7S164.1,40,316.6,40s276.7,124.1,276.7,276.7c0,152.6-124.2,276.7-276.7,276.7ZM316.6,74.6c-133.5,0-242.1,108.6-242.1,242.1s108.6,242.1,242.1,242.1,242.1-108.6,242.1-242.1c0-133.5-108.6-242.1-242.1-242.1Z"/>
  <path class="st3" d="M330.7,418.3h-28.1c-15.8,0-30.7-6.2-42-17.3-11.3-11.4-17.4-26.3-17.4-42.1h34.6c0,6.6,2.6,12.9,7.3,17.7,4.6,4.6,10.9,7.2,17.5,7.2h28.1c6.6,0,12.9-2.6,17.7-7.3,4.6-4.6,7.2-10.9,7.2-17.5s-2.6-12.9-7.3-17.6c-4.7-4.7-11-7.3-17.6-7.3h-28.1c-15.9,0-30.8-6.2-42-17.4-11.2-11.3-17.4-26.2-17.4-42,0-15.9,6.2-30.8,17.3-42.1,11.4-11.3,26.3-17.4,42.1-17.4h28.1c15.7,0,30.6,6.1,41.9,17.2,11.4,11.5,17.5,26.4,17.5,42.2h-34.6c0-6.6-2.6-12.9-7.3-17.7-4.7-4.5-11-7.2-17.6-7.2h-28.1c-6.6,0-12.9,2.6-17.7,7.3-4.6,4.6-7.2,10.9-7.2,17.6,0,6.6,2.6,12.9,7.3,17.6,4.6,4.6,10.9,7.2,17.5,7.2h28.1c15.8,0,30.7,6.2,42,17.4,11.3,11.3,17.5,26.2,17.5,42.1s-6.2,30.7-17.3,42c-11.5,11.3-26.4,17.5-42.2,17.5Z"/>
  <rect class="st3" x="299.3" y="198.6" width="34.6" height="33.7"/>
  <rect class="st3" x="299.3" y="401" width="34.6" height="33.7"/>
  <path class="st0" d="M877.9,683.4c0,107.4-87.2,194.5-194.6,194.5-107.4,0-194.5-87.1-194.5-194.6s87.1-194.5,194.5-194.5,194.6,87.1,194.6,194.5Z"/>
  <path class="st1" d="M683.3,960h0c-152.6,0-276.7-124.1-276.7-276.7s124.1-276.7,276.7-276.7,276.7,124.1,276.7,276.7c0,152.6-124.2,276.7-276.7,276.7ZM683.3,441.2c-133.5,0-242.1,108.6-242.1,242.1s108.6,242.1,242.1,242.1v17.3-17.3c133.5,0,242.1-108.6,242.1-242.1,0-133.5-108.6-242.1-242.1-242.1Z"/>
  <path class="st1" d="M863.2,361.1h-34.6v-31.6h34.6v31.6ZM863.2,297.9h-34.6v-31.6h34.6v31.6ZM863.2,234.7h-34.6v-31.6h34.6v31.6Z"/>
  <rect class="st1" x="828.6" y="136.8" width="34.6" height="34.6"/>
  <path class="st1" d="M797,171.4h-31.6v-34.6h31.6v34.6ZM733.7,171.4h-31.6v-34.6h31.6v34.6ZM670.5,171.4h-31.6v-34.6h31.6v34.6Z"/>
  <path class="st1" d="M171.4,797h-34.6v-31.6h34.6v31.6ZM171.4,733.7h-34.6v-31.6h34.6v31.6ZM171.4,670.5h-34.6v-31.6h34.6v31.6Z"/>
  <rect class="st1" x="136.8" y="828.6" width="34.6" height="34.6"/>
  <path class="st1" d="M361.1,863.2h-31.6v-34.6h31.6v34.6ZM297.9,863.2h-31.6v-34.6h31.6v34.6ZM234.7,863.2h-31.6v-34.6h31.6v34.6Z"/>
  <path class="st3" d="M770.4,695.6c-.3,58.5-30,100.1-104,100.1s-10.7-.3-15.5-1v-95.6l-28.4,10.3v-17.1l28.4-10.3v-16.5l-28.4,10.3v-17.1l28.4-10.3v-63.6h26.8v53.9l56.9-20.4v17.1l-56.9,20.4v16.5l56.5-20.4v17.1l-56.5,20.4v83c35.5-1.6,65.9-22.6,67.2-76.9h25.5Z"/>
</svg>