<?xml version="1.0" encoding="UTF-8"?>
<svg id="Layer_1" xmlns="http://www.w3.org/2000/svg" version="1.1" viewBox="0 0 1000 1000">
  <!-- Generator: Adobe Illustrator 29.2.1, SVG Export Plug-In . SVG Version: 2.1.0 Build 116)  -->
  <defs>
    <style>
      .st0 {
        fill: #4999d5;
      }

      .st1 {
        fill: #242d3c;
      }

      .st2 {
        fill: #fff;
      }
    </style>
  </defs>
  <path class="st1" d="M236.3,804.8H38.6v-115.3h197.7v115.3ZM71.5,771.9h131.8v-49.4H71.5v49.4Z"/>
  <polygon class="st1" points="219.8 722.5 38.6 722.5 38.6 607.1 185.8 607.1 185.8 640.1 71.5 640.1 71.5 689.5 219.8 689.5 219.8 722.5"/>
  <polygon class="st1" points="185.8 640.1 38.6 640.1 38.6 524.7 172.8 524.7 172.8 557.7 71.5 557.7 71.5 607.1 185.8 607.1 185.8 640.1"/>
  <polygon class="st1" points="172.8 557.7 38.6 557.7 38.6 442.3 185.8 442.3 185.8 475.3 71.5 475.3 71.5 524.7 172.8 524.7 172.8 557.7"/>
  <path class="st1" d="M961.4,804.8h-197.7v-115.3h197.7v115.3ZM796.7,771.9h131.8v-49.4h-131.8v49.4Z"/>
  <path class="st1" d="M961.4,722.5h-197.7v-115.4h197.7v115.4ZM796.7,689.5h131.8v-49.4h-131.8v49.4Z"/>
  <path class="st1" d="M796.7,804.8h-197.7v-115.3h197.7v115.3ZM631.9,771.9h131.8v-49.4h-131.8v49.4Z"/>
  <polygon class="st1" points="796.7 722.5 615.4 722.5 615.4 689.5 763.7 689.5 763.7 640.1 652 640.1 652 607.1 796.7 607.1 796.7 722.5"/>
  <polygon class="st1" points="796.7 640.1 652 640.1 652 607.1 763.7 607.1 763.7 557.7 667.3 557.7 667.3 524.7 796.7 524.7 796.7 640.1"/>
  <polygon class="st1" points="796.7 557.7 667.3 557.7 667.3 524.7 763.7 524.7 763.7 475.3 652 475.3 652 442.3 796.7 442.3 796.7 557.7"/>
  <polygon class="st1" points="796.7 475.3 652 475.3 652 442.3 763.7 442.3 763.7 392.9 615.4 392.9 615.4 359.9 796.7 359.9 796.7 475.3"/>
  <path class="st1" d="M796.7,392.9h-197.7v-115.3h197.7v115.3ZM631.9,359.9h131.8v-49.4h-131.8v49.4Z"/>
  <path class="st1" d="M796.7,310.5h-197.7v-115.3h197.7v115.3ZM631.9,277.6h131.8v-49.4h-131.8v49.4Z"/>
  <path class="st0" d="M604.3,541.2c0,102.4-83,185.4-185.4,185.4s-185.3-83-185.3-185.4,83-185.4,185.3-185.4,185.4,83,185.4,185.4Z"/>
  <path class="st1" d="M418.9,804.8c-145.4,0-263.6-118.3-263.6-263.6s118.3-263.6,263.6-263.6,263.7,118.3,263.7,263.6-118.3,263.6-263.7,263.6ZM418.9,310.5c-127.2,0-230.7,103.5-230.7,230.7s103.5,230.7,230.7,230.7,230.7-103.5,230.7-230.7-103.5-230.7-230.7-230.7Z"/>
  <path class="st2" d="M518.4,552c-.4,65.2-33.5,111.7-116,111.7s-11.9-.4-17.3-1.1v-106.6l-31.7,11.5v-19.1l31.7-11.5v-18.4l-31.7,11.5v-19.1l31.7-11.5v-71h29.9v60.1l63.4-22.7v19.1l-63.4,22.7v18.4l63-22.7v19.1l-63,22.7v92.6c39.6-1.8,73.5-25.2,74.9-85.7h28.5Z"/>
</svg>