<?xml version="1.0" encoding="UTF-8"?>
<svg id="Layer_1" xmlns="http://www.w3.org/2000/svg" version="1.1" viewBox="0 0 1000 1000">
  <!-- Generator: Adobe Illustrator 29.2.1, SVG Export Plug-In . SVG Version: 2.1.0 Build 116)  -->
  <defs>
    <style>
      .st0 {
        fill: #4999d5;
      }

      .st1 {
        fill: #242d3c;
      }

      .st2 {
        fill: #0054a1;
      }
    </style>
  </defs>
  <rect class="st0" x="124.6" y="507.4" width="750.8" height="467.7"/>
  <rect class="st1" x="247.6" y="507.4" width="33.9" height="467.7"/>
  <rect class="st1" x="718.5" y="507.4" width="33.9" height="467.7"/>
  <path class="st1" d="M354.6,507.4h-33.9v-71.6c0-13.4,5.3-26,14.8-35.6,9.5-9.5,22.2-14.8,35.6-14.8h14.4v33.9h-14.4c-3.1,0-7.6.8-11.6,4.8-3.1,3.1-4.9,7.3-4.9,11.6v71.6Z"/>
  <path class="st1" d="M679.3,507.4h-33.9v-71.6c0-4.3-1.7-8.5-4.8-11.6-3.1-3.1-7.2-4.9-11.6-4.9h-14.6v-33.9h14.6c13.4,0,26,5.3,35.6,14.8,9.5,9.5,14.8,22.2,14.8,35.6v71.6Z"/>
  <rect class="st2" x="334.2" y="24.9" width="331.6" height="157.3"/>
  <path class="st1" d="M528.6,476.8c-10.5,0-20.5-3.6-28.6-10.1-8,6.5-18,10.1-28.6,10.1h0c-10.6,0-20.6-3.6-28.6-10.1-8.1,6.5-18,10.1-28.6,10.1h-.1c-12.1,0-23.6-4.7-32.1-13.3-8.5-8.5-13.3-19.9-13.3-32.1v-108.5s34,0,34,0v108.4c0,3.1,1.2,6.1,3.4,8.2,2.2,2.2,5.1,3.4,8.2,3.4h0c3.2,0,6.1-1.2,8.3-3.4,3-3,3.4-6.4,3.4-8.2h33.9c0,3.1,1.2,6.1,3.4,8.3,2.2,2.2,5.1,3.4,8.3,3.4,1.6.1,5.2-.4,8.2-3.4,3-3,3.4-6.5,3.5-8.4l33.9.2c0,3,1.2,5.9,3.4,8.1,4.4,4.3,12,4.4,16.4,0,2.2-2.2,3.4-5.1,3.4-8.2h33.9c0,3.1,1.2,6,3.4,8.1,2.3,2.3,5.1,3.5,8.2,3.5h0c3.1,0,6-1.2,8.2-3.4,2.2-2.2,3.4-5.1,3.4-8.1v-249.2s34,0,34,0v249c0,12-4.7,23.5-13.3,32.2-8.6,8.6-20,13.4-32.2,13.4h0c-10.5,0-20.5-3.6-28.5-10.1-8.1,6.6-18.1,10.1-28.6,10.1Z"/>
  <rect class="st1" x="368.7" y="114.4" width="33.9" height="33.9"/>
  <path class="st1" d="M385.6,392.1c-38.7,0-70.1-31.5-70.1-70.2s7.6-36.6,20.7-49.7c1.8-1.9,5.7-5.8,9.1-8.5,14.2-11.5,23.3-32.7,23.3-54.1v-27.4h33.9v27.4c0,31.7-13.8,62.6-36,80.5-1.4,1.1-3.8,3.4-6.2,5.9-7,7.1-11,16.4-11,25.9,0,20,16.2,36.2,36.2,36.2v33.9Z"/>
</svg>