<?xml version="1.0" encoding="UTF-8"?>
<svg id="Layer_1" xmlns="http://www.w3.org/2000/svg" version="1.1" viewBox="0 0 1000 1000">
  <!-- Generator: Adobe Illustrator 29.2.1, SVG Export Plug-In . SVG Version: 2.1.0 Build 116)  -->
  <defs>
    <style>
      .st0 {
        fill: #4999d5;
      }

      .st1 {
        fill: #242d3c;
      }

      .st2 {
        fill: #ff8d39;
      }
    </style>
  </defs>
  <rect class="st0" x="122.1" y="507.5" width="755.8" height="470.8"/>
  <rect class="st1" x="245.9" y="507.5" width="34.2" height="470.8"/>
  <rect class="st1" x="719.9" y="507.5" width="34.2" height="470.8"/>
  <path class="st1" d="M353.6,507.5h-34.2v-72.1c0-13.5,5.3-26.2,14.9-35.8,9.6-9.6,22.3-14.9,35.9-14.9h14.5v34.2h-14.5c-3.1,0-7.7.8-11.7,4.9-3.2,3.2-4.9,7.3-4.9,11.7v72.1Z"/>
  <path class="st1" d="M680.5,507.5h-34.2v-72.1c0-4.4-1.7-8.5-4.9-11.6-3.2-3.2-7.3-4.9-11.7-4.9h-14.7v-34.2h14.7c13.5,0,26.2,5.3,35.8,14.9,9.6,9.6,14.9,22.3,14.9,35.8v72.1Z"/>
  <rect class="st2" x="333.1" y="21.7" width="333.8" height="158.3"/>
  <path class="st1" d="M528.8,476.6c-10.6,0-20.6-3.6-28.8-10.2-8.1,6.6-18.1,10.1-28.8,10.1h0c-10.6,0-20.7-3.6-28.8-10.1-8.1,6.5-18.2,10.1-28.8,10.1h-.1c-12.2,0-23.7-4.8-32.3-13.4-8.6-8.5-13.4-20-13.4-32.3v-109.3s34.2,0,34.2,0v109.1c0,3.1,1.2,6.1,3.4,8.3,2.2,2.2,5.1,3.4,8.2,3.4h0c3.2,0,6.1-1.2,8.3-3.4,3-3,3.4-6.5,3.4-8.3h34.2c0,3.2,1.2,6.1,3.4,8.3,2.2,2.2,5.1,3.4,8.3,3.4,1.6.1,5.3-.4,8.2-3.4,3-3,3.5-6.6,3.5-8.4l34.2.2c0,3,1.2,5.9,3.4,8.2,4.4,4.4,12.1,4.5,16.5,0,2.2-2.2,3.4-5.1,3.4-8.3h34.2c0,3.1,1.2,6,3.4,8.2,2.3,2.3,5.2,3.5,8.3,3.5h0c3.1,0,6.1-1.2,8.3-3.4,2.2-2.2,3.5-5.1,3.4-8.2v-250.8s34.2,0,34.2,0v250.7c0,12.1-4.7,23.6-13.4,32.4-8.6,8.7-20.1,13.5-32.5,13.5h0c-10.6,0-20.6-3.6-28.7-10.2-8.1,6.6-18.2,10.2-28.8,10.2Z"/>
  <rect class="st1" x="367.8" y="111.8" width="34.2" height="34.1"/>
  <path class="st1" d="M384.8,391.4c-38.9,0-70.6-31.7-70.6-70.6s7.6-36.8,20.9-50.1c1.9-1.9,5.8-5.8,9.2-8.6,14.3-11.5,23.5-32.9,23.5-54.5v-27.6h34.2v27.6c0,31.9-13.9,63-36.2,81.1-1.4,1.2-3.8,3.4-6.3,6-7.1,7.1-11,16.5-11,26.1,0,20.1,16.3,36.5,36.4,36.5v34.2Z"/>
</svg>