<?xml version="1.0" encoding="UTF-8"?>
<svg id="Layer_1" xmlns="http://www.w3.org/2000/svg" version="1.1" viewBox="0 0 1000 1000">
  <!-- Generator: Adobe Illustrator 29.2.1, SVG Export Plug-In . SVG Version: 2.1.0 Build 116)  -->
  <defs>
    <style>
      .st0 {
        fill: #4999d5;
      }

      .st1 {
        fill: #242d3c;
      }

      .st2 {
        fill: #fdc800;
      }

      .st3 {
        fill: #fff;
      }

      .st4 {
        fill: #ff8d39;
      }
    </style>
  </defs>
  <path class="st1" d="M893.1,776.8H198.3v-417.2c0-10,3.9-19.5,11-26.6,7-7.1,16.5-11,26.6-11h619.5c10,0,19.5,3.9,26.6,11,7.2,7.2,11.1,16.7,11.1,26.6v417.2ZM229.3,745.7h632.8v-386.2c0-1.7-.7-3.4-2-4.7-1.2-1.2-2.9-1.9-4.7-1.9H235.9c-1,0-3,.3-4.6,1.9-1.7,1.7-2,3.5-2,4.7v386.2Z"/>
  <path class="st1" d="M839.9,776.8H251.6v-401.6h588.3v401.6ZM282.6,745.7h526.3v-339.5H282.6v339.5Z"/>
  <path class="st1" d="M915.5,835.8H175.9c-12,0-23.3-4.7-31.8-13.1-8.5-8.5-13.2-19.8-13.2-31.9v-45h829.8v45c0,12.1-4.7,23.4-13.2,31.9-8.5,8.5-19.8,13.2-31.9,13.2ZM161.8,776.8v14c0,3.8,1.5,7.3,4.1,9.9,2.7,2.6,6.2,4.1,9.9,4.1h739.7c3.8,0,7.3-1.5,10-4.1,2.6-2.6,4.1-6.1,4.1-9.9v-14H161.8Z"/>
  <rect class="st2" x="39.4" y="451.9" width="368.4" height="248.1"/>
  <rect class="st3" x="130.6" y="553.7" width="31" height="61.6"/>
  <rect class="st3" x="79" y="597" width="31" height="18.3"/>
  <rect class="st3" x="182.3" y="577.1" width="31" height="38.2"/>
  <rect class="st3" x="233.9" y="523.5" width="31" height="91.8"/>
  <rect class="st3" x="285.6" y="545.3" width="31" height="70"/>
  <rect class="st3" x="337.2" y="497.5" width="31" height="117.9"/>
  <rect class="st0" x="79" y="633.9" width="289.2" height="31"/>
  <rect class="st4" x="481.3" y="198.7" width="479.2" height="314"/>
  <polygon class="st3" points="566.7 421.8 544.7 399.8 629.1 315.4 684.2 370.5 757.7 297.1 812.8 352.1 875.2 289.7 897.2 311.6 812.8 396 757.7 340.9 684.2 414.4 629.2 359.3 566.7 421.8"/>
  <polygon class="st3" points="901.7 356.9 870.7 356.9 870.7 316.1 830 316.1 830 285.1 901.7 285.1 901.7 356.9"/>
  <path class="st1" d="M655.7,698.5c-35.9,0-65.1-29.2-65.1-65.1s29.2-65.1,65.1-65.1,65.1,29.2,65.1,65.1-29.2,65.1-65.1,65.1ZM655.7,599.2c-18.8,0-34.1,15.3-34.1,34.1s15.3,34.1,34.1,34.1,34.1-15.3,34.1-34.1-15.3-34.1-34.1-34.1Z"/>
  <path class="st1" d="M322.6,269.6c-29.1,0-52.7-23.7-52.7-52.7s23.6-52.7,52.7-52.7,52.7,23.6,52.7,52.7-23.7,52.7-52.7,52.7ZM322.6,195.2c-12,0-21.7,9.7-21.7,21.7s9.7,21.7,21.7,21.7,21.7-9.7,21.7-21.7-9.7-21.7-21.7-21.7Z"/>
</svg>