<?xml version="1.0" encoding="UTF-8"?>
<svg id="Layer_1" xmlns="http://www.w3.org/2000/svg" version="1.1" viewBox="0 0 1000 1000">
  <!-- Generator: Adobe Illustrator 29.2.1, SVG Export Plug-In . SVG Version: 2.1.0 Build 116)  -->
  <defs>
    <style>
      .st0 {
        fill: #4999d5;
      }

      .st1 {
        fill: #242d3c;
      }

      .st2 {
        fill: #0054a1;
      }

      .st3 {
        fill: #fff;
      }
    </style>
  </defs>
  <path class="st1" d="M909.7,788.5H185.5v-434.8c0-10.4,4.1-20.3,11.5-27.7,7.3-7.4,17.2-11.5,27.7-11.5h645.7c10.4,0,20.3,4.1,27.7,11.5,7.5,7.5,11.5,17.4,11.5,27.8v434.8ZM217.9,756.1h659.6v-402.5c0-1.8-.7-3.6-2.1-4.9-1.3-1.2-3-2-4.9-2H224.8c-1.1,0-3.1.3-4.8,2-1.8,1.7-2.1,3.6-2.1,4.9v402.5Z"/>
  <path class="st1" d="M854.2,788.5H241.1v-418.6h613.2v418.6ZM273.4,756.1h548.5v-353.9H273.4v353.9Z"/>
  <path class="st1" d="M933.1,850H162.2c-12.5,0-24.2-4.9-33.2-13.7-8.9-8.9-13.8-20.7-13.8-33.3v-47h864.8v47c0,12.6-4.9,24.4-13.8,33.2-8.9,8.8-20.7,13.7-33.2,13.7ZM147.5,788.5v14.6c0,3.9,1.5,7.6,4.3,10.3,2.8,2.7,6.5,4.3,10.4,4.3h770.9c3.9,0,7.6-1.5,10.4-4.3,2.7-2.7,4.3-6.4,4.3-10.3v-14.6H147.5Z"/>
  <rect class="st2" x="19.9" y="449.9" width="384" height="258.6"/>
  <rect class="st3" x="115" y="556" width="32.3" height="64.2"/>
  <rect class="st3" x="61.2" y="601.1" width="32.3" height="19.1"/>
  <rect class="st3" x="168.9" y="580.4" width="32.3" height="39.8"/>
  <rect class="st3" x="222.7" y="524.5" width="32.3" height="95.7"/>
  <rect class="st3" x="276.5" y="547.3" width="32.3" height="73"/>
  <rect class="st3" x="330.3" y="497.4" width="32.3" height="122.8"/>
  <rect class="st0" x="61.2" y="639.5" width="301.5" height="32.3"/>
  <rect class="st0" x="480.6" y="186" width="499.5" height="327.3"/>
  <polygon class="st3" points="569.5 418.5 546.6 395.6 634.6 307.6 692 365 768.6 288.5 826 345.9 891.1 280.8 914 303.6 826 391.6 768.6 334.2 692 410.8 634.6 353.3 569.5 418.5"/>
  <polygon class="st3" points="918.7 350.8 886.4 350.8 886.4 308.4 843.9 308.4 843.9 276 918.7 276 918.7 350.8"/>
  <path class="st1" d="M662.3,706.8c-37.4,0-67.9-30.5-67.9-67.9s30.5-67.9,67.9-67.9,67.9,30.5,67.9,67.9-30.5,67.9-67.9,67.9ZM662.3,603.4c-19.6,0-35.6,15.9-35.6,35.6s15.9,35.6,35.6,35.6,35.6-15.9,35.6-35.6-16-35.6-35.6-35.6Z"/>
  <path class="st1" d="M315.1,259.9c-30.3,0-55-24.7-55-55s24.6-54.9,55-54.9,55,24.6,55,54.9-24.7,55-55,55ZM315.1,182.3c-12.5,0-22.6,10.2-22.6,22.6s10.1,22.6,22.6,22.6,22.6-10.2,22.6-22.6-10.1-22.6-22.6-22.6Z"/>
</svg>