<?xml version="1.0" encoding="UTF-8"?>
<svg id="Layer_1" xmlns="http://www.w3.org/2000/svg" version="1.1" viewBox="0 0 1000 1000">
  <!-- Generator: Adobe Illustrator 29.2.1, SVG Export Plug-In . SVG Version: 2.1.0 Build 116)  -->
  <defs>
    <style>
      .st0 {
        fill: #4999d5;
      }

      .st1 {
        fill: #242d3c;
      }

      .st2 {
        fill: #ff8d39;
      }
    </style>
  </defs>
  <polygon class="st1" points="812.8 961.4 670.3 961.4 670.3 929.4 780.8 929.4 780.8 474.8 812.8 474.8 812.8 961.4"/>
  <polygon class="st1" points="610.6 966.3 478.9 911.8 491.2 882.2 593.3 924.5 782.1 468.7 811.6 481 610.6 966.3"/>
  <path class="st2" d="M652.3,304.1l-50.5-95.1c-10.4-17.8-15.9-38.1-15.9-58.8,0-64.3,52.3-116.5,116.5-116.5v32c-46.6,0-84.5,37.9-84.5,84.6s4.1,30,11.7,42.9l.7,1.3,50.3,94.7-28.3,15Z"/>
  <path class="st0" d="M812.8,253.9h-220.9l-410.9,410.9,220.9,220.9,410.9-410.8v-220.9ZM728.4,390.5c-14.4,14.4-37.7,14.4-52.1,0-14.4-14.4-14.4-37.7,0-52.1,14.4-14.4,37.7-14.4,52.1,0,14.4,14.4,14.4,37.7,0,52.1Z"/>
  <path class="st2" d="M716.5,371.9l-28.3-15,86.9-163.7c7.7-13,11.7-27.8,11.7-42.9,0-46.6-37.9-84.6-84.6-84.6v-32c64.3,0,116.5,52.3,116.5,116.5s-5.6,41.3-16.2,59.2l-86.2,162.4Z"/>
</svg>