<?xml version="1.0" encoding="UTF-8"?>
<svg id="Layer_1" xmlns="http://www.w3.org/2000/svg" version="1.1" viewBox="0 0 1000 1000">
  <!-- Generator: Adobe Illustrator 29.2.1, SVG Export Plug-In . SVG Version: 2.1.0 Build 116)  -->
  <defs>
    <style>
      .st0 {
        fill: #4999d5;
      }

      .st1 {
        fill: #242d3c;
      }
    </style>
  </defs>
  <polygon class="st1" points="820.7 973 674.6 973 674.6 940.2 787.9 940.2 787.9 474.2 820.7 474.2 820.7 973"/>
  <polygon class="st1" points="613.4 978 478.4 922.1 491 891.8 595.6 935.2 789.1 467.9 819.4 480.5 613.4 978"/>
  <path class="st1" d="M656.1,299.2l-51.8-97.5c-10.7-18.2-16.3-39.1-16.3-60.3,0-65.9,53.6-119.5,119.5-119.5v32.8c-47.8,0-86.7,38.9-86.7,86.7s4.2,30.7,12,44l.7,1.3,51.5,97-29,15.4Z"/>
  <path class="st0" d="M820.7,247.8h-226.4l-421.2,421.2,226.4,226.4,421.2-421.2v-226.5ZM734.2,387.7c-14.8,14.8-38.7,14.8-53.4,0-14.8-14.8-14.8-38.7,0-53.4,14.8-14.8,38.7-14.8,53.4,0,14.8,14.8,14.8,38.7,0,53.4Z"/>
  <path class="st1" d="M721.9,368.7l-29-15.4,89.1-167.8c7.9-13.3,12-28.5,12-44,0-47.8-38.9-86.7-86.7-86.7V22c65.9,0,119.5,53.6,119.5,119.5s-5.7,42.4-16.6,60.7l-88.4,166.5Z"/>
</svg>