<?xml version="1.0" encoding="UTF-8"?>
<svg id="Layer_1" xmlns="http://www.w3.org/2000/svg" version="1.1" viewBox="0 0 1000 1000">
  <!-- Generator: Adobe Illustrator 29.2.1, SVG Export Plug-In . SVG Version: 2.1.0 Build 116)  -->
  <defs>
    <style>
      .st0 {
        fill: #4999d5;
      }

      .st1 {
        fill: #242d3c;
      }

      .st2 {
        fill: #fdc800;
      }

      .st3 {
        fill: #fff;
      }

      .st4 {
        fill: #ff8d39;
      }
    </style>
  </defs>
  <path class="st0" d="M740.8,395.4c0,83.9-68.1,152-152,152s-152-68.1-152-152,68.1-152,152-152,152,68.1,152,152Z"/>
  <rect class="st2" x="18.7" y="494.6" width="194.5" height="395"/>
  <rect class="st3" x="145.6" y="796.2" width="33.8" height="33.8"/>
  <path class="st1" d="M571.3,939c-14.6,0-28.9-2.6-42.7-7.8l-252.5-101.2h-62.9v-33.8h69.4l258.1,103.5c12.6,4.7,26.1,6.4,39.9,5,13.8-1.4,26.7-5.9,38.4-13.3l317.9-208.3c5.7-4.2,9.3-10.3,10.4-17.3,1.1-7.1-.7-14.2-5-19.9l-.5-.7c-4-5.3-9.8-8.9-16.3-10.1-6.5-1.2-13.2,0-18.8,3.6l-169.4,105.4-17.9-28.7,169.4-105.4c12.8-8,28-10.8,42.8-8.1,14.8,2.7,28,10.9,37.1,22.9l.5.7c9.8,13,13.9,29.1,11.5,45.2-2.4,16.1-11,30.3-24.3,39.9l-.6.4-318.5,208.7c-16.3,10.4-34.2,16.5-53.2,18.5-4.3.4-8.6.7-12.9.7Z"/>
  <path class="st1" d="M452.4,782.8h-33.8c0-32.7,26.6-59.2,59.2-59.2h222.3c14,0,25.5-11.4,25.5-25.5s-11.4-25.5-25.5-25.5h-227.3l-81.7-52.3c-16.5-10.5-34.3-18.6-53-24.1-18.7-5.5-38.1-8.3-57.7-8.3h-67.3v-33.8h67.3c22.8,0,45.4,3.2,67.2,9.6,21.8,6.4,42.6,15.8,61.8,28.1l73.4,47h217.4c32.7,0,59.2,26.6,59.2,59.2s-26.6,59.2-59.2,59.2h-222.3c-14,0-25.5,11.4-25.5,25.5Z"/>
  <rect class="st1" x="446" y="180.4" width="33.8" height="50.7"/>
  <rect class="st1" x="652" y="117.9" width="33.8" height="77.7"/>
  <rect class="st4" x="571.9" y="61" width="33.8" height="111.5"/>
  <path class="st3" d="M685.1,405.5c-.3,61.5-31.6,105.4-109.5,105.4s-11.2-.3-16.3-1v-100.7l-29.9,10.9v-18l29.9-10.9v-17.3l-29.9,10.9v-18l29.9-10.9v-67h28.2v56.8l59.8-21.4v18l-59.8,21.4v17.3l59.5-21.4v18l-59.5,21.4v87.4c37.4-1.7,69.4-23.8,70.7-80.9h26.9Z"/>
</svg>