<?xml version="1.0" encoding="UTF-8"?>
<svg id="Layer_1" xmlns="http://www.w3.org/2000/svg" version="1.1" viewBox="0 0 1000 1000">
  <!-- Generator: Adobe Illustrator 29.2.1, SVG Export Plug-In . SVG Version: 2.1.0 Build 116)  -->
  <defs>
    <style>
      .st0 {
        fill: #4999d5;
      }

      .st1 {
        fill: #242d3c;
      }

      .st2 {
        fill: #0054a1;
      }

      .st3 {
        fill: #fff;
      }
    </style>
  </defs>
  <path class="st0" d="M738.3,396.5c0,83.1-67.4,150.4-150.4,150.4s-150.4-67.4-150.4-150.4,67.4-150.4,150.4-150.4,150.4,67.4,150.4,150.4Z"/>
  <rect class="st2" x="23.6" y="494.7" width="192.5" height="390.9"/>
  <rect class="st3" x="149.3" y="793.2" width="33.4" height="33.4"/>
  <path class="st1" d="M570.6,934.4c-14.4,0-28.6-2.6-42.3-7.7l-249.9-100.2h-62.3v-33.4h68.7l255.5,102.4c12.4,4.6,25.9,6.4,39.5,4.9,13.6-1.4,26.4-5.8,38-13.2l314.6-206.1c5.6-4.2,9.2-10.2,10.3-17.1,1.1-7-.7-14-5-19.7l-.5-.7c-3.9-5.2-9.7-8.8-16.1-10-6.4-1.2-13.1,0-18.6,3.5l-167.6,104.3-17.7-28.4,167.6-104.3c12.7-7.9,27.7-10.7,42.4-8,14.7,2.7,27.7,10.8,36.7,22.7l.5.7c9.7,12.9,13.8,28.8,11.4,44.8-2.4,16-10.9,30-24,39.5l-.6.4-315.2,206.5c-16.2,10.2-33.8,16.4-52.6,18.3-4.3.4-8.5.7-12.7.7Z"/>
  <path class="st1" d="M452.9,779.9h-33.4c0-32.3,26.3-58.6,58.6-58.6h220c13.9,0,25.2-11.3,25.2-25.2s-11.3-25.2-25.2-25.2h-224.9l-80.9-51.8c-16.3-10.4-34-18.5-52.5-23.9-18.5-5.4-37.7-8.2-57.1-8.2h-66.6v-33.4h66.6c22.5,0,44.9,3.2,66.5,9.5,21.6,6.3,42.1,15.7,61.1,27.8l72.6,46.5h215.2c32.3,0,58.6,26.3,58.6,58.6s-26.3,58.6-58.6,58.6h-220c-13.9,0-25.2,11.3-25.2,25.2Z"/>
  <rect class="st1" x="446.5" y="183.7" width="33.4" height="50.2"/>
  <rect class="st1" x="650.4" y="121.8" width="33.4" height="76.9"/>
  <rect class="st1" x="571.2" y="65.6" width="33.4" height="110.3"/>
  <path class="st3" d="M683.2,406.5c-.3,60.9-31.3,104.3-108.4,104.3s-11.1-.3-16.2-1v-99.6l-29.6,10.8v-17.8l29.6-10.8v-17.2l-29.6,10.8v-17.8l29.6-10.8v-66.3h27.9v56.2l59.2-21.2v17.8l-59.2,21.2v17.2l58.9-21.2v17.8l-58.9,21.2v86.5c37-1.7,68.7-23.6,70-80.1h26.6Z"/>
</svg>