<?xml version="1.0" encoding="UTF-8"?>
<svg id="Layer_1" xmlns="http://www.w3.org/2000/svg" version="1.1" viewBox="0 0 471 402">
  <!-- Generator: Adobe Illustrator 29.2.1, SVG Export Plug-In . SVG Version: 2.1.0 Build 116)  -->
  <defs>
    <style>
      .st0 {
        fill: #4999d5;
      }

      .st1 {
        fill: #242d3c;
      }

      .st2 {
        fill: #0054a1;
      }

      .st3 {
        fill: #fff;
      }
    </style>
  </defs>
  <path class="st0" d="M299.9,171.7c0,22.4-18.2,40.6-40.6,40.6s-40.6-18.2-40.6-40.6,18.2-40.6,40.6-40.6,40.6,18.2,40.6,40.6Z"/>
  <path class="st3" d="M262.2,193.8h-5.9c-3.6,0-6.9-1.4-9.4-3.9-2.5-2.5-3.9-5.9-3.9-9.4h9c0,1.1.4,2.2,1.3,3,.8.8,1.9,1.2,3,1.2h5.9c1.1,0,2.2-.5,3.1-1.3.8-.8,1.2-1.9,1.2-3s-.4-2.2-1.3-3c-.8-.8-1.9-1.3-3-1.3h-5.9c-3.6,0-6.9-1.4-9.4-3.9-2.5-2.5-3.9-5.9-3.9-9.4s1.4-6.9,3.9-9.4c2.5-2.5,5.9-3.9,9.4-3.9h5.9c3.5,0,6.9,1.4,9.4,3.9,2.5,2.5,3.9,5.9,3.9,9.4h-9c0-1.1-.4-2.2-1.3-3-.8-.8-1.9-1.2-3-1.2h-5.9c-1.1,0-2.2.4-3,1.3-.8.8-1.2,1.9-1.2,3s.4,2.2,1.2,3c.8.8,1.9,1.3,3,1.3h5.9c3.6,0,6.9,1.4,9.4,3.9,2.5,2.5,3.9,5.9,3.9,9.4s-1.4,6.9-3.9,9.4c-2.6,2.5-5.9,3.9-9.4,3.9Z"/>
  <rect class="st3" x="254.7" y="147" width="9" height="7"/>
  <rect class="st3" x="254.7" y="189.3" width="9" height="7"/>
  <rect class="st2" x="106.8" y="198.2" width="52" height="105.6"/>
  <rect class="st3" x="140.7" y="278.8" width="9" height="9"/>
  <path class="st1" d="M254.6,317c-3.9,0-7.7-.7-11.4-2.1l-67.5-27.1h-16.8v-9h18.6l69,27.7c3.4,1.3,7,1.7,10.7,1.3,3.7-.4,7.1-1.6,10.3-3.6l85-55.7c1.5-1.1,2.5-2.8,2.8-4.6.3-1.9-.2-3.8-1.3-5.3v-.2c-1.2-1.4-2.7-2.4-4.5-2.7-1.7-.3-3.5,0-5,1l-45.3,28.2-4.8-7.7,45.3-28.2c3.4-2.1,7.5-2.9,11.4-2.2,4,.7,7.5,2.9,9.9,6.1v.2c2.8,3.5,3.9,7.8,3.2,12.1-.6,4.3-2.9,8.1-6.5,10.7h-.2c0,.1-85.2,55.9-85.2,55.9-4.4,2.8-9.1,4.4-14.2,5-1.1.1-2.3.2-3.4.2Z"/>
  <path class="st1" d="M222.8,275.3h-9c0-8.7,7.1-15.8,15.8-15.8h59.5c3.8,0,6.8-3.1,6.8-6.8s-3.1-6.8-6.8-6.8h-60.8l-21.9-14c-4.4-2.8-9.2-5-14.2-6.5-5-1.5-10.2-2.2-15.4-2.2h-18v-9h18c6.1,0,12.1.9,18,2.6,5.8,1.7,11.4,4.2,16.5,7.5l19.6,12.6h58.1c8.7,0,15.8,7.1,15.8,15.8s-7.1,15.8-15.8,15.8h-59.5c-3.8,0-6.8,3.1-6.8,6.8Z"/>
  <rect class="st1" x="221" y="116.9" width="9" height="13.5"/>
  <rect class="st1" x="276.1" y="100.2" width="9" height="20.8"/>
  <rect class="st1" x="254.7" y="85" width="9" height="29.8"/>
</svg>