<?xml version="1.0" encoding="UTF-8"?>
<svg id="Layer_1" xmlns="http://www.w3.org/2000/svg" version="1.1" viewBox="0 0 1000 1000">
  <!-- Generator: Adobe Illustrator 29.2.1, SVG Export Plug-In . SVG Version: 2.1.0 Build 116)  -->
  <defs>
    <style>
      .st0 {
        fill: #242d3c;
      }

      .st1 {
        fill: #fff;
      }

      .st2 {
        fill: #ff8d39;
      }
    </style>
  </defs>
  <rect class="st2" x="55.9" y="150.3" width="608.5" height="699.4"/>
  <polygon class="st1" points="278.7 150.3 278.7 352.3 299 331.9 319.4 352.3 339.7 331.9 360.1 352.3 380.5 331.9 400.8 352.3 421.1 331.9 441.6 352.3 441.6 150.3 278.7 150.3"/>
  <path class="st0" d="M682.1,867.5H38.1V132.5h644v734.9ZM73.6,831.9h573V168.1H73.6v663.9Z"/>
  <rect class="st0" x="734.3" y="611" width="139.9" height="35.5"/>
  <rect class="st0" x="734.3" y="674" width="139.9" height="35.5"/>
  <rect class="st0" x="734.3" y="736.9" width="139.9" height="35.5"/>
  <path class="st0" d="M961.9,867.5h-315.3V132.5h315.3v734.9ZM682.1,831.9h244.2V168.1h-244.2v663.9Z"/>
  <rect class="st1" x="175.5" y="579.8" width="35.5" height="138.2"/>
  <rect class="st1" x="315.8" y="579.8" width="35.5" height="138.2"/>
  <rect class="st1" x="147.6" y="736.9" width="231.8" height="35.5"/>
  <polygon class="st1" points="371.2 642.6 333.6 605 295.9 642.6 270.8 617.5 333.6 554.7 396.4 617.5 371.2 642.6"/>
  <polygon class="st1" points="231 642.6 193.3 605 155.7 642.6 130.5 617.5 193.3 554.7 256.1 617.5 231 642.6"/>
</svg>