<?xml version="1.0" encoding="UTF-8"?>
<svg id="Layer_1" xmlns="http://www.w3.org/2000/svg" version="1.1" viewBox="0 0 1000 1000">
  <!-- Generator: Adobe Illustrator 29.2.1, SVG Export Plug-In . SVG Version: 2.1.0 Build 116)  -->
  <defs>
    <style>
      .st0 {
        fill: #4999d5;
      }

      .st1 {
        fill: #242d3c;
      }
    </style>
  </defs>
  <polygon class="st1" points="859.4 977.9 140.6 977.9 140.6 79.6 442.6 79.6 442.6 116.3 177.3 116.3 177.3 941.1 822.7 941.1 822.7 116.3 557.4 116.3 557.4 79.6 859.4 79.6 859.4 977.9"/>
  <polygon class="st1" points="794.8 913.2 205.2 913.2 205.2 97.9 242 97.9 242 876.5 758 876.5 758 97.9 794.8 97.9 794.8 913.2"/>
  <path class="st1" d="M644,231.2h-288V79.6h70.4c8.2-33,38.1-57.4,73.6-57.4s65.3,24.5,73.6,57.4h70.4v151.6ZM392.7,194.4h214.5v-78.1h-68.2v-18.4c0-21.5-17.5-39.1-39.1-39.1s-39.1,17.5-39.1,39.1v18.4h-68.2v78.1Z"/>
  <rect class="st1" x="500" y="667.8" width="206.5" height="36.8"/>
  <rect class="st1" x="500" y="741.3" width="103.2" height="36.8"/>
  <rect class="st1" x="500" y="329.6" width="206.5" height="36.8"/>
  <rect class="st1" x="500" y="403.1" width="103.2" height="36.8"/>
  <rect class="st1" x="500" y="498.7" width="206.5" height="36.8"/>
  <rect class="st1" x="500" y="572.2" width="103.2" height="36.8"/>
  <path class="st0" d="M425.8,384.8c0,36.5-29.6,66.2-66.2,66.2s-66.2-29.6-66.2-66.2,29.6-66.2,66.2-66.2,66.2,29.6,66.2,66.2Z"/>
  <polygon class="st1" points="359.7 431 309.9 381.3 335.9 355.3 359.7 379 420.2 318.5 446.2 344.5 359.7 431"/>
  <path class="st0" d="M425.8,553.9c0,36.5-29.6,66.2-66.2,66.2s-66.2-29.6-66.2-66.2,29.6-66.2,66.2-66.2,66.2,29.6,66.2,66.2Z"/>
  <polygon class="st1" points="359.7 600.1 309.9 550.4 335.9 524.4 359.7 548.1 420.2 487.6 446.2 513.6 359.7 600.1"/>
  <path class="st0" d="M425.8,722.9c0,36.5-29.6,66.2-66.2,66.2s-66.2-29.6-66.2-66.2,29.6-66.2,66.2-66.2,66.2,29.6,66.2,66.2Z"/>
  <polygon class="st1" points="359.7 769.2 309.9 719.4 335.9 693.5 359.7 717.2 420.2 656.7 446.2 682.7 359.7 769.2"/>
</svg>