<?xml version="1.0" encoding="UTF-8"?>
<svg id="Layer_1" xmlns="http://www.w3.org/2000/svg" version="1.1" viewBox="0 0 1000 1000">
  <!-- Generator: Adobe Illustrator 29.2.1, SVG Export Plug-In . SVG Version: 2.1.0 Build 116)  -->
  <defs>
    <style>
      .st0 {
        fill: #4999d5;
      }

      .st1 {
        fill: #242d3c;
      }

      .st2 {
        fill: #fdc800;
      }

      .st3 {
        fill: #ff8d39;
      }
    </style>
  </defs>
  <polygon class="st1" points="862.6 982.1 137.4 982.1 137.4 75.8 442.1 75.8 442.1 112.9 174.5 112.9 174.5 945 825.5 945 825.5 112.9 558 112.9 558 75.8 862.6 75.8 862.6 982.1"/>
  <polygon class="st1" points="797.4 916.9 202.6 916.9 202.6 94.4 239.7 94.4 239.7 879.8 760.3 879.8 760.3 94.4 797.4 94.4 797.4 916.9"/>
  <path class="st1" d="M645.3,228.8h-290.6V75.8h71.1c8.3-33.2,38.4-57.9,74.2-57.9s65.9,24.7,74.2,57.9h71.1v153ZM391.8,191.7h216.4v-78.8h-68.8v-18.6c0-21.7-17.7-39.4-39.4-39.4s-39.4,17.7-39.4,39.4v18.6h-68.8v78.8Z"/>
  <rect class="st1" x="500" y="669.3" width="208.3" height="37.1"/>
  <rect class="st1" x="500" y="743.5" width="104.2" height="37.1"/>
  <rect class="st1" x="500" y="328.1" width="208.3" height="37.1"/>
  <rect class="st1" x="500" y="402.3" width="104.2" height="37.1"/>
  <rect class="st1" x="500" y="498.7" width="208.3" height="37.1"/>
  <rect class="st1" x="500" y="572.9" width="104.2" height="37.1"/>
  <path class="st3" d="M425.2,383.7c0,36.9-29.9,66.7-66.8,66.7s-66.7-29.9-66.7-66.7,29.9-66.8,66.7-66.8,66.8,29.9,66.8,66.8Z"/>
  <polygon class="st1" points="358.4 430.4 308.2 380.2 334.4 354 358.4 378 419.5 316.9 445.7 343.1 358.4 430.4"/>
  <path class="st2" d="M425.2,554.3c0,36.9-29.9,66.7-66.8,66.7s-66.7-29.9-66.7-66.7,29.9-66.8,66.7-66.8,66.8,29.9,66.8,66.8Z"/>
  <polygon class="st1" points="358.4 601 308.2 550.8 334.4 524.6 358.4 548.6 419.5 487.5 445.7 513.7 358.4 601"/>
  <path class="st0" d="M425.2,724.9c0,36.9-29.9,66.7-66.8,66.7s-66.7-29.9-66.7-66.7,29.9-66.8,66.7-66.8,66.8,29.9,66.8,66.8Z"/>
  <polygon class="st1" points="358.4 771.6 308.2 721.4 334.4 695.2 358.4 719.1 419.5 658.1 445.7 684.3 358.4 771.6"/>
</svg>