<?xml version="1.0" encoding="UTF-8"?>
<svg id="Layer_1" xmlns="http://www.w3.org/2000/svg" version="1.1" viewBox="0 0 1000 1000">
  <!-- Generator: Adobe Illustrator 29.2.1, SVG Export Plug-In . SVG Version: 2.1.0 Build 116)  -->
  <defs>
    <style>
      .st0 {
        fill: #4999d5;
      }

      .st1 {
        fill: #242d3c;
      }

      .st2 {
        fill: #0054a1;
      }
    </style>
  </defs>
  <path class="st1" d="M903.5,798.1H96.5v-485c0-11.2,4.4-21.7,12.3-29.6,7.8-7.9,18.3-12.3,29.6-12.3h723.2c11.2,0,21.7,4.4,29.6,12.3,7.9,8,12.3,18.5,12.3,29.6v485ZM128.6,765.9h742.7v-452.8c0-2.6-1-5-2.9-6.9-1.8-1.8-4.3-2.9-6.9-2.9H138.4c-2.6,0-5,1-6.8,2.8-1.9,1.9-2.9,4.4-2.9,6.9v452.8Z"/>
  <rect class="st0" x="174.7" y="349.4" width="650.5" height="432.6"/>
  <path class="st1" d="M931.7,867H68.3c-13.4,0-26.1-5.2-35.7-14.8-9.6-9.6-14.8-22.3-14.8-35.8v-50.5h964.5v50.5c0,13.5-5.3,26.2-14.8,35.8-9.6,9.5-22.3,14.8-35.8,14.8ZM49.9,798.1v18.4c0,4.9,1.9,9.6,5.4,13,3.5,3.5,8.1,5.4,13,5.4h863.4c4.9,0,9.6-1.9,13.1-5.4,3.4-3.4,5.4-8.1,5.4-13v-18.4H49.9Z"/>
  <polygon class="st2" points="500 287.3 291 149 291 425.5 709 425.5 709 149 500 287.3"/>
  <path class="st1" d="M725.1,441.6h-450.1V133h450.1v308.7ZM307.1,409.5h385.8v-244.3h-385.8v244.3Z"/>
  <polygon class="st1" points="500 306.6 282.1 162.4 299.9 135.6 500 268 700.1 135.6 717.9 162.4 500 306.6"/>
  <rect class="st1" x="630.1" y="308.6" width="32.2" height="150.7" transform="translate(-30.6 711) rotate(-56.5)"/>
  <rect class="st1" x="278.5" y="367.9" width="150.7" height="32.2" transform="translate(-153.1 258.9) rotate(-33.5)"/>
  <rect class="st1" x="345.7" y="517" width="32.2" height="115.8"/>
  <rect class="st1" x="622.2" y="517" width="32.2" height="115.8"/>
  <rect class="st1" x="483.9" y="574.8" width="32.1" height="115.7"/>
</svg>