<?xml version="1.0" encoding="UTF-8"?>
<svg id="Layer_1" xmlns="http://www.w3.org/2000/svg" version="1.1" viewBox="0 0 1000 1000">
  <!-- Generator: Adobe Illustrator 29.2.1, SVG Export Plug-In . SVG Version: 2.1.0 Build 116)  -->
  <defs>
    <style>
      .st0 {
        fill: #4999d5;
      }

      .st1 {
        fill: #242d3c;
      }

      .st2 {
        fill: #0054a1;
      }

      .st3 {
        fill: #fff;
      }
    </style>
  </defs>
  <path class="st1" d="M327.7,979.8c-154.6,0-280.4-125.8-280.4-280.5s82.2-234.4,201.6-269.1v-179.1h157.7v179.1c119.4,34.7,201.6,143.5,201.6,269.1s-125.8,280.5-280.5,280.5ZM283.1,285.4v171.5l-13.1,3.2c-111,26.7-188.5,125-188.5,239.3s110.4,246.2,246.2,246.2,246.2-110.4,246.2-246.2-77.5-212.6-188.5-239.3l-13.1-3.2v-171.5h-89.1Z"/>
  <path class="st1" d="M157.3,651.8l-33-9.2c16-57.6,55.7-105.8,109.2-132.2l15.2,30.7c-44.7,22.1-78,62.4-91.3,110.6Z"/>
  <path class="st0" d="M117.2,699.3c0,116,94.4,210.5,210.4,210.5s210.5-94.4,210.5-210.5H117.2Z"/>
  <path class="st3" d="M327.7,874v-34.3c59.2,0,112.4-37.5,132.3-93.3l32.3,11.5c-24.8,69.4-91,116.1-164.6,116.1Z"/>
  <path class="st1" d="M404.4,285.4h-153.5c-26.5,0-48.1-21.6-48.1-48.1s21.6-48,48.1-48h153.5c26.5,0,48,21.5,48,48s-21.5,48.1-48,48.1ZM250.9,223.6c-7.6,0-13.8,6.2-13.8,13.7s6.2,13.8,13.8,13.8h153.5c7.6,0,13.7-6.2,13.7-13.8s-6.2-13.7-13.7-13.7h-153.5Z"/>
  <path class="st2" d="M743.8,612.4v228.1c0,14.5,5.5,28.9,16.5,39.9,11,11,25.4,16.5,39.9,16.5s28.8-5.5,39.9-16.5c11-11,16.5-25.4,16.5-39.9v-228.1h-112.7Z"/>
  <path class="st1" d="M800.1,914c-19.6,0-38.1-7.6-52-21.5-13.9-13.9-21.5-32.4-21.5-52v-346.8h34.3v346.8c0,10.5,4.1,20.4,11.5,27.8,7.4,7.4,17.3,11.5,27.7,11.5s20.4-4.1,27.8-11.5c7.4-7.4,11.4-17.2,11.4-27.7v-346.8h34.3v346.8c0,19.6-7.6,38.1-21.5,52-14,13.9-32.4,21.5-52,21.5Z"/>
  <rect class="st1" x="710.9" y="476.6" width="178.5" height="34.3"/>
  <rect class="st1" x="647.5" y="691.9" width="305.3" height="34.3"/>
  <rect class="st1" x="898.1" y="671.4" width="34.3" height="308.4"/>
  <rect class="st1" x="667.9" y="671.4" width="34.3" height="308.4"/>
  <path class="st1" d="M817.3,559.8h-34.3V84.6c0-8-3.1-15.6-8.8-21.3-5.7-5.7-13.2-8.8-21.3-8.8s-15.6,3.1-21.3,8.8c-5.7,5.7-8.8,13.3-8.8,21.3v28.8c0,17.2-6.7,33.3-18.9,45.5-12.2,12.2-28.4,18.9-45.5,18.9s-33.4-6.7-45.5-18.8c-12.2-12.2-18.9-28.3-18.9-45.5v-28.8c0-8.1-3.1-15.6-8.8-21.3-5.7-5.7-13.2-8.8-21.3-8.8s-15.6,3.1-21.3,8.8c-5.7,5.7-8.8,13.2-8.8,21.3v28.8c0,17.2-6.7,33.4-18.9,45.5-12.1,12.2-28.3,18.8-45.5,18.8s-33.3-6.7-45.5-18.8c-12.2-12.2-18.9-28.4-18.9-45.5v-28.8c0-8-3.1-15.6-8.8-21.3-5.7-5.7-13.3-8.8-21.3-8.8s-15.6,3.1-21.3,8.8c-5.7,5.7-8.8,13.2-8.8,21.3v475.2h-34.3V84.6c0-17.2,6.7-33.4,18.9-45.5,12.2-12.2,28.3-18.8,45.5-18.8s33.3,6.7,45.5,18.8c12.2,12.2,18.9,28.3,18.9,45.5v28.8c0,8,3.1,15.6,8.8,21.3,5.7,5.7,13.2,8.8,21.3,8.8s15.6-3.1,21.3-8.8c5.7-5.7,8.9-13.3,8.9-21.3v-28.8c0-17.2,6.7-33.3,18.8-45.5,12.2-12.2,28.4-18.9,45.5-18.9s33.3,6.7,45.5,18.8c12.2,12.1,18.9,28.3,18.9,45.5v28.8c0,8,3.1,15.6,8.8,21.3,5.7,5.7,13.2,8.8,21.3,8.8s15.6-3.1,21.3-8.8c5.7-5.7,8.8-13.2,8.8-21.3v-28.8c0-17.2,6.7-33.4,18.9-45.5,12.1-12.2,28.3-18.8,45.5-18.8s33.3,6.7,45.5,18.8c12.2,12.2,18.8,28.4,18.8,45.5v475.2Z"/>
</svg>