<?xml version="1.0" encoding="UTF-8"?>
<svg id="Layer_1" xmlns="http://www.w3.org/2000/svg" version="1.1" viewBox="0 0 1000 1000">
  <!-- Generator: Adobe Illustrator 29.2.1, SVG Export Plug-In . SVG Version: 2.1.0 Build 116)  -->
  <defs>
    <style>
      .st0 {
        fill: #4999d5;
      }

      .st1 {
        fill: #242d3c;
      }
    </style>
  </defs>
  <path class="st1" d="M961.5,773.7H38.5V141.9h922.9v631.8ZM77.2,735h845.6V180.5H77.2v554.5Z"/>
  <path class="st1" d="M961.5,180.5H38.5V16.6h922.9v163.9ZM77.2,141.9h845.6V55.3H77.2v86.6Z"/>
  <polygon class="st0" points="500 285.8 343.6 442.1 343.6 629.7 461.3 629.7 461.3 543.7 538.7 543.7 538.7 629.7 656.3 629.7 656.3 442.1 500 285.8"/>
  <polygon class="st1" points="672.2 485.4 500 313.1 327.7 485.4 300.4 458 500 258.4 699.6 458 672.2 485.4"/>
  <path class="st1" d="M500,983.4c-43,0-78.1-35-78.1-78.1s35-78.1,78.1-78.1,78.1,35,78.1,78.1-35,78.1-78.1,78.1ZM500,866c-21.7,0-39.4,17.7-39.4,39.4s17.7,39.4,39.4,39.4,39.4-17.7,39.4-39.4-17.7-39.4-39.4-39.4Z"/>
  <rect class="st1" x="558.7" y="886" width="381.7" height="38.7"/>
  <rect class="st1" x="59.6" y="886" width="381.7" height="38.7"/>
  <rect class="st1" x="480.6" y="754.3" width="38.7" height="92.3"/>
</svg>