<?xml version="1.0" encoding="UTF-8"?>
<svg id="Layer_1" xmlns="http://www.w3.org/2000/svg" version="1.1" viewBox="0 0 1000 1000">
  <!-- Generator: Adobe Illustrator 29.2.1, SVG Export Plug-In . SVG Version: 2.1.0 Build 116)  -->
  <defs>
    <style>
      .st0 {
        fill: #4999d5;
      }

      .st1 {
        fill: #242d3c;
      }

      .st2 {
        fill: #0054a1;
      }
    </style>
  </defs>
  <rect class="st0" x="272.1" y="247.3" width="378.7" height="369.3"/>
  <rect class="st1" x="349.2" y="414.3" width="301.6" height="35.2"/>
  <rect class="st1" x="419.7" y="344.5" width="160.7" height="35.2"/>
  <rect class="st1" x="349.2" y="484.2" width="301.6" height="35.2"/>
  <path class="st1" d="M650.8,770.8v-35.2c15.9,0,30.8-6.2,42.1-17.4,11.2-11.2,17.4-26.2,17.4-42.1s-6.2-30.8-17.4-42c-11.2-11.2-26.2-17.4-42.1-17.4h-17.6V16.2h17.6c25.3,0,49.1,9.9,66.9,27.7,17.9,17.9,27.7,41.6,27.7,66.9h-35.2c0-15.9-6.2-30.8-17.4-42-7-7-15.3-12-24.5-14.8v529.1c18.6,3.5,35.7,12.5,49.3,26.1,17.9,17.9,27.7,41.6,27.7,66.9s-9.8,49.1-27.7,66.9c-17.9,17.9-41.6,27.7-66.9,27.7Z"/>
  <rect class="st1" x="710.3" y="110.9" width="35.2" height="565.3"/>
  <path class="st1" d="M212.7,830.1h-35.2V187.9c0-25.3,9.9-49.1,27.7-66.9,17.9-17.9,41.6-27.7,66.9-27.7h378.7v35.2h-378.7c-15.9,0-30.8,6.2-42.1,17.4-11.2,11.2-17.4,26.2-17.4,42v642.2Z"/>
  <rect class="st1" x="254.6" y="110.9" width="35.2" height="642.2"/>
  <path class="st1" d="M822.5,924.7H272.1c-25.3,0-49-9.8-66.9-27.7-17.9-17.9-27.7-41.6-27.7-66.9s9.9-49.1,27.7-66.9c17.9-17.9,41.7-27.7,66.9-27.7h515.2V167h-59.5v-35.2h94.7v792.9ZM272.1,770.6c-15.9,0-30.8,6.2-42.1,17.4-11.2,11.2-17.4,26.2-17.4,42.1s6.2,30.8,17.4,42.1c11.2,11.2,26.2,17.4,42.1,17.4h515.2v-118.9H272.1Z"/>
  <polygon class="st2" points="361.5 830.1 272.1 830.1 272.1 983.8 316.7 939.1 361.5 983.8 361.5 830.1"/>
</svg>