<?xml version="1.0" encoding="UTF-8"?>
<svg id="Layer_1" xmlns="http://www.w3.org/2000/svg" version="1.1" viewBox="0 0 1000 1000">
  <!-- Generator: Adobe Illustrator 29.2.1, SVG Export Plug-In . SVG Version: 2.1.0 Build 116)  -->
  <defs>
    <style>
      .st0 {
        fill: #4999d5;
      }

      .st1 {
        fill: #242d3c;
      }

      .st2 {
        fill: #fdc800;
      }
    </style>
  </defs>
  <rect class="st0" x="281" y="257.1" width="364" height="355"/>
  <rect class="st1" x="355" y="417.7" width="289.9" height="33.8"/>
  <rect class="st1" x="422.8" y="350.5" width="154.5" height="33.8"/>
  <rect class="st1" x="355" y="484.8" width="289.9" height="33.8"/>
  <path class="st1" d="M645,760.3v-33.8c15.3,0,29.6-5.9,40.4-16.7,10.8-10.8,16.7-25.2,16.7-40.4s-5.9-29.6-16.7-40.4c-10.8-10.8-25.2-16.7-40.4-16.7h-16.9V34.9h16.9c24.3,0,47.2,9.5,64.3,26.6,17.2,17.2,26.6,40,26.6,64.3h-33.8c0-15.3-5.9-29.6-16.7-40.4-6.7-6.7-14.7-11.5-23.5-14.2v508.6c17.9,3.3,34.3,12,47.4,25.1,17.2,17.2,26.6,40,26.6,64.3s-9.5,47.2-26.6,64.3c-17.2,17.2-40,26.6-64.3,26.6Z"/>
  <rect class="st1" x="702.1" y="125.9" width="33.8" height="543.4"/>
  <path class="st1" d="M223.8,817.3h-33.8V200c0-24.3,9.5-47.2,26.7-64.3,17.2-17.2,40-26.7,64.3-26.7h364v33.8h-364c-15.3,0-29.6,6-40.4,16.8-10.8,10.8-16.7,25.1-16.7,40.4v617.3Z"/>
  <rect class="st1" x="264.1" y="125.9" width="33.8" height="617.3"/>
  <path class="st1" d="M810,908.3H281c-24.3,0-47.1-9.5-64.3-26.6-17.2-17.2-26.7-40-26.7-64.3s9.5-47.2,26.6-64.3c17.2-17.2,40.1-26.6,64.3-26.6h495.3V179.9h-57.2v-33.8h91v762.2ZM281,760.1c-15.3,0-29.6,6-40.4,16.7-10.8,10.8-16.7,25.2-16.7,40.4s6,29.6,16.7,40.4c10.8,10.8,25.2,16.7,40.4,16.7h495.3v-114.3h-495.3Z"/>
  <polygon class="st2" points="366.9 817.3 281 817.3 281 965.1 323.8 922.1 366.9 965.1 366.9 817.3"/>
</svg>