<?xml version="1.0" encoding="UTF-8"?>
<svg id="Layer_1" xmlns="http://www.w3.org/2000/svg" version="1.1" viewBox="0 0 1000 1000">
  <!-- Generator: Adobe Illustrator 29.2.1, SVG Export Plug-In . SVG Version: 2.1.0 Build 116)  -->
  <defs>
    <style>
      .st0 {
        fill: #4999d5;
      }

      .st1 {
        fill: #242d3c;
      }

      .st2 {
        fill: #0054a1;
      }
    </style>
  </defs>
  <rect class="st2" x="299.9" y="273" width="61.7" height="41.8"/>
  <polygon class="st0" points="185.3 465.8 299.9 465.8 299.9 363.6 245.3 363.6 185.3 465.8"/>
  <rect class="st2" x="47" y="515.9" width="906" height="32.4"/>
  <rect class="st0" x="438.2" y="363.6" width="139.4" height="102.2"/>
  <path class="st1" d="M168.7,708.5H30.8v-215.3l86.6-40,90.8-154.6h169.6v393.7h-32.4c0-48.7-39.6-88.3-88.3-88.3s-88.4,39.6-88.4,88.3v16.2ZM63.2,676.1h74.3c7.9-58.9,58.6-104.5,119.6-104.5s66.3,14.8,88.3,38.5v-279.1h-118.7l-86.5,147.4-77,35.5v162.2Z"/>
  <path class="st1" d="M257.1,764.3c-39.7,0-71.9-32.3-71.9-71.9s32.3-71.9,71.9-71.9,71.9,32.3,71.9,71.9-32.3,71.9-71.9,71.9ZM257.1,652.7c-21.8,0-39.6,17.7-39.6,39.6s17.8,39.6,39.6,39.6,39.6-17.8,39.6-39.6-17.8-39.6-39.6-39.6Z"/>
  <path class="st1" d="M969.2,708.5h-67.2v-16.2c0-48.7-39.6-88.3-88.3-88.3s-88.4,39.6-88.4,88.3v16.2h-16.2s-363.7,0-363.7,0V235.7h623.8v472.8ZM377.8,676.2h316.2c7.9-59,58.6-104.6,119.6-104.6s111.7,45.6,119.6,104.5h3.6v-408H377.8v408.1Z"/>
  <path class="st1" d="M813.6,764.3c-39.7,0-71.9-32.3-71.9-71.9s32.3-71.9,71.9-71.9,71.9,32.3,71.9,71.9-32.3,71.9-71.9,71.9ZM813.6,652.7c-21.8,0-39.6,17.7-39.6,39.6s17.8,39.6,39.6,39.6,39.6-17.8,39.6-39.6-17.8-39.6-39.6-39.6Z"/>
</svg>