<?xml version="1.0" encoding="UTF-8"?>
<svg id="Layer_1" xmlns="http://www.w3.org/2000/svg" version="1.1" viewBox="0 0 1000 1000">
  <!-- Generator: Adobe Illustrator 29.2.1, SVG Export Plug-In . SVG Version: 2.1.0 Build 116)  -->
  <defs>
    <style>
      .st0 {
        fill: #242d3c;
      }

      .st1 {
        fill: #fdc800;
      }

      .st2 {
        fill: #0054a1;
      }

      .st3 {
        fill: #ff8d39;
      }
    </style>
  </defs>
  <rect class="st2" x="302" y="275.4" width="61" height="41.4"/>
  <polygon class="st3" points="188.7 466.2 302 466.2 302 365.1 248.1 365.1 188.7 466.2"/>
  <rect class="st3" x="51.8" y="515.8" width="896.4" height="32"/>
  <rect class="st1" x="438.9" y="365.1" width="137.9" height="101.1"/>
  <path class="st0" d="M172.2,706.3H35.8v-213l85.6-39.6,89.8-152.9h167.8v389.5h-32c0-48.2-39.2-87.4-87.4-87.4s-87.4,39.2-87.4,87.4v16ZM67.8,674.3h73.5c7.8-58.3,57.9-103.4,118.4-103.4s65.6,14.7,87.4,38.1v-276.2h-117.5l-85.6,145.8-76.2,35.2v160.5Z"/>
  <path class="st0" d="M259.7,761.4c-39.2,0-71.2-31.9-71.2-71.2s31.9-71.2,71.2-71.2,71.2,31.9,71.2,71.2-31.9,71.2-71.2,71.2ZM259.7,651.1c-21.6,0-39.2,17.6-39.2,39.1s17.6,39.2,39.2,39.2,39.2-17.6,39.2-39.2-17.6-39.1-39.2-39.1Z"/>
  <path class="st0" d="M964.2,706.3h-66.5v-16c0-48.2-39.2-87.4-87.4-87.4s-87.4,39.2-87.4,87.4v16h-16s-359.8,0-359.8,0V238.6h617.1v467.8ZM379.1,674.3h312.9c7.8-58.3,57.9-103.4,118.4-103.4s110.5,45.1,118.4,103.4h3.5v-403.7H379.1v403.7Z"/>
  <path class="st0" d="M810.3,761.4c-39.2,0-71.2-31.9-71.2-71.2s31.9-71.2,71.2-71.2,71.2,31.9,71.2,71.2-31.9,71.2-71.2,71.2ZM810.3,651.1c-21.6,0-39.2,17.6-39.2,39.1s17.6,39.2,39.2,39.2,39.2-17.6,39.2-39.2-17.6-39.1-39.2-39.1Z"/>
</svg>