<?xml version="1.0" encoding="UTF-8"?>
<svg id="Layer_1" xmlns="http://www.w3.org/2000/svg" version="1.1" viewBox="0 0 1000 1000">
  <!-- Generator: Adobe Illustrator 29.2.1, SVG Export Plug-In . SVG Version: 2.1.0 Build 116)  -->
  <defs>
    <style>
      .st0 {
        fill: #4999d5;
      }

      .st1 {
        fill: #242d3c;
      }

      .st2 {
        fill: #0054a1;
      }

      .st3 {
        fill: #fff;
      }
    </style>
  </defs>
  <path class="st1" d="M907,851.6H93v-489.2c0-11.3,4.4-22,12.5-29.9,7.8-7.9,18.4-12.3,29.8-12.3h135.2v32.4h-135.2c-1.5,0-4.5.4-6.9,2.8-2.6,2.6-3,5.5-3,7v456.7h749.1v-456.7c0-1.5-.4-4.4-2.8-6.9-1.9-1.9-4.4-2.9-7-2.9h-135.2v-32.4h135.2c11.3,0,21.9,4.4,29.9,12.4,8,8,12.3,18.5,12.3,29.8v489.2Z"/>
  <rect class="st1" x="405.2" y="310.2" width="189.5" height="32.4"/>
  <rect class="st0" x="171.9" y="399" width="656.2" height="436.3"/>
  <path class="st1" d="M935.5,921.1H64.5c-13.6,0-26.4-5.3-36-14.9-9.7-9.6-15-22.5-15-36.1v-51h972.9v51c0,13.6-5.3,26.5-14.9,36.1-9.7,9.6-22.5,14.9-36.1,14.9ZM46,851.6v18.6c0,5,1.9,9.6,5.4,13.1,3.5,3.5,8.2,5.4,13.2,5.4h870.9c5,0,9.6-1.9,13.2-5.4,3.5-3.5,5.4-8.1,5.4-13.1v-18.6H46Z"/>
  <path class="st3" d="M645.9,617.2c0,80.6-65.4,145.9-145.9,145.9s-145.9-65.4-145.9-145.9,65.4-145.9,145.9-145.9,145.9,65.4,145.9,145.9Z"/>
  <path class="st1" d="M500,698.3c-44.7,0-81.1-36.4-81.1-81.1s36.4-81.1,81.1-81.1,81.1,36.4,81.1,81.1-36.4,81.1-81.1,81.1ZM500,568.5c-26.8,0-48.7,21.8-48.7,48.7s21.8,48.6,48.7,48.6,48.6-21.8,48.6-48.6-21.8-48.7-48.6-48.7Z"/>
  <path class="st2" d="M241.7,241c-44.7,0-81.1-36.4-81.1-81.1s36.4-81.1,81.1-81.1,81.1,36.4,81.1,81.1-36.4,81.1-81.1,81.1ZM241.7,111.3c-26.8,0-48.6,21.8-48.6,48.6s21.8,48.6,48.6,48.6,48.6-21.8,48.6-48.6-21.8-48.6-48.6-48.6Z"/>
  <path class="st2" d="M758.3,241c-44.7,0-81.1-36.4-81.1-81.1s36.4-81.1,81.1-81.1,81.1,36.4,81.1,81.1-36.4,81.1-81.1,81.1ZM758.3,111.3c-26.8,0-48.7,21.8-48.7,48.6s21.8,48.6,48.7,48.6,48.7-21.8,48.7-48.6-21.8-48.6-48.7-48.6Z"/>
  <path class="st1" d="M774.5,160c0,9-7.3,16.2-16.2,16.2s-16.2-7.3-16.2-16.2,7.3-16.2,16.2-16.2,16.2,7.3,16.2,16.2Z"/>
  <path class="st1" d="M602.9,471.4l-28.1-16.2,16.1-27.9,28.1,16.2-16.1,27.9ZM635.1,415.6l-28.1-16.2,16.1-27.9,28.1,16.2-16.1,27.9ZM667.3,359.8l-28.1-16.2,16.1-27.9,28.1,16.2-16.1,27.9ZM699.6,304l-28.1-16.2,16.1-27.9,28.1,16.2-16.1,27.9Z"/>
  <path class="st1" d="M397.1,471.4l-16.1-27.9,28.1-16.2,16.1,27.9-28.1,16.2ZM364.9,415.6l-16.1-27.9,28.1-16.2,16.1,27.9-28.1,16.2ZM332.7,359.8l-16.1-27.9,28.1-16.2,16.1,27.9-28.1,16.2ZM300.4,304l-16.1-27.9,28.1-16.2,16.1,27.9-28.1,16.2Z"/>
  <path class="st1" d="M258,160c0,9-7.3,16.2-16.2,16.2s-16.2-7.3-16.2-16.2,7.3-16.2,16.2-16.2,16.2,7.3,16.2,16.2Z"/>
  <path class="st1" d="M516.2,617.2c0,9-7.3,16.2-16.2,16.2s-16.2-7.3-16.2-16.2,7.3-16.2,16.2-16.2,16.2,7.3,16.2,16.2Z"/>
</svg>