<?xml version="1.0" encoding="UTF-8"?>
<svg id="Layer_1" xmlns="http://www.w3.org/2000/svg" version="1.1" viewBox="0 0 1000 1000">
  <!-- Generator: Adobe Illustrator 29.2.1, SVG Export Plug-In . SVG Version: 2.1.0 Build 116)  -->
  <defs>
    <style>
      .st0 {
        fill: #4999d5;
      }

      .st1 {
        fill: #242d3c;
      }

      .st2 {
        fill: #fdc800;
      }

      .st3 {
        fill: #ff8d39;
      }
    </style>
  </defs>
  <path class="st0" d="M500,204.8l-115.7,66.8v133.6l115.7,66.8,115.7-66.8v-133.6l-115.7-66.8ZM544.7,364.1l-44.7,25.8-44.7-25.8v-51.6l44.7-25.8,44.7,25.8v51.6Z"/>
  <path class="st2" d="M313.3,528.1l-115.7,66.8v133.6l115.7,66.8,115.7-66.8v-133.6l-115.7-66.8ZM358,687.5l-44.7,25.8-44.7-25.8v-51.6l44.7-25.8,44.7,25.8v51.6Z"/>
  <path class="st3" d="M686.7,528.1l-115.7,66.8v133.6l115.7,66.8,115.7-66.8v-133.6l-115.7-66.8ZM731.4,687.5l-44.7,25.8-44.7-25.8v-51.6l44.7-25.8,44.7,25.8v51.6Z"/>
  <path class="st1" d="M500,574.4l-204.4-118v-236.1l204.4-118,204.4,118v236.1l-204.4,118ZM331.1,435.9l168.9,97.5,168.9-97.5v-195.1l-168.9-97.5-168.9,97.5v195.1Z"/>
  <path class="st1" d="M313.3,897.7l-204.4-118v-236.1l204.4-118,204.4,118v236.1l-204.4,118ZM144.4,759.2l168.9,97.5,168.9-97.5v-195.1l-168.9-97.5-168.9,97.5v195.1Z"/>
  <path class="st1" d="M686.7,897.7l-204.4-118v-236.1l204.4-118,204.4,118v236.1l-204.4,118ZM517.8,759.2l168.9,97.5,168.9-97.5v-195.1l-168.9-97.5-168.9,97.5v195.1Z"/>
  <rect class="st1" x="482.3" y="20.7" width="35.5" height="102"/>
  <rect class="st1" x="295.6" y="877.2" width="35.5" height="102"/>
  <rect class="st1" x="668.9" y="877.2" width="35.5" height="102"/>
  <rect class="st1" x="866.5" y="510.6" width="102" height="35.5" transform="translate(-141.3 529.6) rotate(-30)"/>
  <rect class="st1" x="64.7" y="477.4" width="35.5" height="102" transform="translate(-416.4 335.6) rotate(-60)"/>
  <polygon class="st1" points="500 430.9 419.8 384.6 384.3 405.1 500 471.9 615.7 405.1 580.2 384.6 500 430.9"/>
  <polygon class="st1" points="500 245.7 580.2 292 615.7 271.5 500 204.8 384.3 271.5 419.8 292 500 245.7"/>
  <polygon class="st1" points="313.3 528.1 313.3 569.1 393.5 615.4 393.5 708 429 728.5 429 594.9 313.3 528.1"/>
  <polygon class="st1" points="233.1 615.4 197.6 594.9 197.6 728.5 313.3 795.2 313.3 754.3 233.1 708 233.1 615.4"/>
  <polygon class="st1" points="686.7 528.1 686.7 569.1 606.5 615.4 606.5 708 571 728.5 571 594.9 686.7 528.1"/>
  <polygon class="st1" points="766.9 615.4 802.4 594.9 802.4 728.5 686.7 795.2 686.7 754.2 766.9 708 766.9 615.4"/>
</svg>