<?xml version="1.0" encoding="UTF-8"?>
<svg id="Layer_1" xmlns="http://www.w3.org/2000/svg" version="1.1" viewBox="0 0 471 402">
  <!-- Generator: Adobe Illustrator 29.2.1, SVG Export Plug-In . SVG Version: 2.1.0 Build 116)  -->
  <defs>
    <style>
      .st0 {
        fill: #4999d5;
      }

      .st1 {
        fill: #242d3c;
      }

      .st2 {
        fill: #0054a1;
      }
    </style>
  </defs>
  <path class="st0" d="M235.5,202.9c-11.4,0-20.7-9.3-20.7-20.7s9.3-20.7,20.7-20.7,20.7,9.3,20.7,20.7-9.3,20.7-20.7,20.7Z"/>
  <path class="st2" d="M147.2,141.7c-5.8,0-10.5-4.7-10.5-10.5s4.7-10.5,10.5-10.5,10.5,4.7,10.5,10.5-4.7,10.5-10.5,10.5Z"/>
  <path class="st2" d="M323.8,141.7c-5.8,0-10.5-4.7-10.5-10.5s4.7-10.5,10.5-10.5,10.5,4.7,10.5,10.5-4.7,10.5-10.5,10.5Z"/>
  <path class="st2" d="M235.5,294.6c-5.8,0-10.5-4.7-10.5-10.5s4.7-10.5,10.5-10.5,10.5,4.7,10.5,10.5-4.7,10.5-10.5,10.5Z"/>
  <path class="st1" d="M235.5,220.3c-21,0-38.1-17.1-38.1-38.1s17.1-38.1,38.1-38.1,38.1,17.1,38.1,38.1-17.1,38.1-38.1,38.1ZM235.5,152.3c-16.4,0-29.8,13.4-29.8,29.8s13.4,29.8,29.8,29.8,29.8-13.4,29.8-29.8-13.4-29.8-29.8-29.8Z"/>
  <path class="st1" d="M147.2,159.1c-15.4,0-27.9-12.5-27.9-27.9s12.5-27.9,27.9-27.9,27.9,12.5,27.9,27.9-12.5,27.9-27.9,27.9ZM147.2,111.6c-10.8,0-19.6,8.8-19.6,19.6s8.8,19.6,19.6,19.6,19.6-8.8,19.6-19.6-8.8-19.6-19.6-19.6Z"/>
  <path class="st1" d="M323.8,159.1c-15.4,0-27.9-12.5-27.9-27.9s12.5-27.9,27.9-27.9,27.9,12.5,27.9,27.9-12.5,27.9-27.9,27.9ZM323.8,111.6c-10.8,0-19.6,8.8-19.6,19.6s8.8,19.6,19.6,19.6,19.6-8.8,19.6-19.6-8.8-19.6-19.6-19.6Z"/>
  <path class="st1" d="M235.5,312c-15.4,0-27.9-12.5-27.9-27.9s12.5-27.9,27.9-27.9,27.9,12.5,27.9,27.9-12.5,27.9-27.9,27.9ZM235.5,264.4c-10.8,0-19.6,8.8-19.6,19.6s8.8,19.6,19.6,19.6,19.6-8.8,19.6-19.6-8.8-19.6-19.6-19.6Z"/>
  <path class="st1" d="M235.5,124.9c-9.6,0-17.4-7.8-17.4-17.4s7.8-17.4,17.4-17.4,17.4,7.8,17.4,17.4-7.8,17.4-17.4,17.4ZM235.5,98.3c-5,0-9.1,4.1-9.1,9.1s4.1,9.1,9.1,9.1,9.1-4.1,9.1-9.1-4.1-9.1-9.1-9.1Z"/>
  <path class="st1" d="M170.8,237c-6.2,0-12-3.3-15.1-8.7-2.3-4-2.9-8.7-1.7-13.2,1.2-4.5,4.1-8.3,8.1-10.6,2.6-1.5,5.7-2.3,8.7-2.3,6.2,0,12,3.3,15.1,8.7,2.3,4,2.9,8.7,1.7,13.2-1.2,4.5-4.1,8.3-8.1,10.6-2.6,1.5-5.7,2.3-8.7,2.3ZM170.8,210.4c-1.6,0-3.2.4-4.5,1.2-2.1,1.2-3.6,3.2-4.3,5.5-.6,2.4-.3,4.8.9,6.9,1.6,2.8,4.7,4.6,7.9,4.6s3.2-.4,4.5-1.2c2.1-1.2,3.6-3.2,4.3-5.5.6-2.4.3-4.8-.9-6.9-1.6-2.8-4.7-4.6-7.9-4.6Z"/>
  <path class="st1" d="M300.2,237c-3,0-6.1-.8-8.7-2.3-4-2.3-6.9-6.1-8.1-10.6-1.2-4.5-.6-9.2,1.7-13.2,3.1-5.4,8.9-8.7,15.1-8.7s6.1.8,8.7,2.3c8.3,4.8,11.2,15.5,6.4,23.8-3.1,5.4-8.9,8.7-15.1,8.7ZM300.2,210.4c-3.3,0-6.3,1.7-7.9,4.6-1.2,2.1-1.5,4.6-.9,6.9.6,2.4,2.1,4.3,4.3,5.5,1.4.8,3,1.2,4.5,1.2,3.3,0,6.3-1.7,7.9-4.6,2.5-4.4,1-10-3.3-12.5-1.4-.8-3-1.2-4.5-1.2Z"/>
  <rect class="st1" x="231.4" y="216.1" width="8.3" height="44.2"/>
  <rect class="st1" x="262" y="150" width="44.2" height="8.3" transform="translate(-39 162.7) rotate(-30)"/>
  <rect class="st1" x="182.8" y="132.1" width="8.3" height="44.2" transform="translate(-40 239) rotate(-60)"/>
</svg>