<?xml version="1.0" encoding="UTF-8"?>
<svg id="Layer_1" xmlns="http://www.w3.org/2000/svg" version="1.1" viewBox="0 0 1000 1000">
  <!-- Generator: Adobe Illustrator 29.2.1, SVG Export Plug-In . SVG Version: 2.1.0 Build 116)  -->
  <defs>
    <style>
      .st0 {
        fill: #4999d5;
      }

      .st1 {
        fill: #242d3c;
      }

      .st2 {
        fill: #0054a1;
      }

      .st3 {
        fill: #fff;
      }
    </style>
  </defs>
  <path class="st1" d="M162.9,957.3v-126.5h-81.9V42.7h688v788h-479.5l-126.5,126.5ZM115.1,796.6h81.9v78.3l78.3-78.3h459.5V76.9H115.1v719.7Z"/>
  <rect class="st1" x="499.9" y="121.3" width="190.6" height="34.1"/>
  <rect class="st1" x="499.9" y="187.6" width="190.6" height="34.1"/>
  <rect class="st1" x="499.9" y="253.9" width="190.6" height="34.1"/>
  <rect class="st1" x="499.9" y="320.2" width="190.6" height="34.1"/>
  <rect class="st1" x="499.9" y="386.5" width="190.6" height="34.1"/>
  <rect class="st1" x="159.5" y="452.8" width="531" height="34.1"/>
  <rect class="st1" x="159.5" y="519.1" width="531" height="34.1"/>
  <rect class="st1" x="159.5" y="585.5" width="531" height="34.1"/>
  <rect class="st1" x="159.5" y="651.8" width="531" height="34.1"/>
  <rect class="st1" x="159.5" y="718.1" width="531" height="34.1"/>
  <rect class="st0" x="159.5" y="121.3" width="299.4" height="299.4"/>
  <path class="st3" d="M378.6,366.5h-34.1v-134.8c0-5.9-2.3-11.5-6.5-15.7-4.2-4.2-9.8-6.5-15.7-6.5h-26.2c-5.9,0-11.5,2.3-15.7,6.5-4.2,4.2-6.5,9.7-6.5,15.7v134.8h-34.1v-134.8c0-15,5.9-29.2,16.5-39.8,10.7-10.6,24.8-16.5,39.8-16.5h26.2c15,0,29.2,5.9,39.8,16.5,10.6,10.6,16.5,24.8,16.5,39.8v134.8Z"/>
  <rect class="st3" x="239.8" y="253.9" width="138.8" height="34.1"/>
  <polygon class="st2" points="864.4 138.3 826.9 175.8 826.9 738.7 901.9 738.7 901.9 175.8 864.4 138.3"/>
  <path class="st1" d="M919,755.7h-109.1V168.8l54.6-54.6,54.6,54.6v587ZM844,721.6h40.9V182.9l-20.4-20.4-20.4,20.4v538.7Z"/>
  <path class="st1" d="M919,755.7h-109.1V168.8l54.6-54.6,54.6,54.6v587ZM844,721.6h40.9V182.9l-20.4-20.4-20.4,20.4v538.7Z"/>
  <path class="st1" d="M864.4,830.7c-14.6,0-28.3-5.7-38.6-16-10.3-10.3-16-24-16-38.6v-54.6h109.1v54.6c0,14.6-5.7,28.3-16,38.6-10.3,10.3-24,16-38.6,16ZM844,755.7v20.4c0,5.5,2.1,10.6,6,14.5,7.7,7.7,21.2,7.7,28.9,0,3.9-3.9,6-9,6-14.5v-20.4h-40.9Z"/>
</svg>