<?xml version="1.0" encoding="UTF-8"?>
<svg id="Layer_1" xmlns="http://www.w3.org/2000/svg" version="1.1" viewBox="0 0 471 402">
  <!-- Generator: Adobe Illustrator 29.2.1, SVG Export Plug-In . SVG Version: 2.1.0 Build 116)  -->
  <defs>
    <style>
      .st0 {
        fill: #4999d5;
      }

      .st1 {
        fill: #242d3c;
      }

      .st2 {
        fill: #0054a1;
      }
    </style>
  </defs>
  <polygon class="st0" points="949.8 -1091.1 949.8 -1098.9 984.2 -1098.9 984.2 -1091.1 967 -1073.9 949.8 -1091.1"/>
  <polygon class="st2" points="967 -1043.5 949.8 -1026.3 984.2 -1026.3 967 -1043.5"/>
  <polygon class="st1" points="994.3 -1026.3 989.7 -1026.3 989.7 -1050.6 970.6 -1069.7 989.7 -1088.8 989.7 -1113.8 994.3 -1113.8 994.3 -1086.9 977.1 -1069.7 994.3 -1052.5 994.3 -1026.3"/>
  <polygon class="st1" points="944.2 -1026.3 939.6 -1026.3 939.6 -1052.5 956.8 -1069.7 939.6 -1086.9 939.6 -1113.8 944.2 -1113.8 944.2 -1088.8 963.3 -1069.7 944.2 -1050.6 944.2 -1026.3"/>
  <rect class="st1" x="998.8" y="-1113.8" width="4.6" height="87.5"/>
  <rect class="st1" x="930.6" y="-1113.8" width="4.6" height="87.5"/>
  <path class="st1" d="M1011.2-1117.3h-88.4v-12.4h88.4v12.4ZM927.4-1121.9h79.2v-3.2h-79.2v3.2Z"/>
  <path class="st1" d="M1011.2-1010.4h-88.4v-12.4h88.4v12.4ZM927.4-1015h79.2v-3.2h-79.2v3.2Z"/>
  <g>
    <polygon class="st0" points="201.4 159.3 201.4 143.9 269.6 143.9 269.6 159.3 235.5 193.4 201.4 159.3"/>
    <polygon class="st2" points="235.5 253.5 201.4 287.5 269.6 287.5 235.5 253.5"/>
    <polygon class="st1" points="289.6 287.5 280.5 287.5 280.5 239.4 242.7 201.6 280.5 163.8 280.5 114.5 289.6 114.5 289.6 167.6 255.5 201.6 289.6 235.7 289.6 287.5"/>
    <polygon class="st1" points="190.5 287.5 181.4 287.5 181.4 235.7 215.5 201.6 181.4 167.6 181.4 114.5 190.5 114.5 190.5 163.8 228.3 201.6 190.5 239.4 190.5 287.5"/>
    <rect class="st1" x="298.4" y="114.5" width="9.1" height="173.1"/>
    <rect class="st1" x="163.5" y="114.5" width="9.1" height="173.1"/>
    <path class="st1" d="M322.9,107.6h-174.9v-24.6h174.9v24.6ZM157.1,98.5h156.7v-6.4h-156.7v6.4Z"/>
    <path class="st1" d="M322.9,319h-174.9v-24.6h174.9v24.6ZM157.1,309.9h156.7v-6.4h-156.7v6.4Z"/>
  </g>
</svg>