<?xml version="1.0" encoding="UTF-8"?>
<svg id="Layer_1" xmlns="http://www.w3.org/2000/svg" version="1.1" viewBox="0 0 1000 1000">
  <!-- Generator: Adobe Illustrator 29.2.1, SVG Export Plug-In . SVG Version: 2.1.0 Build 116)  -->
  <defs>
    <style>
      .st0 {
        fill: #4999d5;
      }

      .st1 {
        fill: #242d3c;
      }

      .st2 {
        fill: #0054a1;
      }
    </style>
  </defs>
  <polygon class="st0" points="362.5 337.2 362.5 275 637.5 275 637.5 337.2 500 474.7 362.5 337.2"/>
  <polygon class="st2" points="500 717.5 362.5 855 637.5 855 500 717.5"/>
  <polygon class="st1" points="718.3 855 681.7 855 681.7 660.7 529.1 508.1 681.7 355.5 681.7 156.2 718.3 156.2 718.3 370.7 580.9 508.1 718.3 645.5 718.3 855"/>
  <polygon class="st1" points="318.3 855 281.7 855 281.7 645.5 419.1 508.1 281.7 370.7 281.7 156.2 318.3 156.2 318.3 355.5 470.9 508.1 318.3 660.7 318.3 855"/>
  <rect class="st1" x="753.9" y="156.2" width="36.6" height="698.7"/>
  <rect class="st1" x="209.4" y="156.2" width="36.7" height="698.7"/>
  <path class="st1" d="M853.1,117.1H146.9V18h706.2v99.2ZM183.6,80.5h632.9v-25.9H183.6v25.9Z"/>
  <path class="st1" d="M853.1,982H146.9v-99.2h706.2v99.2ZM183.6,945.4h632.9v-25.9H183.6v25.9Z"/>
</svg>