<?xml version="1.0" encoding="UTF-8"?>
<svg id="Layer_1" xmlns="http://www.w3.org/2000/svg" version="1.1" viewBox="0 0 1000 1000">
  <!-- Generator: Adobe Illustrator 29.2.1, SVG Export Plug-In . SVG Version: 2.1.0 Build 116)  -->
  <defs>
    <style>
      .st0 {
        fill: #4999d5;
      }

      .st1 {
        fill: #242d3c;
      }

      .st2 {
        fill: #0054a1;
      }
    </style>
  </defs>
  <polygon class="st0" points="568.6 679.8 693.4 679.8 557.8 262 456.8 335.2 568.6 679.8"/>
  <path class="st1" d="M351.3,807.1c-18.9,0-37.7-4.5-55-13.3-28.8-14.7-50.2-39.8-60.2-70.6-4.7-14.5-6.6-29.4-5.7-44.3l30.8,1.9c-.7,11,.8,22.1,4.2,32.9,7.5,23,23.4,41.7,44.9,52.7,21.5,11,46,12.9,69,5.5,39.1-12.7,64.8-50.2,62.4-91.1l30.8-1.8c3.2,54.9-31.2,105.2-83.7,122.2-12.3,4-25,6-37.6,6Z"/>
  <path class="st1" d="M714.6,695.3H127.9s-36.9-113.8-36.9-113.8l475-344.4,148.7,458.3ZM150.3,664.4h521.8s-122.5-377.4-122.5-377.4L127.2,593.3l23.1,71.1Z"/>
  <rect class="st1" x="216.7" y="498" width="187.9" height="30.9" transform="translate(-242.1 279.8) rotate(-35.9)"/>
  <path class="st1" d="M100,749h0c-9,0-17.6-2.1-25.6-6.2-13.4-6.9-23.3-18.5-28-32.8l-30-92.6c-4.6-14.5-3.4-29.8,3.5-43.1,6.8-13.3,18.4-23.2,32.7-28,14.9-4.7,30-3.4,43.3,3.5,13.4,6.8,23.3,18.5,28,32.8l30,92.5c4.6,14.5,3.4,29.8-3.4,43.1-6.9,13.5-18.5,23.4-32.8,28-5.8,1.8-11.6,2.7-17.5,2.7ZM70.1,574.4c-2.7,0-5.4.4-8.1,1.3-6.4,2.1-11.7,6.6-14.7,12.7-3.1,6.1-3.7,13-1.6,19.6l30,92.5c2.1,6.4,6.7,11.8,12.7,14.9,3.6,1.8,7.5,2.8,11.5,2.8h0c2.7,0,5.4-.4,8.1-1.3,6.4-2.1,11.7-6.6,14.8-12.7,3.1-6,3.6-13,1.5-19.6l-30-92.4c-2.1-6.5-6.6-11.8-12.7-14.9-3.7-1.9-7.6-2.8-11.6-2.8Z"/>
  <path class="st1" d="M732.4,723.7h0c-8.9,0-17.8-2.1-25.7-6.2-13.4-6.8-23.4-18.5-28-32.9l-135.6-417.8c-4.7-14.4-3.4-29.7,3.5-43.1,6.8-13.4,18.4-23.3,32.8-28,14-4.6,29.6-3.4,43,3.4,13.6,7,23.5,18.7,28.1,33l135.5,417.8c4.7,14.2,3.5,29.6-3.3,43.1-6.9,13.4-18.5,23.3-32.8,28-5.8,1.9-11.6,2.8-17.5,2.8ZM596.8,223.7c-2.7,0-5.3.4-7.9,1.3-6.5,2.1-11.8,6.6-14.9,12.7-3.2,6.1-3.7,13-1.6,19.5l135.6,417.8c2.1,6.5,6.6,11.8,12.7,14.9,6.2,3.2,13.1,3.7,19.6,1.6,6.4-2.1,11.8-6.7,14.9-12.7,3.1-6.1,3.6-13,1.5-19.5l-135.5-417.9c-2.1-6.5-6.6-11.8-12.8-14.9-3.6-1.8-7.5-2.8-11.5-2.8Z"/>
  <rect class="st1" x="772.4" y="383.9" width="147.9" height="30.9" transform="translate(-81.9 280.7) rotate(-18)"/>
  <rect class="st1" x="831.7" y="422.7" width="30.9" height="147.9" transform="translate(124 1161) rotate(-73)"/>
  <rect class="st1" x="715.9" y="304.6" width="148" height="30.9" transform="translate(58.7 757.9) rotate(-53)"/>
  <path class="st2" d="M839.3,330c1.5,4.6-1,9.6-5.6,11.1-4.6,1.5-9.6-1.1-11.1-5.6-1.5-4.6,1-9.6,5.7-11.1,4.6-1.4,9.6,1,11,5.7Z"/>
  <path class="st2" d="M904.7,276.6c3.5,10.8-2.4,22.3-13.2,25.9-10.8,3.5-22.3-2.4-25.8-13.2-3.5-10.8,2.4-22.3,13.2-25.8,10.7-3.5,22.3,2.4,25.8,13.1Z"/>
  <path class="st2" d="M761.1,205.8c2.2,6.7-1.5,13.9-8.2,16.1-6.6,2.1-13.8-1.6-16-8.2-2.2-6.7,1.4-13.8,8.1-16,6.7-2.2,13.9,1.5,16,8.1Z"/>
  <path class="st2" d="M977.1,534.6c1.5,4.6-1,9.6-5.6,11-4.6,1.5-9.6-1-11.1-5.6-1.5-4.6,1-9.6,5.7-11.1,4.6-1.6,9.6,1,11,5.7Z"/>
  <path class="st2" d="M985.1,423.1c4.5,13.8-3.1,28.7-17,33.2-13.8,4.5-28.7-3.1-33.2-17-4.5-13.8,3.1-28.7,16.9-33.2,13.9-4.5,28.7,3.1,33.3,17Z"/>
  <path class="st2" d="M863.2,567.6c4,12.3-2.7,25.6-15.1,29.6-12.3,4-25.5-2.8-29.6-15.1-4-12.3,2.8-25.5,15.1-29.6,12.3-4,25.5,2.8,29.5,15.1Z"/>
</svg>