<?xml version="1.0" encoding="UTF-8"?>
<svg id="Layer_1" xmlns="http://www.w3.org/2000/svg" version="1.1" viewBox="0 0 471 402">
  <!-- Generator: Adobe Illustrator 29.2.1, SVG Export Plug-In . SVG Version: 2.1.0 Build 116)  -->
  <defs>
    <style>
      .st0 {
        fill: #4999d5;
      }

      .st1 {
        fill: #242d3c;
      }

      .st2 {
        fill: #0054a1;
      }

      .st3 {
        fill: #fff;
      }
    </style>
  </defs>
  <polygon class="st0" points="949.8 -1091.1 949.8 -1098.9 984.2 -1098.9 984.2 -1091.1 967 -1073.9 949.8 -1091.1"/>
  <polygon class="st2" points="967 -1043.5 949.8 -1026.3 984.2 -1026.3 967 -1043.5"/>
  <polygon class="st1" points="994.3 -1026.3 989.7 -1026.3 989.7 -1050.6 970.6 -1069.7 989.7 -1088.8 989.7 -1113.8 994.3 -1113.8 994.3 -1086.9 977.1 -1069.7 994.3 -1052.5 994.3 -1026.3"/>
  <polygon class="st1" points="944.2 -1026.3 939.6 -1026.3 939.6 -1052.5 956.8 -1069.7 939.6 -1086.9 939.6 -1113.8 944.2 -1113.8 944.2 -1088.8 963.3 -1069.7 944.2 -1050.6 944.2 -1026.3"/>
  <rect class="st1" x="998.8" y="-1113.8" width="4.6" height="87.5"/>
  <rect class="st1" x="930.6" y="-1113.8" width="4.6" height="87.5"/>
  <path class="st1" d="M1011.2-1117.3h-88.4v-12.4h88.4v12.4ZM927.4-1121.9h79.2v-3.2h-79.2v3.2Z"/>
  <path class="st1" d="M1011.2-1010.4h-88.4v-12.4h88.4v12.4ZM927.4-1015h79.2v-3.2h-79.2v3.2Z"/>
  <g>
    <path class="st1" d="M199.6,243.1c-2.5-1.2-4.9-2.6-7.2-4l4.2-6.7c2.1,1.3,4.3,2.5,6.5,3.6l-3.5,7.1ZM271.5,243l-3.5-7.1c2.2-1.1,4.4-2.3,6.5-3.6l4.2,6.7c-2.3,1.5-4.8,2.8-7.2,4ZM185.6,234.3c-2.2-1.7-4.3-3.5-6.3-5.4l5.5-5.8c1.8,1.7,3.7,3.3,5.7,4.9l-4.9,6.3ZM285.5,234.2l-4.9-6.3c2-1.5,3.9-3.2,5.7-4.9l5.5,5.7c-2,1.9-4.1,3.7-6.3,5.4ZM173.6,223c-1.8-2.1-3.5-4.3-5.1-6.5l6.5-4.5c1.4,2,3,4,4.6,5.9l-6,5.2ZM297.5,222.9l-6-5.2c1.6-1.9,3.2-3.9,4.6-5.9l6.5,4.5c-1.6,2.2-3.3,4.4-5.1,6.5ZM164.1,209.4c-1.3-2.4-2.6-4.9-3.7-7.4l7.3-3.1c1,2.3,2.1,4.5,3.3,6.7l-6.9,3.9ZM306.9,209.3l-6.9-3.8c1.2-2.2,2.3-4.4,3.3-6.7l7.3,3.1c-1.1,2.5-2.3,5-3.6,7.4ZM157.6,194.3c-.8-2.6-1.5-5.3-2.1-8l7.8-1.6c.5,2.4,1.1,4.9,1.9,7.2l-7.6,2.4ZM313.5,194.1l-7.6-2.4c.7-2.4,1.4-4.8,1.9-7.2l7.8,1.6c-.5,2.7-1.2,5.4-2.1,8ZM154.2,178.1c-.3-2.7-.4-5.5-.4-8.3h7.9c0,2.5.1,5,.4,7.4l-7.9.8ZM316.8,177.9l-7.9-.8c.2-2.5.4-5,.4-7.5v-.3s7.9,0,7.9,0v.3c0,2.8-.1,5.6-.4,8.3ZM162.1,162.4l-7.9-.8c.3-2.7.7-5.5,1.2-8.2l7.8,1.6c-.5,2.4-.9,4.9-1.1,7.4ZM308.8,161.9c-.3-2.5-.6-4.9-1.2-7.4l7.8-1.6c.6,2.7,1,5.4,1.3,8.2l-7.9.8ZM165.1,147.7l-7.6-2.4c.8-2.6,1.8-5.2,2.9-7.8l7.3,3.1c-1,2.3-1.8,4.6-2.6,7ZM305.8,147.3c-.7-2.4-1.6-4.7-2.6-7l7.3-3.2c1.1,2.5,2.1,5.1,2.9,7.7l-7.6,2.4ZM170.9,134l-6.9-3.8c1.3-2.4,2.8-4.8,4.4-7l6.5,4.5c-1.4,2-2.7,4.2-3.9,6.3ZM299.9,133.6c-1.2-2.2-2.6-4.3-4-6.3l6.5-4.6c1.6,2.3,3.1,4.6,4.4,7l-6.9,3.9ZM179.4,121.8l-6-5.2c1.8-2.1,3.7-4.1,5.7-6l5.5,5.7c-1.8,1.7-3.5,3.5-5.1,5.4ZM291.3,121.4c-1.6-1.9-3.4-3.7-5.2-5.4l5.4-5.8c2,1.9,3.9,3.9,5.7,6l-6,5.2ZM190.2,111.5l-4.9-6.3c2.2-1.7,4.4-3.3,6.8-4.7l4.2,6.7c-2.1,1.3-4.2,2.8-6.1,4.3ZM280.4,111.2c-2-1.5-4-2.9-6.1-4.2l4.2-6.7c2.3,1.4,4.6,3,6.8,4.7l-4.8,6.3ZM202.8,103.5l-3.5-7.1c2.5-1.2,5-2.3,7.6-3.3l2.8,7.4c-2.3.9-4.6,1.9-6.9,3ZM267.8,103.3c-2.2-1.1-4.5-2.1-6.9-2.9l2.7-7.4c2.6.9,5.1,2,7.6,3.2l-3.5,7.1ZM216.8,98.3l-2-7.7c2.7-.7,5.4-1.3,8.1-1.7l1.2,7.8c-2.5.4-4.9.9-7.3,1.5ZM253.8,98.2c-2.4-.6-4.9-1.1-7.3-1.5l1.2-7.8c2.7.4,5.4.9,8.1,1.6l-2,7.7ZM231.5,96l-.4-7.9c2.8-.1,5.5-.2,8.3,0l-.4,7.9c-2.5-.1-5-.1-7.5,0Z"/>
    <path class="st1" d="M235.5,229.2c-32.8,0-59.5-26.7-59.5-59.5s26.7-59.5,59.5-59.5,59.5,26.7,59.5,59.5-26.7,59.5-59.5,59.5ZM235.5,118.1c-28.4,0-51.5,23.1-51.5,51.5s23.1,51.5,51.5,51.5,51.5-23.1,51.5-51.5-23.1-51.5-51.5-51.5Z"/>
    <rect class="st1" x="231.5" y="225.2" width="7.9" height="20.6"/>
    <rect class="st2" x="222.7" y="245.8" width="25.5" height="68.2"/>
    <path class="st0" d="M276.7,169.7c0,22.8-18.5,41.2-41.2,41.2s-41.2-18.5-41.2-41.2,18.5-41.2,41.2-41.2,41.2,18.5,41.2,41.2Z"/>
    <rect class="st3" x="222.7" y="254.5" width="25.5" height="7.9"/>
    <rect class="st3" x="222.7" y="297.4" width="25.5" height="7.9"/>
    <rect class="st3" x="231.5" y="141.9" width="7.9" height="39.7"/>
    <rect class="st3" x="231.5" y="189.5" width="7.9" height="7.9"/>
  </g>
</svg>