<?xml version="1.0" encoding="UTF-8"?>
<svg id="Layer_1" xmlns="http://www.w3.org/2000/svg" version="1.1" viewBox="0 0 471 402">
  <!-- Generator: Adobe Illustrator 29.2.1, SVG Export Plug-In . SVG Version: 2.1.0 Build 116)  -->
  <defs>
    <style>
      .st0 {
        fill: #4999d5;
      }

      .st1 {
        fill: #242d3c;
      }

      .st2 {
        fill: #0054a1;
      }
    </style>
  </defs>
  <polygon class="st0" points="949.8 -1091.1 949.8 -1098.9 984.2 -1098.9 984.2 -1091.1 967 -1073.9 949.8 -1091.1"/>
  <polygon class="st2" points="967 -1043.5 949.8 -1026.3 984.2 -1026.3 967 -1043.5"/>
  <polygon class="st1" points="994.3 -1026.3 989.7 -1026.3 989.7 -1050.6 970.6 -1069.7 989.7 -1088.8 989.7 -1113.8 994.3 -1113.8 994.3 -1086.9 977.1 -1069.7 994.3 -1052.5 994.3 -1026.3"/>
  <polygon class="st1" points="944.2 -1026.3 939.6 -1026.3 939.6 -1052.5 956.8 -1069.7 939.6 -1086.9 939.6 -1113.8 944.2 -1113.8 944.2 -1088.8 963.3 -1069.7 944.2 -1050.6 944.2 -1026.3"/>
  <rect class="st1" x="998.8" y="-1113.8" width="4.6" height="87.5"/>
  <rect class="st1" x="930.6" y="-1113.8" width="4.6" height="87.5"/>
  <path class="st1" d="M1011.2-1117.3h-88.4v-12.4h88.4v12.4ZM927.4-1121.9h79.2v-3.2h-79.2v3.2Z"/>
  <path class="st1" d="M1011.2-1010.4h-88.4v-12.4h88.4v12.4ZM927.4-1015h79.2v-3.2h-79.2v3.2Z"/>
  <g>
    <polygon class="st0" points="252.5 245.6 283.4 245.6 249.8 142 224.8 160.1 252.5 245.6"/>
    <path class="st1" d="M198.6,277.1c-4.7,0-9.3-1.1-13.6-3.3-7.1-3.7-12.5-9.9-14.9-17.5-1.2-3.6-1.6-7.3-1.4-11l7.6.5c-.2,2.7.2,5.5,1.1,8.1,1.8,5.7,5.8,10.3,11.1,13.1,5.3,2.7,11.4,3.2,17.1,1.4,9.7-3.2,16.1-12.4,15.5-22.6l7.6-.4c.8,13.6-7.7,26.1-20.7,30.3-3.1,1-6.2,1.5-9.3,1.5Z"/>
    <path class="st1" d="M288.7,249.4h-145.5s-9.2-28.2-9.2-28.2l117.7-85.4,36.9,113.6ZM148.8,241.7h129.4s-30.4-93.6-30.4-93.6l-104.7,75.9,5.7,17.6Z"/>
    <rect class="st1" x="165.3" y="200.5" width="46.6" height="7.7" transform="translate(-84 149.5) rotate(-35.9)"/>
    <path class="st1" d="M136.3,262.7h0c-2.2,0-4.4-.5-6.3-1.5-3.3-1.7-5.8-4.6-7-8.1l-7.4-23c-1.1-3.6-.8-7.4.9-10.7,1.7-3.3,4.6-5.8,8.1-6.9,3.7-1.2,7.4-.8,10.7.9,3.3,1.7,5.8,4.6,6.9,8.1l7.4,22.9c1.1,3.6.8,7.4-.8,10.7-1.7,3.3-4.6,5.8-8.1,7-1.4.5-2.9.7-4.3.7ZM128.9,219.4c-.7,0-1.3.1-2,.3-1.6.5-2.9,1.6-3.7,3.1-.8,1.5-.9,3.2-.4,4.9l7.4,22.9c.5,1.6,1.6,2.9,3.2,3.7.9.5,1.9.7,2.9.7h0c.7,0,1.3-.1,2-.3,1.6-.5,2.9-1.6,3.7-3.1.8-1.5.9-3.2.4-4.9l-7.4-22.9c-.5-1.6-1.6-2.9-3.1-3.7-.9-.5-1.9-.7-2.9-.7Z"/>
    <path class="st1" d="M293.1,256.4h0c-2.2,0-4.4-.5-6.4-1.5-3.3-1.7-5.8-4.6-6.9-8.2l-33.6-103.6c-1.2-3.6-.8-7.4.9-10.7,1.7-3.3,4.6-5.8,8.1-6.9,3.5-1.1,7.3-.9,10.7.8,3.4,1.7,5.8,4.6,7,8.2l33.6,103.6c1.2,3.5.9,7.3-.8,10.7-1.7,3.3-4.6,5.8-8.1,7-1.4.5-2.9.7-4.3.7ZM259.5,132.5c-.7,0-1.3.1-2,.3-1.6.5-2.9,1.6-3.7,3.1-.8,1.5-.9,3.2-.4,4.8l33.6,103.6c.5,1.6,1.6,2.9,3.1,3.7,1.5.8,3.3.9,4.9.4,1.6-.5,2.9-1.7,3.7-3.2.8-1.5.9-3.2.4-4.8l-33.6-103.6c-.5-1.6-1.6-2.9-3.2-3.7-.9-.4-1.9-.7-2.9-.7Z"/>
    <rect class="st1" x="303" y="172.2" width="36.7" height="7.7" transform="translate(-38.6 107.8) rotate(-18)"/>
    <rect class="st1" x="317.7" y="181.8" width="7.7" height="36.7" transform="translate(35.9 448.9) rotate(-73)"/>
    <rect class="st1" x="289" y="152.6" width="36.7" height="7.7" transform="translate(-2.6 307.6) rotate(-53)"/>
    <path class="st2" d="M319.6,161.2c.4,1.1-.3,2.4-1.4,2.7-1.1.4-2.4-.3-2.8-1.4-.4-1.1.3-2.4,1.4-2.8,1.1-.4,2.4.3,2.7,1.4Z"/>
    <path class="st2" d="M335.8,148c.9,2.7-.6,5.5-3.3,6.4-2.7.9-5.5-.6-6.4-3.3-.9-2.7.6-5.5,3.3-6.4,2.7-.9,5.5.6,6.4,3.3Z"/>
    <path class="st2" d="M295.2,136c.5,1.5-.4,3.2-1.9,3.7-1.5.5-3.2-.4-3.6-1.9-.5-1.5.3-3.2,1.9-3.7,1.5-.5,3.2.3,3.7,1.9Z"/>
    <path class="st2" d="M353.8,209.6c.4,1.1-.3,2.4-1.4,2.7-1.1.4-2.4-.3-2.8-1.4-.4-1.1.3-2.4,1.4-2.7,1.1-.4,2.4.3,2.7,1.4Z"/>
    <path class="st2" d="M355.8,181.9c1.1,3.4-.8,7.1-4.2,8.2-3.4,1.1-7.1-.8-8.2-4.2-1.1-3.4.8-7.1,4.2-8.2,3.4-1.1,7.1.8,8.2,4.2Z"/>
    <path class="st2" d="M325.5,217.8c1,3.1-.7,6.3-3.7,7.3-3.1,1-6.3-.7-7.3-3.7-1-3.1.7-6.3,3.7-7.3,3.1-1,6.3.7,7.3,3.7Z"/>
  </g>
</svg>