<?xml version="1.0" encoding="UTF-8"?>
<svg id="Layer_1" xmlns="http://www.w3.org/2000/svg" version="1.1" viewBox="0 0 1000 1000">
  <!-- Generator: Adobe Illustrator 29.2.1, SVG Export Plug-In . SVG Version: 2.1.0 Build 116)  -->
  <defs>
    <style>
      .st0 {
        fill: #4999d5;
      }

      .st1 {
        fill: #242d3c;
      }

      .st2 {
        fill: #fdc800;
      }

      .st3 {
        fill: #fff;
      }

      .st4 {
        fill: #ff8d39;
      }
    </style>
  </defs>
  <path class="st2" d="M346.9,679.5c-10.5-5.1-20.9-10.9-30.9-17.1l17.9-28.7c9,5.6,18.4,10.8,27.9,15.4l-14.9,30.4ZM653.8,679.2l-14.9-30.4c9.5-4.7,18.9-9.9,27.8-15.5l17.9,28.7c-9.9,6.2-20.3,12-30.8,17.2ZM287,642.3c-9.3-7.2-18.3-14.9-26.8-23l23.3-24.6c7.7,7.3,15.8,14.3,24.2,20.7l-20.7,26.8ZM713.5,641.8l-20.7-26.7c8.4-6.5,16.5-13.5,24.2-20.8l23.3,24.5c-8.5,8.1-17.5,15.8-26.7,23ZM235.9,593.8c-7.7-8.9-14.9-18.2-21.7-27.9l27.7-19.4c6.1,8.7,12.7,17.1,19.6,25.2l-25.6,22.1ZM764.6,593.3l-25.7-22c6.9-8.1,13.5-16.5,19.5-25.2l27.8,19.3c-6.7,9.6-13.9,19-21.6,27.9ZM195.5,536c-5.7-10.2-11-20.9-15.6-31.6l31.1-13.4c4.2,9.7,8.9,19.3,14.1,28.6l-29.5,16.5ZM804.9,535.4l-29.6-16.4c5.1-9.3,9.9-18.9,14-28.6l31.1,13.4c-4.6,10.8-9.9,21.5-15.5,31.7ZM167.5,471.3c-3.5-11.2-6.5-22.7-8.9-34.2l33.1-6.8c2.1,10.4,4.8,20.7,8,30.8l-32.3,10.2ZM832.7,470.6l-32.3-10.1c3.2-10.2,5.8-20.5,8-30.9l33.2,6.8c-2.3,11.4-5.3,22.9-8.8,34.2ZM153.3,402.3c-1.2-11.6-1.8-23.4-1.8-35.2h33.8c0,10.6.6,21.3,1.7,31.8l-33.7,3.4ZM846.8,401.6l-33.7-3.4c1-10.5,1.6-21.2,1.6-31.8v-1.4s33.8,0,33.8,0v1.1c0,12-.6,23.8-1.8,35.5ZM186.8,335.1l-33.7-3.3c1.2-11.7,2.9-23.4,5.2-34.9l33.2,6.7c-2.1,10.3-3.7,20.9-4.7,31.5ZM813,333.2c-1.1-10.5-2.7-21.1-4.9-31.5l33.1-6.9c2.4,11.5,4.2,23.2,5.4,34.9l-33.7,3.5ZM199.4,272.8l-32.3-10c3.5-11.2,7.6-22.4,12.2-33.2l31.1,13.3c-4.1,9.7-7.9,19.8-11,29.9ZM800,270.9c-3.2-10.1-6.9-20.1-11.2-29.8l31-13.5c4.7,10.8,8.9,21.9,12.4,33.1l-32.3,10.2ZM224.4,214.2l-29.6-16.4c5.7-10.2,11.9-20.3,18.6-30l27.8,19.3c-6,8.7-11.7,17.8-16.8,27.1ZM774.7,212.6c-5.2-9.2-10.9-18.3-17-27l27.7-19.5c6.7,9.6,13.1,19.6,18.8,29.9l-29.5,16.6ZM260.7,161.9l-25.7-22c7.6-8.9,15.8-17.5,24.3-25.6l23.4,24.5c-7.7,7.3-15,15.1-21.9,23.1ZM738.1,160.5c-6.9-8-14.3-15.7-22-23l23.2-24.6c8.5,8.1,16.7,16.6,24.4,25.5l-25.6,22.1ZM306.7,117.9l-20.8-26.7c9.3-7.2,19-14,28.9-20.2l18,28.7c-8.9,5.6-17.7,11.8-26.1,18.3ZM691.8,116.8c-8.4-6.5-17.2-12.6-26.2-18.1l17.8-28.8c9.9,6.2,19.7,12.9,29,20.1l-20.6,26.8ZM360.6,84.1l-15-30.3c10.5-5.2,21.4-9.9,32.4-14l11.9,31.7c-9.9,3.7-19.7,8-29.2,12.7ZM637.7,83.2c-9.5-4.7-19.4-8.8-29.3-12.5l11.6-31.8c11,4,21.9,8.7,32.5,13.8l-14.8,30.4ZM420.2,61.8l-8.6-32.7c11.3-3,23-5.4,34.6-7.2l5.2,33.4c-10.5,1.6-21,3.8-31.2,6.5ZM577.9,61.3c-10.3-2.6-20.8-4.7-31.2-6.3l5-33.5c11.6,1.7,23.3,4,34.6,6.9l-8.3,32.8ZM483.1,52.1l-1.8-33.8c11.8-.6,23.6-.6,35.3-.1l-1.6,33.8c-10.5-.5-21.3-.5-31.9.1Z"/>
  <path class="st1" d="M500,620.1c-140,0-253.8-113.9-253.8-253.8s113.9-253.8,253.8-253.8,253.8,113.9,253.8,253.8-113.9,253.8-253.8,253.8ZM500,146.4c-121.3,0-220,98.7-220,220s98.7,220,220,220,220-98.7,220-220-98.7-220-220-220Z"/>
  <rect class="st1" x="483.1" y="603.2" width="33.8" height="88"/>
  <rect class="st4" x="445.5" y="691.2" width="109" height="291"/>
  <path class="st0" d="M676,366.3c0,97.2-78.8,176-176,176s-176-78.8-176-176,78.8-176,176-176,176,78.8,176,176Z"/>
  <rect class="st3" x="445.5" y="728.4" width="109" height="33.8"/>
  <rect class="st3" x="445.5" y="911.2" width="109" height="33.8"/>
  <rect class="st3" x="483.1" y="247.9" width="33.8" height="169.2"/>
  <rect class="st3" x="483.1" y="450.9" width="33.8" height="33.8"/>
</svg>