<?xml version="1.0" encoding="UTF-8"?>
<svg id="Layer_1" xmlns="http://www.w3.org/2000/svg" version="1.1" viewBox="0 0 1000 1000">
  <!-- Generator: Adobe Illustrator 29.2.1, SVG Export Plug-In . SVG Version: 2.1.0 Build 116)  -->
  <defs>
    <style>
      .st0 {
        fill: #4999d5;
      }

      .st1 {
        fill: #242d3c;
      }

      .st2 {
        fill: #0054a1;
      }

      .st3 {
        fill: #fff;
      }
    </style>
  </defs>
  <path class="st1" d="M350.7,675c-10.2-5-20.4-10.6-30.1-16.7l17.4-28c8.8,5.5,17.9,10.5,27.2,15.1l-14.5,29.6ZM649.9,674.7l-14.6-29.6c9.3-4.5,18.4-9.6,27.1-15.1l17.5,27.9c-9.7,6.1-19.8,11.7-30.1,16.8ZM292.4,638.7c-9-7-17.8-14.5-26.1-22.4l22.7-23.9c7.5,7.1,15.4,13.9,23.6,20.2l-20.2,26.1ZM708.1,638.3l-20.2-26.1c8.2-6.3,16.1-13.2,23.5-20.3l22.7,23.9c-8.3,7.9-17,15.4-26.1,22.4ZM242.6,591.4c-7.5-8.6-14.6-17.8-21.1-27.1l27-18.9c5.9,8.4,12.3,16.7,19.1,24.5l-25,21.5ZM757.9,590.9l-25-21.5c6.7-7.9,13.1-16.1,19-24.6l27.1,18.9c-6.5,9.3-13.6,18.5-21.1,27.2ZM203.2,535.1c-5.6-10-10.7-20.3-15.2-30.8l30.3-13.1c4.1,9.5,8.7,18.8,13.7,27.8l-28.8,16.1ZM797.2,534.5l-28.8-16c5-9,9.6-18.4,13.7-27.9l30.3,13c-4.5,10.5-9.6,20.9-15.2,30.9ZM175.9,472c-3.4-10.9-6.4-22.1-8.7-33.3l32.3-6.7c2.1,10.1,4.7,20.2,7.8,30l-31.5,9.9ZM824.3,471.4l-31.5-9.8c3.1-9.9,5.7-20,7.8-30.1l32.3,6.6c-2.3,11.2-5.2,22.4-8.6,33.3ZM162,404.7c-1.2-11.3-1.8-22.9-1.8-34.3h33c0,10.3.6,20.7,1.6,31l-32.8,3.4ZM838,404l-32.8-3.3c1-10.3,1.5-20.7,1.5-31v-1.3s33,0,33,0v1.1c0,11.7-.6,23.2-1.7,34.6ZM194.7,339.3l-32.8-3.2c1.1-11.4,2.8-22.9,5.1-34l32.3,6.5c-2,10.1-3.6,20.4-4.6,30.7ZM805.1,337.4c-1.1-10.2-2.7-20.6-4.8-30.7l32.3-6.7c2.3,11.2,4.1,22.6,5.3,34l-32.8,3.4ZM207,278.5l-31.5-9.8c3.4-10.9,7.4-21.8,11.9-32.3l30.3,13c-4,9.5-7.7,19.3-10.7,29.1ZM792.4,276.7c-3.1-9.8-6.8-19.6-10.9-29.1l30.3-13.1c4.6,10.5,8.6,21.3,12.1,32.2l-31.4,10ZM231.4,221.5l-28.9-16c5.5-10,11.6-19.8,18.2-29.2l27.1,18.8c-5.9,8.5-11.4,17.4-16.4,26.4ZM767.7,219.8c-5-9-10.6-17.8-16.5-26.3l27-19c6.6,9.4,12.7,19.1,18.3,29.1l-28.8,16.2ZM266.7,170.5l-25.1-21.4c7.4-8.7,15.4-17.1,23.6-25l22.8,23.9c-7.5,7.1-14.6,14.7-21.3,22.6ZM732,169c-6.7-7.8-14-15.3-21.5-22.4l22.6-24c8.3,7.9,16.3,16.2,23.8,24.8l-24.9,21.6ZM311.6,127.6l-20.3-26c9-7,18.5-13.7,28.2-19.7l17.5,27.9c-8.7,5.5-17.3,11.5-25.4,17.8ZM686.9,126.4c-8.2-6.3-16.8-12.2-25.5-17.7l17.4-28c9.7,6,19.2,12.6,28.3,19.6l-20.1,26.1ZM364.1,94.6l-14.6-29.6c10.2-5.1,20.9-9.7,31.6-13.7l11.6,30.9c-9.7,3.6-19.3,7.8-28.5,12.3ZM634.2,93.8c-9.3-4.5-18.9-8.6-28.6-12.2l11.3-31c10.7,3.9,21.4,8.5,31.7,13.5l-14.5,29.7ZM422.2,72.9l-8.3-31.9c11-2.9,22.4-5.2,33.7-7l5.1,32.6c-10.2,1.6-20.4,3.7-30.4,6.3ZM576,72.4c-10-2.5-20.2-4.6-30.4-6.1l4.8-32.6c11.3,1.7,22.7,3.9,33.7,6.8l-8.1,32ZM483.5,63.4l-1.7-32.9c11.5-.6,23-.6,34.4,0l-1.5,32.9c-10.3-.5-20.7-.4-31.1,0Z"/>
  <path class="st1" d="M500,617.1c-136.4,0-247.4-111-247.4-247.4s111-247.4,247.4-247.4,247.4,111,247.4,247.4-111,247.4-247.4,247.4ZM500,155.3c-118.2,0-214.4,96.2-214.4,214.4s96.2,214.4,214.4,214.4,214.4-96.2,214.4-214.4-96.2-214.4-214.4-214.4Z"/>
  <rect class="st1" x="483.5" y="600.6" width="33" height="85.8"/>
  <rect class="st2" x="446.9" y="686.4" width="106.2" height="283.7"/>
  <path class="st0" d="M671.5,369.7c0,94.7-76.8,171.5-171.5,171.5s-171.5-76.8-171.5-171.5,76.8-171.5,171.5-171.5,171.5,76.8,171.5,171.5Z"/>
  <rect class="st3" x="446.9" y="722.7" width="106.2" height="33"/>
  <rect class="st3" x="446.9" y="900.8" width="106.2" height="33"/>
  <rect class="st3" x="483.5" y="254.3" width="33" height="164.9"/>
  <rect class="st3" x="483.5" y="452.2" width="33" height="33"/>
</svg>