<?xml version="1.0" encoding="UTF-8"?>
<svg id="Layer_1" xmlns="http://www.w3.org/2000/svg" version="1.1" viewBox="0 0 1000 1000">
  <!-- Generator: Adobe Illustrator 29.2.1, SVG Export Plug-In . SVG Version: 2.1.0 Build 116)  -->
  <defs>
    <style>
      .st0 {
        fill: #4999d5;
      }

      .st1 {
        fill: #242d3c;
      }

      .st2 {
        fill: #fdc800;
      }

      .st3 {
        fill: #0054a1;
      }

      .st4 {
        fill: #ff8d39;
      }
    </style>
  </defs>
  <rect class="st2" x="193.5" y="317.3" width="613.1" height="186"/>
  <rect class="st1" x="450.4" y="535.4" width="99.2" height="31"/>
  <rect class="st1" x="295.5" y="535.4" width="99.2" height="31"/>
  <rect class="st1" x="605.3" y="535.4" width="99.2" height="31"/>
  <rect class="st4" x="394.7" y="254.2" width="210.6" height="31"/>
  <rect class="st1" x="484.5" y="613.9" width="31" height="135.7"/>
  <path class="st1" d="M587,908.2h-174.1v-174.1h174.1v174.1ZM444,877.2h112.1v-112h-112.1v112Z"/>
  <rect class="st0" x="469" y="805.6" width="62" height="31"/>
  <path class="st1" d="M965.1,836.6h-174.1v-174.1h174.1v174.1ZM822,805.6h112v-112h-112v112Z"/>
  <rect class="st3" x="847.1" y="734.1" width="62" height="31"/>
  <polygon class="st1" points="806.5 765.1 673.5 765.1 673.5 613.9 704.5 613.9 704.5 734.1 806.5 734.1 806.5 765.1"/>
  <path class="st1" d="M209,836.6H34.9v-174.1h174.1v174.1ZM65.9,805.6h112v-112h-112v112Z"/>
  <rect class="st3" x="90.9" y="734.1" width="62" height="31"/>
  <polygon class="st1" points="326.5 765.1 193.5 765.1 193.5 734.1 295.5 734.1 295.5 613.9 326.5 613.9 326.5 765.1"/>
  <path class="st1" d="M822,629.5H178V191.1h644.1v438.4ZM209,598.4h582.1V222.1H209v376.3Z"/>
  <path class="st1" d="M822,222.1H178V91.8h644.1v130.3ZM209,191.1h582.1v-68.2H209v68.2Z"/>
  <rect class="st1" x="240" y="141.5" width="31" height="31"/>
  <rect class="st1" x="302" y="141.5" width="31" height="31"/>
  <rect class="st1" x="364" y="141.5" width="31" height="31"/>
</svg>