<?xml version="1.0" encoding="UTF-8"?>
<svg id="Layer_1" xmlns="http://www.w3.org/2000/svg" version="1.1" viewBox="0 0 1000 1000">
  <!-- Generator: Adobe Illustrator 29.2.1, SVG Export Plug-In . SVG Version: 2.1.0 Build 116)  -->
  <defs>
    <style>
      .st0 {
        fill: #4999d5;
      }

      .st1 {
        fill: #242d3c;
      }

      .st2 {
        fill: #fdc800;
      }

      .st3 {
        fill: #ff8d39;
      }
    </style>
  </defs>
  <path class="st3" d="M712.1,500c0-24.3,18.6-44.2,42.3-46.3-2.4-14.1-6-27.7-10.7-40.8-21.7,10-47.8,2-59.9-18.9-12.1-21-6.2-47.6,13.5-61.3-9.1-10.8-19-20.8-29.9-29.8-13.6,19.4-40.2,25.6-61.3,13.4-20.9-12.2-28.9-38.3-18.9-59.9-13.2-4.7-26.8-8.3-40.8-10.9-2.1,23.7-22.1,42.3-46.3,42.3s-44.2-18.6-46.3-42.3c-14.1,2.5-27.7,6.2-40.8,10.9,10.1,21.6,2.1,47.7-19,59.9-21,12.2-47.6,6-61.3-13.4-10.8,9-20.8,19-29.8,29.8,19.4,13.7,25.6,40.3,13.4,61.3-12.1,21-38.2,29-59.9,18.9-4.6,13-8.3,26.7-10.9,40.8,23.7,2.1,42.3,22.1,42.3,46.3s-18.7,44.2-42.3,46.3c2.5,14,6.2,27.7,10.9,40.7,21.6-10.1,47.8-2.1,59.9,18.9,12.2,21.1,6,47.6-13.4,61.4,9.1,10.7,19,20.7,29.8,29.8,13.7-19.5,40.3-25.6,61.3-13.5,21.1,12.1,29.1,38.3,19,60,13.1,4.6,26.7,8.3,40.8,10.8,2.1-23.7,22.1-42.3,46.3-42.3s44.2,18.6,46.3,42.3c13.9-2.5,27.6-6.2,40.8-10.8-10.1-21.6-2-47.8,18.9-60,21.1-12.2,47.7-6,61.3,13.5,10.9-9.1,20.8-19.1,29.9-29.8-19.5-13.8-25.6-40.3-13.5-61.4,12.1-21,38.2-29,59.9-18.9,4.7-13.1,8.3-26.7,10.7-40.7-23.7-2.1-42.3-22.1-42.3-46.3ZM500.1,619c-65.7,0-119-53.2-119-119s53.3-119,119-119,119,53.2,119,119-53.4,119-119,119Z"/>
  <path class="st2" d="M500.1,636c-75,0-136-61-136-136s61-136,136-136,136,61,136,136-61,136-136,136ZM500.1,397.9c-56.3,0-102.1,45.8-102.1,102.1s45.8,102.1,102.1,102.1,102.1-45.8,102.1-102.1-45.8-102.1-102.1-102.1Z"/>
  <path class="st1" d="M111.2,467.5l-33.8-2.8c17.1-207.3,179.9-370.2,387.3-387.3l2.8,33.8c-190.7,15.7-340.5,165.5-356.2,356.2Z"/>
  <path class="st1" d="M589.7,914.5l-7.1-33.1c11.1-2.4,22.3-5.3,33.2-8.7l10,32.4c-11.9,3.7-24,6.9-36.1,9.5ZM661,892.4l-12.9-31.4c10.5-4.3,21-9.2,31.1-14.4l15.6,30.1c-11,5.7-22.4,11-33.9,15.7ZM727.2,858.1l-18.2-28.6c9.6-6.1,19.1-12.7,28.1-19.7l20.6,26.9c-9.9,7.6-20.1,14.7-30.6,21.4ZM786.4,812.8l-22.9-25c8.4-7.7,16.6-15.9,24.3-24.3l25,22.9c-8.4,9.1-17.2,18-26.4,26.4ZM836.7,757.8l-26.9-20.7c6.9-9.1,13.6-18.5,19.7-28.1l28.6,18.2c-6.6,10.4-13.8,20.7-21.4,30.6ZM876.7,694.9l-30.1-15.6c5.2-10.1,10.1-20.6,14.4-31.1l31.4,12.9c-4.7,11.5-10,22.8-15.7,33.8ZM905,626l-32.4-10.1c3.4-10.9,6.3-22,8.7-33.2l33.2,7.2c-2.6,12.1-5.8,24.3-9.5,36.1Z"/>
  <path class="st1" d="M888.8,467.5c-15.7-190.7-165.5-340.6-356.2-356.2l2.8-33.8c207.3,17.1,370.2,180,387.3,387.3l-33.8,2.8Z"/>
  <path class="st1" d="M410.1,914.5c-12.1-2.6-24.2-5.8-36.1-9.5l10.1-32.4c10.9,3.4,22.1,6.3,33.2,8.7l-7.2,33.2ZM338.9,892.4c-11.4-4.7-22.8-10-33.8-15.7l15.6-30.1c10.1,5.2,20.6,10.1,31.1,14.4l-12.9,31.4ZM272.7,858.1c-10.4-6.6-20.7-13.8-30.6-21.4l20.6-26.9c9.1,6.9,18.5,13.6,28.1,19.7l-18.2,28.6ZM213.6,812.7c-9.1-8.4-18-17.3-26.4-26.4l25-22.9c7.7,8.4,15.9,16.6,24.3,24.3l-22.9,25ZM163.2,757.8c-7.6-9.8-14.7-20.1-21.4-30.6l28.6-18.2c6.1,9.6,12.7,19.1,19.7,28.1l-26.9,20.6ZM123.2,694.8c-5.7-11-11-22.4-15.7-33.9l31.4-12.9c4.3,10.5,9.2,21,14.4,31.1l-30.1,15.6ZM94.9,625.8c-3.7-11.8-6.9-24-9.5-36.1l33.2-7.1c2.4,11.1,5.3,22.3,8.7,33.2l-32.4,10Z"/>
  <path class="st0" d="M550.9,958h-101.8v-101.8h101.8v101.8ZM483,924.1h33.9v-33.9h-33.9v33.9Z"/>
  <path class="st1" d="M143.8,550.9H42v-101.8h101.8v101.8ZM75.9,517h33.9v-33.9h-33.9v33.9Z"/>
  <path class="st1" d="M958,550.9h-101.8v-101.8h101.8v101.8ZM890.1,517h33.9v-33.9h-33.9v33.9Z"/>
  <path class="st1" d="M550.9,143.8h-101.8V42h101.8v101.8ZM483,109.9h33.9v-33.9h-33.9v33.9Z"/>
  <rect class="st1" x="533.9" y="75.9" width="339.2" height="33.9"/>
  <rect class="st1" x="126.8" y="75.9" width="339.3" height="33.9"/>
  <path class="st1" d="M92.9,143.8c-28.1,0-50.9-22.8-50.9-50.9s22.8-50.9,50.9-50.9,50.9,22.8,50.9,50.9-22.8,50.9-50.9,50.9ZM92.9,75.9c-9.3,0-17,7.6-17,17s7.6,17,17,17,17-7.6,17-17-7.6-17-17-17Z"/>
  <path class="st1" d="M907.1,143.8c-28.1,0-50.9-22.8-50.9-50.9s22.8-50.9,50.9-50.9,50.9,22.8,50.9,50.9-22.8,50.9-50.9,50.9ZM907.1,75.9c-9.4,0-17,7.6-17,17s7.6,17,17,17,17-7.6,17-17-7.6-17-17-17Z"/>
</svg>