<?xml version="1.0" encoding="UTF-8"?>
<svg id="Layer_1" xmlns="http://www.w3.org/2000/svg" version="1.1" viewBox="0 0 1000 1000">
  <!-- Generator: Adobe Illustrator 29.2.1, SVG Export Plug-In . SVG Version: 2.1.0 Build 116)  -->
  <defs>
    <style>
      .st0 {
        fill: #4999d5;
      }

      .st1 {
        fill: #242d3c;
      }

      .st2 {
        fill: #0054a1;
      }
    </style>
  </defs>
  <path class="st2" d="M723.2,500c0-25.5,19.6-46.5,44.5-48.7-2.5-14.8-6.4-29.2-11.3-42.9-22.8,10.5-50.3,2.1-63-19.9-12.7-22.1-6.5-50.1,14.2-64.5-9.5-11.4-20-21.9-31.5-31.4-14.3,20.4-42.3,26.9-64.5,14.1-22-12.8-30.5-40.3-19.9-63-13.8-4.9-28.2-8.8-42.9-11.4-2.2,25-23.2,44.6-48.7,44.6s-46.5-19.6-48.8-44.6c-14.8,2.7-29.1,6.5-42.9,11.4,10.6,22.8,2.2,50.2-20,63-22.1,12.8-50,6.3-64.5-14.1-11.4,9.5-21.8,20-31.4,31.4,20.4,14.4,26.9,42.4,14.1,64.5-12.8,22.1-40.2,30.5-63,19.9-4.9,13.7-8.8,28.1-11.4,42.9,24.9,2.2,44.6,23.3,44.6,48.7s-19.6,46.5-44.6,48.8c2.7,14.8,6.6,29.1,11.4,42.9,22.8-10.6,50.3-2.2,63,19.9,12.8,22.2,6.3,50.1-14.1,64.6,9.5,11.3,20,21.8,31.4,31.4,14.4-20.5,42.4-27,64.5-14.2,22.2,12.8,30.6,40.3,20,63.1,13.8,4.9,28.1,8.7,42.9,11.4,2.2-25,23.2-44.6,48.8-44.6s46.5,19.6,48.7,44.6c14.7-2.7,29.1-6.5,42.9-11.4-10.6-22.8-2.1-50.3,19.9-63.1,22.2-12.8,50.2-6.3,64.5,14.2,11.5-9.6,21.9-20.1,31.5-31.4-20.6-14.5-26.9-42.4-14.2-64.6,12.8-22.1,40.2-30.5,63-19.9,4.9-13.8,8.8-28.1,11.3-42.9-24.9-2.2-44.5-23.2-44.5-48.8ZM500.1,625.2c-69.2,0-125.3-56-125.3-125.3s56.1-125.3,125.3-125.3,125.3,56,125.3,125.3-56.2,125.3-125.3,125.3Z"/>
  <path class="st0" d="M500.1,643.1c-78.9,0-143.1-64.2-143.1-143.1s64.2-143.1,143.1-143.1,143.1,64.2,143.1,143.1-64.2,143.1-143.1,143.1ZM500.1,392.6c-59.2,0-107.4,48.2-107.4,107.4s48.2,107.4,107.4,107.4,107.4-48.2,107.4-107.4-48.2-107.4-107.4-107.4Z"/>
  <path class="st1" d="M90.9,465.8l-35.6-2.9C73.2,244.6,244.6,73.2,462.8,55.3l2.9,35.6c-200.7,16.5-358.4,174.2-374.9,374.9Z"/>
  <path class="st1" d="M594.4,936.2l-7.5-34.9c11.7-2.5,23.5-5.6,34.9-9.2l10.6,34.1c-12.5,3.9-25.3,7.2-38,10ZM669.4,913l-13.6-33c11.1-4.6,22.1-9.7,32.8-15.2l16.4,31.7c-11.6,6-23.6,11.6-35.6,16.5ZM739.1,876.9l-19.1-30.1c10.1-6.4,20.1-13.4,29.6-20.7l21.7,28.3c-10.4,8-21.2,15.5-32.2,22.5ZM801.4,829.2l-24.1-26.3c8.9-8.1,17.5-16.7,25.6-25.5l26.3,24.1c-8.8,9.6-18.1,18.9-27.8,27.7ZM854.3,771.4l-28.3-21.7c7.3-9.5,14.3-19.5,20.7-29.6l30.1,19.1c-7,11-14.6,21.8-22.5,32.2ZM896.4,705.2l-31.7-16.4c5.5-10.6,10.6-21.7,15.2-32.7l33,13.6c-4.9,12.1-10.5,24-16.5,35.6ZM926.2,632.6l-34.1-10.6c3.6-11.4,6.7-23.2,9.2-34.9l34.9,7.5c-2.7,12.7-6.1,25.5-10,38Z"/>
  <path class="st1" d="M909.1,465.8c-16.5-200.7-174.2-358.4-374.9-374.9l2.9-35.6c218.2,18,389.6,189.4,407.6,407.6l-35.6,2.9Z"/>
  <path class="st1" d="M405.4,936.2c-12.7-2.7-25.5-6.1-38-10l10.6-34.1c11.5,3.6,23.2,6.7,34.9,9.2l-7.5,34.9ZM330.4,912.9c-12-4.9-24-10.5-35.6-16.5l16.4-31.7c10.7,5.5,21.7,10.6,32.7,15.2l-13.6,33ZM260.8,876.8c-11-7-21.8-14.6-32.2-22.5l21.7-28.3c9.5,7.3,19.5,14.3,29.6,20.7l-19.2,30.1ZM198.6,829.1c-9.6-8.8-19-18.2-27.7-27.8l26.3-24.1c8.1,8.8,16.7,17.4,25.5,25.6l-24.1,26.3ZM145.6,771.3c-7.9-10.4-15.5-21.2-22.5-32.2l30.1-19.2c6.4,10.1,13.4,20.1,20.7,29.6l-28.3,21.7ZM103.5,705c-6-11.6-11.5-23.6-16.5-35.6l33-13.5c4.5,11.1,9.6,22.1,15.2,32.8l-31.7,16.4ZM73.7,632.4c-3.9-12.5-7.2-25.3-10-38l34.9-7.5c2.5,11.7,5.6,23.5,9.1,34.9l-34.1,10.6Z"/>
  <path class="st1" d="M553.6,982h-107.1v-107.1h107.1v107.1ZM482.1,946.3h35.7v-35.7h-35.7v35.7Z"/>
  <path class="st1" d="M125.1,553.6H18v-107.1h107.1v107.1ZM53.7,517.8h35.7v-35.7h-35.7v35.7Z"/>
  <path class="st1" d="M982,553.6h-107.1v-107.1h107.1v107.1ZM910.6,517.8h35.7v-35.7h-35.7v35.7Z"/>
  <path class="st1" d="M553.6,125.1h-107.1V18h107.1v107.1ZM482.1,89.4h35.7v-35.7h-35.7v35.7Z"/>
  <rect class="st1" x="535.7" y="53.7" width="357" height="35.7"/>
  <rect class="st1" x="107.3" y="53.7" width="357" height="35.7"/>
  <path class="st1" d="M71.6,125.1c-29.5,0-53.5-24-53.5-53.5s24-53.6,53.5-53.6,53.6,24,53.6,53.6-24,53.5-53.6,53.5ZM71.6,53.7c-9.8,0-17.8,8-17.8,17.9s8,17.9,17.8,17.9,17.9-8,17.9-17.9-8-17.9-17.9-17.9Z"/>
  <path class="st1" d="M928.4,125.1c-29.5,0-53.6-24-53.6-53.5s24-53.6,53.6-53.6,53.5,24,53.5,53.6-24,53.5-53.5,53.5ZM928.4,53.7c-9.8,0-17.9,8-17.9,17.9s8,17.9,17.9,17.9,17.8-8,17.8-17.9-8-17.9-17.8-17.9Z"/>
</svg>